<svg xmlns="http://www.w3.org/2000/svg" xmlns:xlink="http://www.w3.org/1999/xlink" style="width: 100%; height: 100%" viewBox="0 0 41 25" preserveAspectRatio="none" width="41" height="25"><defs><svg width="41" height="25" fill="none" xmlns="http://www.w3.org/2000/svg" id="svg554136510_614"><path d="M25.847 3.829a.18.18 0 0 1 .307.001l11.317 18.347c.077.125-.01.288-.155.288H21.302a.181.181 0 0 1-.152-.084L18.5 18.24l-1.465 2.324 2.338 3.65c.314.49.846.785 1.417.785h18.82c1.094 0 1.758-1.24 1.172-2.19L27.087.608a1.254 1.254 0 0 0-2.142-.01l-13.734 21.78a.181.181 0 0 1-.153.086H3.67c-.143 0-.23-.162-.154-.287l6.95-11.382a.18.18 0 0 1 .308-.003l3.024 4.722 1.466-2.324-3.608-5.631a1.254 1.254 0 0 0-2.14.024L.215 22.816C-.365 23.766.299 25 1.39 25h10.186c.575 0 1.11-.3 1.423-.795l3.158-5.009 9.69-15.367Z" fill="#000"></path></svg></defs><use href="#svg554136510_614"></use></svg>