<svg xmlns="http://www.w3.org/2000/svg" xmlns:xlink="http://www.w3.org/1999/xlink" style="width: 100%; height: 100%" viewBox="0 0 43 43" preserveAspectRatio="none" width="43" height="43"><defs><svg width="43" height="43" fill="none" xmlns="http://www.w3.org/2000/svg" id="svg1892322250_403"><path fill-rule="evenodd" clip-rule="evenodd" d="M42.232 21.395c0 11.598-9.402 21-21 21s-21-9.402-21-21 9.402-21 21-21 21 9.402 21 21Zm-13.634 9a.59.59 0 0 0 .603-.627 8 8 0 0 0-15.948 0 .591.591 0 0 0 .603.627h14.742ZM13.253 15.023a.591.591 0 0 1 .603-.628h14.742c.347 0 .63.282.603.628a8 8 0 0 1-15.948 0Z" fill="#FFFFFF"></path></svg></defs><use href="#svg1892322250_403"></use></svg>