<svg xmlns:xlink="http://www.w3.org/1999/xlink" width="42" height="42" fill="none" xmlns="http://www.w3.org/2000/svg" id="svg675089403_612"><path fill-rule="evenodd" clip-rule="evenodd" d="M21 42c11.598 0 21-9.402 21-21S32.598 0 21 0 0 9.402 0 21s9.402 21 21 21Zm-2.288-13.703c0-1.49-1.238-2.702-2.76-2.702-1.523 0-2.76 1.212-2.76 2.703 0 1.49 1.237 2.702 2.76 2.702 1.522 0 2.76-1.212 2.76-2.703Zm10.045 0c0-1.49-1.238-2.702-2.76-2.702-1.523 0-2.76 1.212-2.76 2.703 0 1.49 1.237 2.702 2.76 2.702 1.522 0 2.76-1.212 2.76-2.703Zm-7.782-2.588c4.43 0 8.024-3.518 8.024-7.856H29c0-4.323-3.34-7.519-7.664-7.853v8.76H13l.045.288c.596 3.83 3.976 6.661 7.93 6.661Z" fill="#FFFFFF"></path></svg>