<svg xmlns="http://www.w3.org/2000/svg" xmlns:xlink="http://www.w3.org/1999/xlink" style="width: 100%; height: 100%" viewBox="0 0 332 235" preserveAspectRatio="none" width="419" height="297"><defs><svg width="332" height="235" fill="none" xmlns="http://www.w3.org/2000/svg" id="svg-531691021_893"><g clip-path="url(#svg-531691021_893_a)" fill="none"><path fill="#FFFFFF" d="M0 0h332v235H0z"></path><path d="M95.62 5.4h-1.8c-16.8 24-49.5 48-89.1 58.8V66c10.8-.6 25.8-3.6 35.7-6.9v143.7c0 19.2-9 26.4-29.4 26.4v1.8h112.199v-1.8c-20.4 0-27.6-7.2-27.6-26.4V5.4ZM180.872 117c31.2 0 49.5-21.6 49.5-53.4 0-32.1-18.3-52.8-49.5-52.8s-49.5 21.6-49.5 53.4c0 32.1 18.3 52.8 49.5 52.8Zm-14.4 114 132-218.4h-6.3l-132 218.4h6.3Zm14.7-117.6c-13.5 0-16.8-21-16.8-49.5 0-29.4 3-49.5 16.5-49.5 13.2 0 16.5 21 16.5 49.5 0 29.4-3 49.5-16.2 49.5Zm96.6 119.4c31.2 0 49.5-21.6 49.5-53.4 0-32.1-18.3-52.8-49.5-52.8s-49.5 21.6-49.5 53.4c0 32.1 18.3 52.8 49.5 52.8Zm0-3.6c-13.2 0-16.5-21-16.5-49.5 0-29.4 3-49.5 16.2-49.5 13.5 0 16.8 21 16.8 49.5 0 29.4-3 49.5-16.5 49.5Z" fill="#131313"></path></g><defs><clipPath id="svg-531691021_893_a"><path fill="#fff" d="M0 0h332v235H0z"></path></clipPath></defs></svg></defs><use href="#svg-531691021_893"></use></svg>