<svg xmlns="http://www.w3.org/2000/svg" xmlns:xlink="http://www.w3.org/1999/xlink" style="width: 100%; height: 100%" viewBox="0 0 69 22" preserveAspectRatio="none" width="69" height="22"><defs><svg width="69" height="22" fill="none" xmlns="http://www.w3.org/2000/svg" id="svg-845817923_1723"><path d="m18.333 5.833-6.557 6.558c-.33.33-.495.495-.686.556a.833.833 0 0 1-.515 0c-.19-.061-.355-.226-.685-.556L7.609 10.11c-.33-.33-.495-.495-.685-.557a.833.833 0 0 0-.516 0c-.19.061-.355.226-.685.556l-4.057 4.058m16.667-8.334h-5.834m5.834 0v5.834" stroke="#FFFFFF" stroke-width="1.5px" stroke-linecap="round" stroke-linejoin="round" fill="none"></path><path d="M29.896 7.727V15H28.8V7.727h1.097Zm8.268 0V15h-1.008l-3.697-5.334h-.067V15h-1.098V7.727h1.016l3.7 5.341h.068v-5.34h1.086Zm3.037 0 2.024 5.924h.081l2.025-5.924h1.186L43.9 15h-1.268l-2.617-7.273H41.2ZM48.367 15V7.727h4.56v.945h-3.463v2.216h3.225v.94h-3.225v2.227h3.505V15h-4.602Zm10.792-5.362a1.037 1.037 0 0 0-.469-.781c-.274-.187-.62-.281-1.037-.281-.298 0-.556.047-.774.142-.218.092-.387.22-.508.384a.906.906 0 0 0-.177.55c0 .173.04.322.12.447.083.126.191.231.324.316.135.083.279.153.433.21.154.055.302.1.444.135l.71.185c.232.056.47.133.714.23.244.098.47.225.678.384.208.159.377.355.504.59.13.234.196.514.196.841 0 .412-.107.778-.32 1.097-.21.32-.517.572-.92.757-.4.184-.884.277-1.452.277-.545 0-1.016-.087-1.413-.26a2.176 2.176 0 0 1-.934-.735 2.131 2.131 0 0 1-.373-1.136h1.1c.022.263.107.482.256.657.152.173.345.302.58.387.236.083.495.124.777.124.31 0 .586-.048.827-.145.244-.1.436-.237.575-.412a.976.976 0 0 0 .21-.622.762.762 0 0 0-.185-.529 1.363 1.363 0 0 0-.493-.34c-.206-.09-.44-.17-.7-.239l-.86-.234c-.582-.159-1.043-.392-1.384-.7-.339-.307-.508-.714-.508-1.221 0-.42.114-.785.34-1.097a2.24 2.24 0 0 1 .924-.728 3.161 3.161 0 0 1 1.314-.263c.493 0 .927.086 1.303.26.38.172.677.41.895.713.218.3.332.646.341 1.037H59.16Zm2.91-.966v-.945h5.629v.945h-2.27V15h-1.093V8.672h-2.266Z" fill="#FFFFFF"></path></svg></defs><use href="#svg-845817923_1723"></use></svg>