<svg xmlns:xlink="http://www.w3.org/1999/xlink" width="67" height="43" fill="none" xmlns="http://www.w3.org/2000/svg" id="svg978243065_2894"><g filter="url(#svg978243065_2894_a)" fill="none"><rect x="8" y="4" width="51" height="27" rx="6" fill="#2E2E2E"></rect></g><path d="M17.285 12.273h1.496l2.28 3.967h.094l2.28-3.967h1.495l-3.166 5.3V21h-1.312v-3.426l-3.167-5.301Zm10.465 8.86c-.613 0-1.149-.142-1.606-.423a2.844 2.844 0 0 1-1.066-1.18c-.252-.506-.379-1.097-.379-1.773 0-.679.127-1.273.38-1.781a2.838 2.838 0 0 1 1.065-1.185c.457-.281.993-.422 1.606-.422.614 0 1.15.14 1.607.422.457.281.812.676 1.065 1.185.253.508.38 1.102.38 1.781 0 .676-.127 1.267-.38 1.773a2.85 2.85 0 0 1-1.065 1.18c-.457.281-.993.422-1.607.422Zm.005-1.07c.397 0 .727-.106.988-.316.262-.21.455-.49.58-.84a3.34 3.34 0 0 0 .192-1.154c0-.418-.064-.801-.192-1.15a1.874 1.874 0 0 0-.58-.849c-.261-.213-.59-.32-.988-.32-.401 0-.733.107-.997.32a1.903 1.903 0 0 0-.584.848c-.125.35-.188.733-.188 1.15 0 .421.063.806.188 1.156.128.35.322.629.584.84.264.21.596.314.997.314Zm8.615-1.777v-3.832h1.278V21h-1.252v-1.134h-.069c-.15.35-.392.641-.724.874-.33.23-.74.345-1.232.345a2.21 2.21 0 0 1-1.116-.277 1.946 1.946 0 0 1-.759-.83c-.181-.367-.272-.82-.272-1.36v-4.163h1.274v4.01c0 .445.123.8.37 1.065.248.264.569.396.964.396.238 0 .475-.06.711-.179a1.5 1.5 0 0 0 .593-.541c.159-.241.237-.548.234-.92ZM39.36 21v-6.546h1.232v1.04h.068c.12-.352.33-.629.63-.83a1.805 1.805 0 0 1 1.032-.307 5.432 5.432 0 0 1 .541.03v1.218a2.3 2.3 0 0 0-.272-.047 2.597 2.597 0 0 0-.392-.03c-.302 0-.57.064-.806.192a1.425 1.425 0 0 0-.758 1.283V21H39.36Zm9.51-4.947-1.154.204a1.368 1.368 0 0 0-.23-.422 1.139 1.139 0 0 0-.418-.328 1.513 1.513 0 0 0-.66-.128c-.361 0-.662.081-.904.243-.241.16-.362.365-.362.618 0 .219.081.395.243.529.162.133.423.242.784.328l1.04.238c.602.14 1.05.354 1.346.644.296.29.444.666.444 1.129 0 .392-.114.741-.341 1.048-.225.304-.539.543-.942.716-.4.174-.865.26-1.394.26-.733 0-1.33-.156-1.794-.469-.463-.315-.747-.762-.852-1.342l1.232-.188c.076.322.234.564.473.73.238.161.55.242.933.242.417 0 .751-.087 1.001-.26.25-.176.375-.39.375-.643a.669.669 0 0 0-.23-.516c-.15-.14-.382-.244-.694-.315l-1.108-.243c-.611-.14-1.063-.361-1.355-.665-.29-.304-.435-.689-.435-1.155 0-.386.108-.724.324-1.014a2.12 2.12 0 0 1 .895-.678c.38-.164.816-.247 1.308-.247.707 0 1.264.154 1.67.46.407.304.675.712.806 1.224Z" fill="#FFFFFF"></path><defs><filter id="svg978243065_2894_a" x="0" y="0" width="67" height="43" filterUnits="userSpaceOnUse" color-interpolation-filters="sRGB"><feFlood flood-opacity="0" result="BackgroundImageFix"></feFlood><feColorMatrix in="SourceAlpha" values="0 0 0 0 0 0 0 0 0 0 0 0 0 0 0 0 0 0 127 0" result="hardAlpha"></feColorMatrix><feOffset dy="4"></feOffset><feGaussianBlur stdDeviation="4"></feGaussianBlur><feComposite in2="hardAlpha" operator="out"></feComposite><feColorMatrix values="0 0 0 0 0 0 0 0 0 0 0 0 0 0 0 0 0 0 0.05 0"></feColorMatrix><feBlend in2="BackgroundImageFix" result="effect1_dropShadow_410_17632"></feBlend><feBlend in="SourceGraphic" in2="effect1_dropShadow_410_17632" result="shape"></feBlend></filter></defs></svg>