<svg xmlns="http://www.w3.org/2000/svg" xmlns:xlink="http://www.w3.org/1999/xlink" style="width: 100%; height: 100%" viewBox="0 0 113 113" preserveAspectRatio="none" width="113" height="113"><defs><svg width="113" height="113" fill="none" xmlns="http://www.w3.org/2000/svg" id="svg-1037879504_1374"><path d="M106.666 62.917a6.248 6.248 0 0 0 6.25-6.25 6.248 6.248 0 0 0-6.25-6.25H96.249v-8.333h10.417a6.248 6.248 0 0 0 6.25-6.25 6.248 6.248 0 0 0-6.25-6.25H96.249v-6.25a6.248 6.248 0 0 0-6.25-6.25h-6.25V6.667A6.248 6.248 0 0 0 77.5.417a6.248 6.248 0 0 0-6.25 6.25v10.417h-8.333V6.667a6.248 6.248 0 0 0-6.25-6.25 6.248 6.248 0 0 0-6.25 6.25v10.417h-8.333V6.667a6.248 6.248 0 0 0-6.25-6.25 6.248 6.248 0 0 0-6.25 6.25v10.417h-6.25a6.248 6.248 0 0 0-6.25 6.25v6.25H6.666a6.248 6.248 0 0 0-6.25 6.25 6.248 6.248 0 0 0 6.25 6.25h10.417v8.333H6.666a6.248 6.248 0 0 0-6.25 6.25 6.248 6.248 0 0 0 6.25 6.25h10.417v8.334H6.666a6.248 6.248 0 0 0-6.25 6.25 6.248 6.248 0 0 0 6.25 6.25h10.417V90a6.248 6.248 0 0 0 6.25 6.25h6.25v10.416a6.248 6.248 0 0 0 6.25 6.25 6.248 6.248 0 0 0 6.25-6.25V96.251h8.333v10.416a6.248 6.248 0 0 0 6.25 6.25 6.248 6.248 0 0 0 6.25-6.25V96.251h8.333v10.416a6.248 6.248 0 0 0 6.25 6.25 6.248 6.248 0 0 0 6.25-6.25V96.251H90A6.248 6.248 0 0 0 96.25 90v-6.25h10.417a6.248 6.248 0 0 0 6.25-6.25 6.248 6.248 0 0 0-6.25-6.25H96.249v-8.334h10.417ZM83.749 83.751H29.582V29.584h54.167v54.167Zm-39.584-8.334h25a6.248 6.248 0 0 0 6.25-6.25v-25a6.248 6.248 0 0 0-6.25-6.25h-25a6.248 6.248 0 0 0-6.25 6.25v25a6.248 6.248 0 0 0 6.25 6.25Zm6.25-25h12.5v12.5h-12.5v-12.5Z" fill="#FFFFFF"></path></svg></defs><use href="#svg-1037879504_1374"></use></svg>