<svg xmlns:xlink="http://www.w3.org/1999/xlink" width="1000" height="220" fill="none" xmlns="http://www.w3.org/2000/svg" id="svg-1817349402_21584"><g clip-path="url(#svg-1817349402_21584_a)" fill="none"><path fill="#FFFFFF" d="M0 0h1000v220H0z"></path><path d="M421.3 75.012h2.22V81h1.356v-5.988h2.22V73.8H421.3v1.212Zm9.002 6.144c1.788 0 2.82-1.14 2.82-2.988 0-1.86-1.092-2.952-2.82-2.952-1.74 0-2.832 1.092-2.832 2.952 0 1.848 1.02 2.988 2.832 2.988Zm0-4.92c1.092 0 1.536.684 1.536 1.92 0 1.248-.42 1.968-1.548 1.968-1.116 0-1.524-.72-1.524-1.968 0-1.236.444-1.92 1.536-1.92Zm6.51 3.804c-.912 0-1.32-.528-1.32-1.824 0-1.32.42-1.836 1.308-1.836.84 0 1.38.612 1.38 1.464v.78c0 .816-.564 1.416-1.368 1.416Zm1.368.96h1.296v-8.04h-1.296v3.732h-.156c-.324-.828-.924-1.476-1.848-1.476-1.212 0-1.932.984-1.932 3 0 1.992.744 2.94 1.884 2.94.936 0 1.596-.708 1.92-1.548h.132V81Zm4.831-.84c-.744 0-.984-.336-.984-.756 0-.552.408-.804 1.08-.804h1.428v.276c0 .744-.612 1.284-1.524 1.284Zm1.656.84h1.152v-3.684c0-1.368-.684-2.1-2.328-2.1-1.272 0-2.136.6-2.4 1.464l1.212.384c.168-.504.516-.852 1.152-.852.804 0 1.08.408 1.08 1.104v.54h-1.656c-1.452 0-2.052.72-2.052 1.716 0 1.116.672 1.548 1.656 1.548 1.008 0 1.644-.588 1.992-1.392h.192V81Zm3.1 2.112c1.296 0 1.98-.624 2.568-2.04l2.352-5.712h-1.38l-.564 2.064c-.216.744-.48 1.728-.72 2.616h-.396c-.216-.876-.516-1.872-.72-2.64l-.588-2.04h-1.428l2.268 5.604c-.372.852-.72 1.032-1.356 1.032-.24 0-.48-.036-.72-.084l-.216 1.116c.264.036.528.084.9.084ZM484.724 192h1.464l-2.472-7.2h-2.136l-2.472 7.2h1.416l.576-1.884h3.048l.576 1.884Zm-3.048-3.744c.24-.792.48-1.656.684-2.424h.552c.18.756.408 1.644.66 2.424l.288.936h-2.472l.288-.936Zm7.685-.948c.936 0 1.38.42 1.38 1.032 0 .624-.384 1.032-1.368 1.032-.984 0-1.332-.408-1.332-1.032 0-.6.372-1.032 1.32-1.032Zm.096 6.108c-1.476 0-1.872-.216-1.872-.708 0-.348.36-.696.996-.696h1.812c.636 0 .924.252.924.636 0 .492-.372.768-1.86.768Zm2.892-.84c0-.888-.648-1.38-1.836-1.38h-1.752c-.432 0-.612-.096-.612-.336 0-.132.06-.276.156-.432l.132-.216c.276.06.576.096.924.096 1.62 0 2.484-.708 2.484-1.728 0-.732-.708-1.056-1.512-1.212l.012-.216c.564.072 1.032.108 1.344.108h.552v-.9h-2.808c-1.62 0-2.556.696-2.556 2.004 0 .864.444 1.476 1.272 1.764l-.42.288c-.348.228-.576.468-.576.78 0 .372.228.624.648.744v.144c-.672.204-1.224.54-1.224 1.032 0 .744.636 1.212 2.7 1.212 2.34 0 3.072-.54 3.072-1.752Zm3.674-5.46c.924 0 1.32.54 1.344 1.608h-2.808c.096-1.104.576-1.608 1.464-1.608Zm.048 5.028c1.548 0 2.172-.648 2.424-1.608l-1.08-.288c-.156.504-.432.912-1.332.912-.984 0-1.464-.552-1.536-1.644h3.984c.024-.276.036-.564.036-.756 0-1.572-.792-2.544-2.508-2.544-1.752 0-2.796 1.128-2.796 3.036 0 1.92 1.08 2.892 2.808 2.892Zm9.56-.024c2.076 0 2.904-.78 2.904-2.004 0-1.008-.504-1.464-2.1-1.572v-.276c1.152-.18 1.788-.696 1.788-1.668 0-1.32-.78-1.92-2.592-1.92-1.788 0-2.568.828-2.808 2.172l1.236.132c.168-.84.552-1.308 1.584-1.308.924 0 1.32.336 1.32 1.176 0 .792-.504 1.104-1.236 1.104h-1.236v.888h1.26c1.152 0 1.464.372 1.464 1.128 0 .732-.492 1.176-1.584 1.176-1.176 0-1.656-.492-1.86-1.344l-1.284.216c.276 1.476 1.32 2.1 3.144 2.1Zm7.17-.972c-1.068 0-1.572-.516-1.884-1.152l-1.212.432c.48 1.104 1.416 1.692 3.084 1.692 1.92 0 2.904-.672 2.904-2.292 0-1.38-.816-2.16-2.4-2.16-.972 0-1.608.288-2.052.648v-2.544c.9.144 2.34.276 4.056.276V184.8h-5.148v3.816l.936.408c.396-.252 1.008-.456 1.728-.456 1.116 0 1.584.408 1.584 1.26 0 .876-.42 1.32-1.596 1.32Zm78.923.852h1.464l-2.472-7.2h-2.136l-2.472 7.2h1.416l.576-1.884h3.048l.576 1.884Zm-3.048-3.744c.24-.792.48-1.656.684-2.424h.552c.18.756.408 1.644.66 2.424l.288.936h-2.472l.288-.936Zm7.685-.948c.936 0 1.38.42 1.38 1.032 0 .624-.384 1.032-1.368 1.032-.984 0-1.332-.408-1.332-1.032 0-.6.372-1.032 1.32-1.032Zm.096 6.108c-1.476 0-1.872-.216-1.872-.708 0-.348.36-.696.996-.696h1.812c.636 0 .924.252.924.636 0 .492-.372.768-1.86.768Zm2.892-.84c0-.888-.648-1.38-1.836-1.38h-1.752c-.432 0-.612-.096-.612-.336 0-.132.06-.276.156-.432l.132-.216c.276.06.576.096.924.096 1.62 0 2.484-.708 2.484-1.728 0-.732-.708-1.056-1.512-1.212l.012-.216c.564.072 1.032.108 1.344.108h.552v-.9h-2.808c-1.62 0-2.556.696-2.556 2.004 0 .864.444 1.476 1.272 1.764l-.42.288c-.348.228-.576.468-.576.78 0 .372.228.624.648.744v.144c-.672.204-1.224.54-1.224 1.032 0 .744.636 1.212 2.7 1.212 2.34 0 3.072-.54 3.072-1.752Zm3.674-5.46c.924 0 1.32.54 1.344 1.608h-2.808c.096-1.104.576-1.608 1.464-1.608Zm.048 5.028c1.548 0 2.172-.648 2.424-1.608l-1.08-.288c-.156.504-.432.912-1.332.912-.984 0-1.464-.552-1.536-1.644h3.984c.024-.276.036-.564.036-.756 0-1.572-.792-2.544-2.508-2.544-1.752 0-2.796 1.128-2.796 3.036 0 1.92 1.08 2.892 2.808 2.892Zm9.56-.024c2.076 0 2.904-.78 2.904-2.004 0-1.008-.504-1.464-2.1-1.572v-.276c1.152-.18 1.788-.696 1.788-1.668 0-1.32-.78-1.92-2.592-1.92-1.788 0-2.568.828-2.808 2.172l1.236.132c.168-.84.552-1.308 1.584-1.308.924 0 1.32.336 1.32 1.176 0 .792-.504 1.104-1.236 1.104h-1.236v.888h1.26c1.152 0 1.464.372 1.464 1.128 0 .732-.492 1.176-1.584 1.176-1.176 0-1.656-.492-1.86-1.344l-1.284.216c.276 1.476 1.32 2.1 3.144 2.1Zm7.338-3.648c1.02 0 1.464.432 1.464 1.212 0 .816-.36 1.428-1.548 1.428-1.176 0-1.716-.6-1.716-1.332 0-.684.528-1.308 1.8-1.308Zm2.784 1.224c0-1.452-1.02-2.004-2.244-2.004-1.176 0-1.896.42-2.268 1.212l-.252-.048v-.024c0-2.136.528-3.12 1.884-3.12.876 0 1.224.396 1.368 1.092l1.272-.192c-.24-1.272-.84-1.932-2.604-1.932-2.268 0-3.156 1.692-3.156 3.864 0 2.76 1.248 3.576 3.084 3.576 1.944 0 2.916-.864 2.916-2.424ZM698.724 192h1.464l-2.472-7.2h-2.136l-2.472 7.2h1.416l.576-1.884h3.048l.576 1.884Zm-3.048-3.744c.24-.792.48-1.656.684-2.424h.552c.18.756.408 1.644.66 2.424l.288.936h-2.472l.288-.936Zm7.685-.948c.936 0 1.38.42 1.38 1.032 0 .624-.384 1.032-1.368 1.032-.984 0-1.332-.408-1.332-1.032 0-.6.372-1.032 1.32-1.032Zm.096 6.108c-1.476 0-1.872-.216-1.872-.708 0-.348.36-.696.996-.696h1.812c.636 0 .924.252.924.636 0 .492-.372.768-1.86.768Zm2.892-.84c0-.888-.648-1.38-1.836-1.38h-1.752c-.432 0-.612-.096-.612-.336 0-.132.06-.276.156-.432l.132-.216c.276.06.576.096.924.096 1.62 0 2.484-.708 2.484-1.728 0-.732-.708-1.056-1.512-1.212l.012-.216c.564.072 1.032.108 1.344.108h.552v-.9h-2.808c-1.62 0-2.556.696-2.556 2.004 0 .864.444 1.476 1.272 1.764l-.42.288c-.348.228-.576.468-.576.78 0 .372.228.624.648.744v.144c-.672.204-1.224.54-1.224 1.032 0 .744.636 1.212 2.7 1.212 2.34 0 3.072-.54 3.072-1.752Zm3.674-5.46c.924 0 1.32.54 1.344 1.608h-2.808c.096-1.104.576-1.608 1.464-1.608Zm.048 5.028c1.548 0 2.172-.648 2.424-1.608l-1.08-.288c-.156.504-.432.912-1.332.912-.984 0-1.464-.552-1.536-1.644h3.984c.024-.276.036-.564.036-.756 0-1.572-.792-2.544-2.508-2.544-1.752 0-2.796 1.128-2.796 3.036 0 1.92 1.08 2.892 2.808 2.892Zm9.56-.024c2.076 0 2.904-.78 2.904-2.004 0-1.008-.504-1.464-2.1-1.572v-.276c1.152-.18 1.788-.696 1.788-1.668 0-1.32-.78-1.92-2.592-1.92-1.788 0-2.568.828-2.808 2.172l1.236.132c.168-.84.552-1.308 1.584-1.308.924 0 1.32.336 1.32 1.176 0 .792-.504 1.104-1.236 1.104h-1.236v.888h1.26c1.152 0 1.464.372 1.464 1.128 0 .732-.492 1.176-1.584 1.176-1.176 0-1.656-.492-1.86-1.344l-1.284.216c.276 1.476 1.32 2.1 3.144 2.1Zm3.726-6.12h1.968c.996 0 2.292-.084 3.156-.216-1.872 1.632-3.156 3.804-3.3 6.216h1.5c.132-2.268.936-4.296 2.592-5.988V184.8h-5.916v1.2Zm82.367 6h1.464l-2.472-7.2h-2.136l-2.472 7.2h1.416l.576-1.884h3.048l.576 1.884Zm-3.048-3.744c.24-.792.48-1.656.684-2.424h.552c.18.756.408 1.644.66 2.424l.288.936h-2.472l.288-.936Zm7.685-.948c.936 0 1.38.42 1.38 1.032 0 .624-.384 1.032-1.368 1.032-.984 0-1.332-.408-1.332-1.032 0-.6.372-1.032 1.32-1.032Zm.096 6.108c-1.476 0-1.872-.216-1.872-.708 0-.348.36-.696.996-.696h1.812c.636 0 .924.252.924.636 0 .492-.372.768-1.86.768Zm2.892-.84c0-.888-.648-1.38-1.836-1.38h-1.752c-.432 0-.612-.096-.612-.336 0-.132.06-.276.156-.432l.132-.216c.276.06.576.096.924.096 1.62 0 2.484-.708 2.484-1.728 0-.732-.708-1.056-1.512-1.212l.012-.216c.564.072 1.032.108 1.344.108h.552v-.9h-2.808c-1.62 0-2.556.696-2.556 2.004 0 .864.444 1.476 1.272 1.764l-.42.288c-.348.228-.576.468-.576.78 0 .372.228.624.648.744v.144c-.672.204-1.224.54-1.224 1.032 0 .744.636 1.212 2.7 1.212 2.34 0 3.072-.54 3.072-1.752Zm3.674-5.46c.924 0 1.32.54 1.344 1.608h-2.808c.096-1.104.576-1.608 1.464-1.608Zm.048 5.028c1.548 0 2.172-.648 2.424-1.608l-1.08-.288c-.156.504-.432.912-1.332.912-.984 0-1.464-.552-1.536-1.644h3.984c.024-.276.036-.564.036-.756 0-1.572-.792-2.544-2.508-2.544-1.752 0-2.796 1.128-2.796 3.036 0 1.92 1.08 2.892 2.808 2.892Zm9.56-.024c2.076 0 2.904-.78 2.904-2.004 0-1.008-.504-1.464-2.1-1.572v-.276c1.152-.18 1.788-.696 1.788-1.668 0-1.32-.78-1.92-2.592-1.92-1.788 0-2.568.828-2.808 2.172l1.236.132c.168-.84.552-1.308 1.584-1.308.924 0 1.32.336 1.32 1.176 0 .792-.504 1.104-1.236 1.104h-1.236v.888h1.26c1.152 0 1.464.372 1.464 1.128 0 .732-.492 1.176-1.584 1.176-1.176 0-1.656-.492-1.86-1.344l-1.284.216c.276 1.476 1.32 2.1 3.144 2.1Zm7.098 0c2.136 0 2.976-.792 2.976-2.04 0-.84-.492-1.44-2.1-1.584v-.276c1.152-.18 1.788-.672 1.788-1.62 0-1.224-.792-1.92-2.664-1.92s-2.664.696-2.664 1.92c-.012.948.636 1.44 1.788 1.62v.276c-1.608.144-2.1.744-2.1 1.584 0 1.248.84 2.04 2.976 2.04Zm0-3.276c1.32 0 1.656.54 1.656 1.164 0 .72-.528 1.14-1.656 1.14s-1.656-.42-1.656-1.14c0-.624.336-1.164 1.656-1.164Zm0-3.168c.996 0 1.404.408 1.404 1.14 0 .804-.552 1.14-1.404 1.152-.852-.012-1.404-.348-1.404-1.152.012-.732.408-1.14 1.404-1.14ZM912.724 192h1.464l-2.472-7.2h-2.136l-2.472 7.2h1.416l.576-1.884h3.048l.576 1.884Zm-3.048-3.744c.24-.792.48-1.656.684-2.424h.552c.18.756.408 1.644.66 2.424l.288.936h-2.472l.288-.936Zm7.685-.948c.936 0 1.38.42 1.38 1.032 0 .624-.384 1.032-1.368 1.032-.984 0-1.332-.408-1.332-1.032 0-.6.372-1.032 1.32-1.032Zm.096 6.108c-1.476 0-1.872-.216-1.872-.708 0-.348.36-.696.996-.696h1.812c.636 0 .924.252.924.636 0 .492-.372.768-1.86.768Zm2.892-.84c0-.888-.648-1.38-1.836-1.38h-1.752c-.432 0-.612-.096-.612-.336 0-.132.06-.276.156-.432l.132-.216c.276.06.576.096.924.096 1.62 0 2.484-.708 2.484-1.728 0-.732-.708-1.056-1.512-1.212l.012-.216c.564.072 1.032.108 1.344.108h.552v-.9h-2.808c-1.62 0-2.556.696-2.556 2.004 0 .864.444 1.476 1.272 1.764l-.42.288c-.348.228-.576.468-.576.78 0 .372.228.624.648.744v.144c-.672.204-1.224.54-1.224 1.032 0 .744.636 1.212 2.7 1.212 2.34 0 3.072-.54 3.072-1.752Zm3.674-5.46c.924 0 1.32.54 1.344 1.608h-2.808c.096-1.104.576-1.608 1.464-1.608Zm.048 5.028c1.548 0 2.172-.648 2.424-1.608l-1.08-.288c-.156.504-.432.912-1.332.912-.984 0-1.464-.552-1.536-1.644h3.984c.024-.276.036-.564.036-.756 0-1.572-.792-2.544-2.508-2.544-1.752 0-2.796 1.128-2.796 3.036 0 1.92 1.08 2.892 2.808 2.892Zm9.56-.024c2.076 0 2.904-.78 2.904-2.004 0-1.008-.504-1.464-2.1-1.572v-.276c1.152-.18 1.788-.696 1.788-1.668 0-1.32-.78-1.92-2.592-1.92-1.788 0-2.568.828-2.808 2.172l1.236.132c.168-.84.552-1.308 1.584-1.308.924 0 1.32.336 1.32 1.176 0 .792-.504 1.104-1.236 1.104h-1.236v.888h1.26c1.152 0 1.464.372 1.464 1.128 0 .732-.492 1.176-1.584 1.176-1.176 0-1.656-.492-1.86-1.344l-1.284.216c.276 1.476 1.32 2.1 3.144 2.1Zm6.978-3.672c-.972 0-1.488-.468-1.488-1.296 0-.792.444-1.464 1.56-1.464s1.656.624 1.656 1.392c0 .732-.54 1.368-1.728 1.368Zm-.012 3.672c2.28 0 3.156-1.692 3.156-3.864 0-2.76-1.236-3.576-3.06-3.576-1.896 0-2.892.924-2.892 2.46 0 1.524 1.032 2.1 2.328 2.1 1.08 0 1.776-.468 2.148-1.224l.24.048c0 2.064-.516 3.024-1.872 3.024-.936 0-1.44-.384-1.56-1.044l-1.284.228c.204 1.092.9 1.848 2.796 1.848Z" fill="#8D8D8D"></path><circle cx="437.678" cy="101.202" r="4" transform="rotate(.686 437.678 101.202)" fill="#85D78E"></circle><path d="m436.424 100.566-20.811 6.786a9.996 9.996 0 0 1-7.658-.606l-8.541-4.373a10 10 0 0 0-5.937-1.004l-27.305 3.801-18.968 3.891a9.997 9.997 0 0 1-5.475-.416l-12.549-4.637a10.001 10.001 0 0 0-9.102 1.12l-11.192 7.636a9.972 9.972 0 0 1-2.292 1.164l-14.879 5.28a9.997 9.997 0 0 1-8.103-.629l-5.263-2.847a9.999 9.999 0 0 0-7.371-.857l-17.375 4.703c-.496.135-.982.307-1.451.516l-19.787 8.802a10.002 10.002 0 0 1-8.113.007l-13.574-6.009a10 10 0 0 0-12.019 3.105l-9.328 12.313a10 10 0 0 1-12.755 2.742l-8.607-4.689a10.103 10.103 0 0 0-1.509-.667l-12.194-4.228a10 10 0 0 0-9.179 1.378l-13.259 9.698a10.004 10.004 0 0 1-6.024 1.928l-20.461-.245a10 10 0 0 1-5.79-1.932l-9.04-6.622c-4.872-3.568-11.77-2.038-14.676 3.257l-6.122 11.157a10 10 0 0 1-13.467 4.016l-17.955-9.56a9.992 9.992 0 0 0-4.58-1.173l-22.565-.27" stroke="#85D78E" stroke-width="3px" fill="none"></path><path d="m270.977 114.875-17.374 4.703c-.497.135-.982.307-1.452.516l-19.787 8.802a10 10 0 0 1-8.112.007l-13.574-6.009a10 10 0 0 0-12.019 3.105l-9.329 12.313a10 10 0 0 1-12.755 2.742l-8.606-4.689a10.002 10.002 0 0 0-1.509-.667l-12.194-4.228a10.004 10.004 0 0 0-9.18 1.377l-13.259 9.699a9.999 9.999 0 0 1-6.023 1.928l-20.461-.245a10.003 10.003 0 0 1-5.79-1.932l-9.04-6.622c-4.872-3.569-11.771-2.038-14.676 3.257l-6.122 11.157a10 10 0 0 1-13.468 4.016l-17.954-9.56a9.992 9.992 0 0 0-4.58-1.173l-12.446-.149c-5.569-.067-10.12 4.43-10.12 9.999V163c0 5.523 4.478 10 10 10h969.354c5.523 0 9.999-4.477 9.999-10V28.374c0-6.825-6.686-11.645-13.161-9.487L919.499 41.5l-50.981 9.62c-1.332.25-2.701.228-4.024-.066l-40.423-8.983a10 10 0 0 0-5.089.198l-44.194 13.49c-.525.16-1.063.277-1.607.35L706.001 65h-42.605a10 10 0 0 0-2.74.383l-94.503 26.933a9.998 9.998 0 0 1-7.863-1.029l-21.256-12.679a10 10 0 0 0-7.529-1.118l-93.081 23.076-20.812 6.786a9.997 9.997 0 0 1-7.658-.606l-8.541-4.373a9.995 9.995 0 0 0-5.936-1.004l-27.305 3.801-18.968 3.891a9.997 9.997 0 0 1-5.475-.416l-12.549-4.637a10.001 10.001 0 0 0-9.102 1.12l-11.192 7.636c-.711.485-1.481.876-2.292 1.164l-14.88 5.28a9.998 9.998 0 0 1-8.102-.629l-5.263-2.847a9.996 9.996 0 0 0-7.372-.857Z" fill="url(&quot;#svg-1817349402_21584_b&quot;)"></path><path d="m438.401 100.849 92.061-23.293a10.001 10.001 0 0 1 7.759 1.218l18.612 11.65a10 10 0 0 0 7.943 1.17l95.579-26.131a9.999 9.999 0 0 1 2.757-.354l40.215.482c.527.006 1.055-.03 1.577-.106l63.335-9.33 50.824-13.73a9.999 9.999 0 0 1 4.729-.119l39.594 8.594c1.265.274 2.572.3 3.847.077l46.173-8.086 51.2-16.389 34.141-11.592" stroke="#85D78E" stroke-width="2px" stroke-dasharray="4 4" fill="none"></path><path d="M49.724 192h1.464l-2.472-7.2H46.58l-2.472 7.2h1.416l.576-1.884h3.048l.576 1.884Zm-3.048-3.744c.24-.792.48-1.656.684-2.424h.552c.18.756.408 1.644.66 2.424l.288.936h-2.472l.288-.936Zm7.685-.948c.936 0 1.38.42 1.38 1.032 0 .624-.384 1.032-1.368 1.032-.984 0-1.332-.408-1.332-1.032 0-.6.372-1.032 1.32-1.032Zm.096 6.108c-1.476 0-1.872-.216-1.872-.708 0-.348.36-.696.996-.696h1.812c.636 0 .924.252.924.636 0 .492-.372.768-1.86.768Zm2.892-.84c0-.888-.648-1.38-1.836-1.38H53.76c-.432 0-.612-.096-.612-.336 0-.132.06-.276.156-.432l.132-.216c.276.06.576.096.924.096 1.62 0 2.484-.708 2.484-1.728 0-.732-.708-1.056-1.512-1.212l.012-.216c.564.072 1.032.108 1.344.108h.552v-.9h-2.808c-1.62 0-2.556.696-2.556 2.004 0 .864.444 1.476 1.272 1.764l-.42.288c-.348.228-.576.468-.576.78 0 .372.228.624.648.744v.144c-.672.204-1.224.54-1.224 1.032 0 .744.636 1.212 2.7 1.212 2.34 0 3.072-.54 3.072-1.752Zm3.674-5.46c.924 0 1.32.54 1.344 1.608h-2.808c.096-1.104.576-1.608 1.464-1.608Zm.048 5.028c1.548 0 2.172-.648 2.424-1.608l-1.08-.288c-.156.504-.432.912-1.332.912-.984 0-1.464-.552-1.536-1.644h3.984c.024-.276.036-.564.036-.756 0-1.572-.792-2.544-2.508-2.544-1.752 0-2.796 1.128-2.796 3.036 0 1.92 1.08 2.892 2.808 2.892Zm9.56-.024c2.076 0 2.904-.78 2.904-2.004 0-1.008-.504-1.464-2.1-1.572v-.276c1.152-.18 1.788-.696 1.788-1.668 0-1.32-.78-1.92-2.592-1.92-1.788 0-2.568.828-2.808 2.172l1.236.132c.168-.84.552-1.308 1.584-1.308.924 0 1.32.336 1.32 1.176 0 .792-.504 1.104-1.236 1.104H69.49v.888h1.26c1.152 0 1.464.372 1.464 1.128 0 .732-.492 1.176-1.584 1.176-1.176 0-1.656-.492-1.86-1.344l-1.284.216c.276 1.476 1.32 2.1 3.144 2.1Zm9.162-.12v-1.092H78.16V184.8h-.744l-2.784.912.432 1.092a9.303 9.303 0 0 0 1.8-.876v4.98h-2.04V192h4.968Zm76.931 0h1.464l-2.472-7.2h-2.136l-2.472 7.2h1.416l.576-1.884h3.048l.576 1.884Zm-3.048-3.744c.24-.792.48-1.656.684-2.424h.552c.18.756.408 1.644.66 2.424l.288.936h-2.472l.288-.936Zm7.685-.948c.936 0 1.38.42 1.38 1.032 0 .624-.384 1.032-1.368 1.032-.984 0-1.332-.408-1.332-1.032 0-.6.372-1.032 1.32-1.032Zm.096 6.108c-1.476 0-1.872-.216-1.872-.708 0-.348.36-.696.996-.696h1.812c.636 0 .924.252.924.636 0 .492-.372.768-1.86.768Zm2.892-.84c0-.888-.648-1.38-1.836-1.38h-1.752c-.432 0-.612-.096-.612-.336 0-.132.06-.276.156-.432l.132-.216c.276.06.576.096.924.096 1.62 0 2.484-.708 2.484-1.728 0-.732-.708-1.056-1.512-1.212l.012-.216c.564.072 1.032.108 1.344.108h.552v-.9h-2.808c-1.62 0-2.556.696-2.556 2.004 0 .864.444 1.476 1.272 1.764l-.42.288c-.348.228-.576.468-.576.78 0 .372.228.624.648.744v.144c-.672.204-1.224.54-1.224 1.032 0 .744.636 1.212 2.7 1.212 2.34 0 3.072-.54 3.072-1.752Zm3.674-5.46c.924 0 1.32.54 1.344 1.608h-2.808c.096-1.104.576-1.608 1.464-1.608Zm.048 5.028c1.548 0 2.172-.648 2.424-1.608l-1.08-.288c-.156.504-.432.912-1.332.912-.984 0-1.464-.552-1.536-1.644h3.984c.024-.276.036-.564.036-.756 0-1.572-.792-2.544-2.508-2.544-1.752 0-2.796 1.128-2.796 3.036 0 1.92 1.08 2.892 2.808 2.892Zm9.56-.024c2.076 0 2.904-.78 2.904-2.004 0-1.008-.504-1.464-2.1-1.572v-.276c1.152-.18 1.788-.696 1.788-1.668 0-1.32-.78-1.92-2.592-1.92-1.788 0-2.568.828-2.808 2.172l1.236.132c.168-.84.552-1.308 1.584-1.308.924 0 1.32.336 1.32 1.176 0 .792-.504 1.104-1.236 1.104h-1.236v.888h1.26c1.152 0 1.464.372 1.464 1.128 0 .732-.492 1.176-1.584 1.176-1.176 0-1.656-.492-1.86-1.344l-1.284.216c.276 1.476 1.32 2.1 3.144 2.1Zm7.35-6.432c.996 0 1.404.456 1.404 1.152 0 .804-.444 1.176-2.328 1.752-1.632.492-2.34 1.092-2.34 2.664 0 .264.012.504.024.744h5.976v-1.104h-2.028c-.852 0-2.148.108-2.976.228.048-.972.516-1.32 2.148-1.764 1.572-.408 2.82-1.032 2.82-2.448 0-1.548-.948-2.256-2.712-2.256-1.932 0-2.712.936-2.976 2.376l1.26.216c.18-.984.648-1.56 1.728-1.56ZM263.724 192h1.464l-2.472-7.2h-2.136l-2.472 7.2h1.416l.576-1.884h3.048l.576 1.884Zm-3.048-3.744c.24-.792.48-1.656.684-2.424h.552c.18.756.408 1.644.66 2.424l.288.936h-2.472l.288-.936Zm7.685-.948c.936 0 1.38.42 1.38 1.032 0 .624-.384 1.032-1.368 1.032-.984 0-1.332-.408-1.332-1.032 0-.6.372-1.032 1.32-1.032Zm.096 6.108c-1.476 0-1.872-.216-1.872-.708 0-.348.36-.696.996-.696h1.812c.636 0 .924.252.924.636 0 .492-.372.768-1.86.768Zm2.892-.84c0-.888-.648-1.38-1.836-1.38h-1.752c-.432 0-.612-.096-.612-.336 0-.132.06-.276.156-.432l.132-.216c.276.06.576.096.924.096 1.62 0 2.484-.708 2.484-1.728 0-.732-.708-1.056-1.512-1.212l.012-.216c.564.072 1.032.108 1.344.108h.552v-.9h-2.808c-1.62 0-2.556.696-2.556 2.004 0 .864.444 1.476 1.272 1.764l-.42.288c-.348.228-.576.468-.576.78 0 .372.228.624.648.744v.144c-.672.204-1.224.54-1.224 1.032 0 .744.636 1.212 2.7 1.212 2.34 0 3.072-.54 3.072-1.752Zm3.674-5.46c.924 0 1.32.54 1.344 1.608h-2.808c.096-1.104.576-1.608 1.464-1.608Zm.048 5.028c1.548 0 2.172-.648 2.424-1.608l-1.08-.288c-.156.504-.432.912-1.332.912-.984 0-1.464-.552-1.536-1.644h3.984c.024-.276.036-.564.036-.756 0-1.572-.792-2.544-2.508-2.544-1.752 0-2.796 1.128-2.796 3.036 0 1.92 1.08 2.892 2.808 2.892Zm9.56-.024c2.076 0 2.904-.78 2.904-2.004 0-1.008-.504-1.464-2.1-1.572v-.276c1.152-.18 1.788-.696 1.788-1.668 0-1.32-.78-1.92-2.592-1.92-1.788 0-2.568.828-2.808 2.172l1.236.132c.168-.84.552-1.308 1.584-1.308.924 0 1.32.336 1.32 1.176 0 .792-.504 1.104-1.236 1.104h-1.236v.888h1.26c1.152 0 1.464.372 1.464 1.128 0 .732-.492 1.176-1.584 1.176-1.176 0-1.656-.492-1.86-1.344l-1.284.216c.276 1.476 1.32 2.1 3.144 2.1Zm7.242 0c2.076 0 2.904-.78 2.904-2.004 0-1.008-.504-1.464-2.1-1.572v-.276c1.152-.18 1.788-.696 1.788-1.668 0-1.32-.78-1.92-2.592-1.92-1.788 0-2.568.828-2.808 2.172l1.236.132c.168-.84.552-1.308 1.584-1.308.924 0 1.32.336 1.32 1.176 0 .792-.504 1.104-1.236 1.104h-1.236v.888h1.26c1.152 0 1.464.372 1.464 1.128 0 .732-.492 1.176-1.584 1.176-1.176 0-1.656-.492-1.86-1.344l-1.284.216c.276 1.476 1.32 2.1 3.144 2.1Zm78.851-.12h1.464l-2.472-7.2h-2.136l-2.472 7.2h1.416l.576-1.884h3.048l.576 1.884Zm-3.048-3.744c.24-.792.48-1.656.684-2.424h.552c.18.756.408 1.644.66 2.424l.288.936h-2.472l.288-.936Zm7.685-.948c.936 0 1.38.42 1.38 1.032 0 .624-.384 1.032-1.368 1.032-.984 0-1.332-.408-1.332-1.032 0-.6.372-1.032 1.32-1.032Zm.096 6.108c-1.476 0-1.872-.216-1.872-.708 0-.348.36-.696.996-.696h1.812c.636 0 .924.252.924.636 0 .492-.372.768-1.86.768Zm2.892-.84c0-.888-.648-1.38-1.836-1.38h-1.752c-.432 0-.612-.096-.612-.336 0-.132.06-.276.156-.432l.132-.216c.276.06.576.096.924.096 1.62 0 2.484-.708 2.484-1.728 0-.732-.708-1.056-1.512-1.212l.012-.216c.564.072 1.032.108 1.344.108h.552v-.9h-2.808c-1.62 0-2.556.696-2.556 2.004 0 .864.444 1.476 1.272 1.764l-.42.288c-.348.228-.576.468-.576.78 0 .372.228.624.648.744v.144c-.672.204-1.224.54-1.224 1.032 0 .744.636 1.212 2.7 1.212 2.34 0 3.072-.54 3.072-1.752Zm3.674-5.46c.924 0 1.32.54 1.344 1.608h-2.808c.096-1.104.576-1.608 1.464-1.608Zm.048 5.028c1.548 0 2.172-.648 2.424-1.608l-1.08-.288c-.156.504-.432.912-1.332.912-.984 0-1.464-.552-1.536-1.644h3.984c.024-.276.036-.564.036-.756 0-1.572-.792-2.544-2.508-2.544-1.752 0-2.796 1.128-2.796 3.036 0 1.92 1.08 2.892 2.808 2.892Zm9.56-.024c2.076 0 2.904-.78 2.904-2.004 0-1.008-.504-1.464-2.1-1.572v-.276c1.152-.18 1.788-.696 1.788-1.668 0-1.32-.78-1.92-2.592-1.92-1.788 0-2.568.828-2.808 2.172l1.236.132c.168-.84.552-1.308 1.584-1.308.924 0 1.32.336 1.32 1.176 0 .792-.504 1.104-1.236 1.104h-1.236v.888h1.26c1.152 0 1.464.372 1.464 1.128 0 .732-.492 1.176-1.584 1.176-1.176 0-1.656-.492-1.86-1.344l-1.284.216c.276 1.476 1.32 2.1 3.144 2.1Zm10.386-1.836v-.984h-1.008v-4.5h-1.656l-3.792 4.704v.78h4.152V192h1.296v-1.716h1.008Zm-2.472-.984c-.792 0-1.884.084-2.808.252l-.132-.204 2.952-3.684.156.048v3.588h-.168Z" fill="#8D8D8D"></path></g><defs><linearGradient id="svg-1817349402_21584_b" x1="557" y1="53" x2="557" y2="163" gradientUnits="userSpaceOnUse"><stop stop-color="#85D78E" stop-opacity=".17"></stop><stop offset="1" stop-color="#85D78E" stop-opacity="0"></stop></linearGradient><clipPath id="svg-1817349402_21584_a"><path fill="#fff" d="M0 0h1000v220H0z"></path></clipPath><linearGradient id="svg-1817349402_21584_b" x1="557" y1="53" x2="557" y2="163" gradientUnits="userSpaceOnUse"><stop stop-color="#85D78E" stop-opacity=".17"></stop><stop offset="1" stop-color="#85D78E" stop-opacity="0"></stop></linearGradient></defs></svg>