<svg xmlns="http://www.w3.org/2000/svg" xmlns:xlink="http://www.w3.org/1999/xlink" style="width: 100%; height: 100%" viewBox="0 0 54 32" preserveAspectRatio="none" width="54" height="32"><defs><svg width="54" height="32" fill="none" xmlns="http://www.w3.org/2000/svg" id="svg-476949286_600"><path d="M34.042 4.9a.24.24 0 0 1 .405.003L49.35 28.387a.24.24 0 0 1-.203.368h-21.09a.24.24 0 0 1-.2-.108l-3.493-5.298-1.93 2.974 3.08 4.673A2.235 2.235 0 0 0 27.38 32h24.79c1.44 0 2.314-1.587 1.543-2.802L35.676.778a1.677 1.677 0 0 0-2.822-.015L14.766 28.646a.24.24 0 0 1-.201.11H4.836a.24.24 0 0 1-.204-.368l9.155-14.569a.24.24 0 0 1 .404-.004l3.984 6.045 1.93-2.975-4.752-7.208a1.677 1.677 0 0 0-2.818.03L.283 29.204C-.481 30.42.393 32 1.83 32h13.415c.758 0 1.463-.383 1.875-1.018l4.16-6.41L34.041 4.9Z" fill="#000"></path></svg></defs><use href="#svg-476949286_600"></use></svg>