<svg xmlns="http://www.w3.org/2000/svg" xmlns:xlink="http://www.w3.org/1999/xlink" style="width: 100%; height: 100%" viewBox="0 0 42 42" preserveAspectRatio="none" width="42" height="42"><defs><svg width="42" height="42" fill="none" xmlns="http://www.w3.org/2000/svg" id="svg-306721153_1845"><path fill-rule="evenodd" clip-rule="evenodd" d="M42 21c0 11.598-9.402 21-21 21S0 32.598 0 21 9.402 0 21 0s21 9.402 21 21Zm-12 0c0 .488-.437.844-.922.797l-.852-.083c-.047.48-.14.947-.277 1.395l.82.248c.467.142.734.64.547 1.092-.188.45-.726.607-1.156.377l-.755-.404a7.27 7.27 0 0 1-.792 1.183l.662.544c.377.31.434.87.089 1.215-.345.345-.905.288-1.215-.09l-.544-.662a7.275 7.275 0 0 1-1.184.792l.405.756c.23.43.073.968-.377 1.156-.451.187-.95-.08-1.092-.547l-.249-.821a7.214 7.214 0 0 1-1.394.275l.083.855c.047.485-.309.922-.797.922-.488 0-.844-.437-.797-.922l.083-.855a7.224 7.224 0 0 1-1.394-.277l-.25.823c-.14.467-.64.734-1.09.547-.451-.188-.608-.726-.378-1.156l.406-.758a7.266 7.266 0 0 1-1.183-.792l-.546.665c-.31.377-.87.434-1.215.089-.345-.345-.288-.905.09-1.215l.664-.547a7.27 7.27 0 0 1-.791-1.182l-.759.406c-.43.23-.969.073-1.156-.377-.187-.451.08-.95.547-1.092l.824-.25a7.23 7.23 0 0 1-.276-1.393l-.857.083c-.485.047-.922-.309-.922-.797 0-.488.437-.844.922-.797l.857.084c.047-.48.14-.947.276-1.395l-.824-.25c-.467-.14-.734-.64-.547-1.09.188-.451.726-.608 1.156-.378l.759.406c.225-.42.49-.817.79-1.183l-.664-.546c-.377-.31-.434-.87-.089-1.215.345-.345.905-.288 1.215.09l.546.663c.366-.3.762-.566 1.183-.791l-.406-.758c-.23-.43-.073-.969.377-1.156.451-.187.95.08 1.092.547l.249.822c.448-.136.914-.23 1.394-.277l-.083-.854c-.047-.485.309-.922.797-.922.488 0 .844.437.797.922l-.083.854c.48.047.946.14 1.395.276l.248-.821c.142-.467.64-.734 1.092-.547.45.188.607.726.377 1.156l-.405.756c.421.225.818.49 1.184.791l.544-.662c.31-.377.87-.434 1.215-.089.345.345.288.905-.09 1.215l-.661.544c.3.366.567.762.792 1.183l.755-.404c.43-.23.968-.073 1.156.377.187.451-.08.95-.547 1.092l-.82.248c.136.448.23.915.277 1.395l.852-.083c.485-.047.922.309.922.797Z" fill="#FFFFFF"></path></svg></defs><use href="#svg-306721153_1845"></use></svg>