<svg xmlns:xlink="http://www.w3.org/1999/xlink" width="42" height="42" fill="none" xmlns="http://www.w3.org/2000/svg" id="svg-179767983_1084"><path fill-rule="evenodd" clip-rule="evenodd" d="M21 42c11.598 0 21-9.402 21-21S32.598 0 21 0 0 9.402 0 21s9.402 21 21 21ZM8.65 21c0-6.812 5.54-12.35 12.35-12.35 6.812 0 12.35 5.538 12.35 12.35 0 6.812-5.538 12.35-12.35 12.35-6.811 0-12.35-5.538-12.35-12.35Zm4.499 0A7.845 7.845 0 0 0 21 28.852 7.845 7.845 0 0 0 28.852 21 7.845 7.845 0 0 0 21 13.148 7.845 7.845 0 0 0 13.15 21Zm5.278.13-3.536-1.144A6.69 6.69 0 0 0 14.812 21a6.14 6.14 0 0 0 1.847 4.42l2.184-3.017a2.639 2.639 0 0 1-.416-1.273Zm1.663-6.266v3.718a2.799 2.799 0 0 0-1.09.778l-3.537-1.143a6.234 6.234 0 0 1 4.628-3.353Zm.91 8.71a2.84 2.84 0 0 1-.676-.079l-2.184 3.017c.859.442 1.82.702 2.86.702 1.04 0 2.002-.26 2.86-.702l-2.183-3.017a2.8 2.8 0 0 1-.677.078Zm.91-4.992v-3.719a6.19 6.19 0 0 1 4.629 3.355l-3.537 1.144a2.72 2.72 0 0 0-1.092-.78Zm1.248 3.822 2.184 3.016A6.188 6.188 0 0 0 27.188 21a6.67 6.67 0 0 0-.078-1.014l-3.536 1.144c-.026.468-.182.91-.416 1.274ZM22.378 21c0 1.837-2.756 1.837-2.756 0s2.757-1.837 2.757 0Z" fill="#FFFFFF"></path></svg>