<svg xmlns="http://www.w3.org/2000/svg" xmlns:xlink="http://www.w3.org/1999/xlink" style="width: 100%; height: 100%" viewBox="0 0 64 22" preserveAspectRatio="none" width="64" height="22"><defs><svg width="64" height="22" fill="none" xmlns="http://www.w3.org/2000/svg" id="svg784224367_1690"><path d="M27.44 8.672v-.945h5.629v.945h-2.27V15h-1.093V8.672H27.44ZM35.113 15V7.727h2.592c.564 0 1.031.097 1.403.291.374.195.653.463.838.807.184.34.277.735.277 1.182a2.4 2.4 0 0 1-.28 1.175 1.887 1.887 0 0 1-.839.785c-.371.187-.84.28-1.402.28h-1.964v-.944h1.864c.355 0 .644-.05.867-.152.224-.102.389-.25.493-.444a1.46 1.46 0 0 0 .156-.7c0-.275-.053-.512-.16-.714a1.032 1.032 0 0 0-.493-.461c-.223-.11-.515-.164-.877-.164H36.21V15h-1.097Zm3.59-3.281L40.5 15h-1.25l-1.762-3.281h1.215ZM42.973 15h-1.165l2.617-7.273h1.268L48.31 15h-1.165l-2.056-5.952h-.057L42.972 15Zm.195-2.848h3.778v.923h-3.778v-.923Zm12.69-2.06h-1.107a1.692 1.692 0 0 0-.664-1.083 1.836 1.836 0 0 0-.565-.284 2.205 2.205 0 0 0-.657-.096c-.419 0-.794.106-1.126.316-.329.211-.59.52-.78.927-.19.407-.285.905-.285 1.492 0 .591.095 1.091.284 1.498.192.407.453.715.785.924.331.208.704.312 1.118.312.23 0 .448-.03.654-.092.208-.064.396-.158.565-.28a1.718 1.718 0 0 0 .67-1.07l1.109.004c-.06.357-.174.686-.345.987a2.724 2.724 0 0 1-.65.774 2.94 2.94 0 0 1-.902.5 3.337 3.337 0 0 1-1.108.178c-.63 0-1.19-.149-1.683-.447-.492-.3-.88-.73-1.165-1.29-.281-.558-.422-1.224-.422-1.998 0-.777.142-1.443.426-2 .284-.558.672-.987 1.165-1.285a3.158 3.158 0 0 1 1.68-.451c.385 0 .745.055 1.079.167.336.109.638.27.906.483.267.21.488.468.663.774.176.303.294.65.356 1.04ZM57.973 15V7.727h1.097V11.2h.089l3.05-3.473h1.382l-2.934 3.274L63.6 15h-1.32l-2.352-3.25-.859.988V15h-1.097Z" fill="#FFFFFF"></path><path d="m2.5 17.5 5-5M5.833 8.333a5.833 5.833 0 1 0 11.667 0 5.833 5.833 0 0 0-11.667 0Z" stroke="#FFFFFF" stroke-width="1.5px" stroke-linecap="round" stroke-linejoin="round" fill="none"></path></svg></defs><use href="#svg784224367_1690"></use></svg>