<svg xmlns:xlink="http://www.w3.org/1999/xlink" xmlns="http://www.w3.org/2000/svg" width="1947" height="300" fill="none"><g clip-path="url(#a)"><path fill="url(#b)" fill-rule="evenodd" d="M38 35.023A5.023 5.023 0 0 1 43.023 30h158.233a5.023 5.023 0 0 1 5.023 5.023v227.303a5.023 5.023 0 0 1-5.023 5.023H43.023A5.023 5.023 0 0 1 38 262.326V35.023zm190.883 0A5.023 5.023 0 0 1 233.906 30h158.233a5.023 5.023 0 0 1 5.023 5.023v227.303a5.023 5.023 0 0 1-5.023 5.023H233.906a5.023 5.023 0 0 1-5.023-5.023V35.023zM424.791 30a5.023 5.023 0 0 0-5.023 5.023v227.303a5.023 5.023 0 0 0 5.023 5.023h158.232a5.023 5.023 0 0 0 5.024-5.023V35.023A5.023 5.023 0 0 0 583.023 30H424.791zm185.859 5.023A5.023 5.023 0 0 1 615.674 30h158.232a5.023 5.023 0 0 1 5.023 5.023v227.303a5.023 5.023 0 0 1-5.023 5.023H615.674a5.023 5.023 0 0 1-5.024-5.023V35.023zM806.558 30a5.023 5.023 0 0 0-5.023 5.023v227.303a5.023 5.023 0 0 0 5.023 5.023h158.233a5.023 5.023 0 0 0 5.023-5.023V35.023A5.023 5.023 0 0 0 964.791 30H806.558zm185.862 5.023A5.023 5.023 0 0 1 997.443 30h158.237c2.77 0 5.02 2.249 5.02 5.023v227.303a5.023 5.023 0 0 1-5.02 5.023H997.443a5.023 5.023 0 0 1-5.023-5.023V35.023zM1188.33 30a5.025 5.025 0 0 0-5.03 5.023v227.303a5.025 5.025 0 0 0 5.03 5.023h158.23c2.77 0 5.02-2.249 5.02-5.023V35.023a5.023 5.023 0 0 0-5.02-5.023h-158.23zm185.86 5.023a5.023 5.023 0 0 1 5.02-5.023h158.23c2.78 0 5.03 2.249 5.03 5.023v227.303a5.025 5.025 0 0 1-5.03 5.023h-158.23a5.023 5.023 0 0 1-5.02-5.023V35.023zM1570.09 30a5.023 5.023 0 0 0-5.02 5.023v227.303a5.023 5.023 0 0 0 5.02 5.023h158.24c2.77 0 5.02-2.249 5.02-5.023V35.023a5.023 5.023 0 0 0-5.02-5.023h-158.24zm185.86 5.023a5.025 5.025 0 0 1 5.03-5.023h158.23c2.77 0 5.02 2.249 5.02 5.023v227.303a5.023 5.023 0 0 1-5.02 5.023h-158.23a5.025 5.025 0 0 1-5.03-5.023V35.023zM1951.86 30a5.023 5.023 0 0 0-5.02 5.023v227.303a5.023 5.023 0 0 0 5.02 5.023h158.24c2.77 0 5.02-2.249 5.02-5.023V35.023A5.023 5.023 0 0 0 2110.1 30h-158.24z" clip-rule="evenodd"/><path fill="#fff" d="M1204.3 119.86v-9.133h1.65v3.867h4.23v-3.867h1.66v9.133h-1.66v-3.879h-4.23v3.879h-1.65zm11.24.139c-.43 0-.82-.078-1.17-.232-.35-.158-.62-.39-.82-.696-.2-.306-.3-.684-.3-1.133 0-.386.07-.706.21-.958.15-.253.34-.455.59-.607.24-.152.52-.266.83-.343.31-.081.64-.139.97-.174.4-.042.73-.079.98-.112.25-.035.43-.089.54-.16.12-.075.17-.189.17-.344v-.026c0-.336-.1-.596-.29-.781-.2-.184-.49-.276-.87-.276-.39 0-.7.086-.94.258-.22.173-.38.376-.46.611l-1.51-.214c.12-.416.32-.764.59-1.043.28-.283.61-.494 1-.634.4-.142.84-.214 1.32-.214.33 0 .65.039.98.116.33.078.63.205.9.384.27.175.49.415.65.718.17.303.25.682.25 1.137v4.584h-1.55v-.94h-.06c-.09.19-.23.368-.41.535-.18.163-.4.295-.67.397-.26.098-.57.147-.93.147zm.42-1.187c.33 0 .61-.063.84-.191.24-.131.42-.304.55-.518.13-.214.2-.447.2-.7v-.807a.78.78 0 0 1-.26.116c-.12.036-.25.067-.4.094-.15.026-.3.05-.44.071l-.38.054c-.24.032-.46.086-.65.16a1.07 1.07 0 0 0-.45.312c-.11.131-.16.301-.16.509 0 .297.1.521.32.673.22.152.5.227.83.227zm10.7-5.801-2.44 6.849h-1.79l-2.44-6.849h1.72l1.58 5.088h.07l1.58-5.088h1.72zm3.91 6.983c-.68 0-1.28-.142-1.78-.428a2.878 2.878 0 0 1-1.14-1.222c-.27-.529-.4-1.152-.4-1.868 0-.705.13-1.323.4-1.856.27-.535.64-.951 1.13-1.248.48-.3 1.05-.451 1.71-.451.42 0 .82.069 1.19.206.38.133.71.341 1 .624.29.282.52.642.69 1.079.16.434.25.951.25 1.552v.495H1228v-1.088h4.07c0-.309-.07-.584-.2-.825a1.416 1.416 0 0 0-.55-.575c-.23-.14-.5-.21-.81-.21-.33 0-.62.08-.87.241a1.728 1.728 0 0 0-.79 1.467v.95c0 .398.07.74.21 1.026.15.282.35.499.62.651.26.148.56.223.91.223.24 0 .45-.033.64-.098.19-.069.36-.168.5-.299.14-.131.24-.293.31-.486l1.51.169a2.37 2.37 0 0 1-.54 1.044c-.27.294-.61.523-1.02.686-.41.161-.89.241-1.42.241zm9.5.005c-.43 0-.83-.078-1.17-.232-.35-.158-.62-.39-.82-.696-.2-.306-.3-.684-.3-1.133 0-.386.07-.706.21-.958.14-.253.34-.455.59-.607.24-.152.52-.266.83-.343.31-.081.63-.139.97-.174.4-.042.72-.079.97-.112.25-.035.44-.089.55-.16a.39.39 0 0 0 .17-.344v-.026c0-.336-.1-.596-.3-.781-.2-.184-.48-.276-.86-.276-.39 0-.71.086-.94.258-.23.173-.38.376-.46.611l-1.51-.214c.12-.416.32-.764.59-1.043a2.56 2.56 0 0 1 1-.634c.4-.142.84-.214 1.31-.214.33 0 .66.039.99.116.33.078.63.205.9.384.27.175.48.415.65.718.16.303.25.682.25 1.137v4.584h-1.56v-.94h-.05c-.1.19-.24.368-.41.535-.18.163-.4.295-.67.397-.26.098-.57.147-.93.147zm.42-1.187c.32 0 .6-.063.84-.191.24-.131.42-.304.55-.518.13-.214.2-.447.2-.7v-.807a.78.78 0 0 1-.26.116c-.12.036-.25.067-.4.094-.15.026-.3.05-.44.071l-.38.054c-.24.032-.46.086-.65.16a1.07 1.07 0 0 0-.45.312.768.768 0 0 0-.17.509c0 .297.11.521.33.673.22.152.49.227.83.227zm8.01 1.048v-9.133h1.61v3.416h.07c.08-.166.2-.343.35-.53.15-.191.36-.353.62-.486.25-.137.58-.206.99-.206.52 0 1 .136 1.43.406.42.268.76.665 1.01 1.191.26.523.38 1.165.38 1.926 0 .753-.12 1.392-.37 1.918-.24.526-.58.928-1.01 1.204-.42.277-.9.415-1.44.415-.39 0-.72-.066-.98-.196a1.987 1.987 0 0 1-.62-.473 2.492 2.492 0 0 1-.36-.531h-.1v1.079h-1.58zm1.58-3.424c0 .443.06.83.19 1.163.12.333.31.594.55.781.24.184.53.276.87.276.36 0 .65-.095.9-.285.24-.193.42-.456.54-.789.12-.336.19-.718.19-1.146 0-.426-.06-.803-.19-1.133-.12-.33-.3-.589-.54-.776-.24-.187-.54-.281-.9-.281-.35 0-.64.091-.88.272-.24.181-.42.435-.55.762-.12.328-.18.713-.18 1.156zm8.23 3.563c-.44 0-.83-.078-1.18-.232-.34-.158-.62-.39-.82-.696-.2-.306-.3-.684-.3-1.133 0-.386.08-.706.22-.958.14-.253.34-.455.58-.607.25-.152.53-.266.84-.343.31-.081.63-.139.96-.174.41-.042.73-.079.98-.112.25-.035.43-.089.54-.16a.377.377 0 0 0 .18-.344v-.026c0-.336-.1-.596-.3-.781-.2-.184-.49-.276-.86-.276-.4 0-.71.086-.94.258-.23.173-.39.376-.47.611l-1.5-.214c.12-.416.31-.764.59-1.043.27-.283.6-.494 1-.634.39-.142.83-.214 1.31-.214.33 0 .66.039.99.116.32.078.62.205.89.384.27.175.49.415.65.718.17.303.25.682.25 1.137v4.584h-1.55v-.94h-.05c-.1.19-.24.368-.42.535-.17.163-.39.295-.66.397-.27.098-.58.147-.93.147zm.42-1.187c.32 0 .6-.063.84-.191.24-.131.42-.304.55-.518.13-.214.19-.447.19-.7v-.807a.693.693 0 0 1-.26.116c-.11.036-.25.067-.4.094a28.455 28.455 0 0 1-.82.125c-.24.032-.45.086-.64.16a1.07 1.07 0 0 0-.45.312.768.768 0 0 0-.17.509c0 .297.11.521.33.673.21.152.49.227.83.227zm4.89 1.048v-9.133h1.61v3.416h.07c.08-.166.2-.343.35-.53.15-.191.36-.353.62-.486.25-.137.58-.206.99-.206.53 0 1 .136 1.43.406.43.268.76.665 1.01 1.191.26.523.38 1.165.38 1.926 0 .753-.12 1.392-.37 1.918-.24.526-.58.928-1 1.204-.43.277-.91.415-1.45.415-.39 0-.72-.066-.98-.196a2.11 2.11 0 0 1-.62-.473 2.933 2.933 0 0 1-.36-.531h-.1v1.079h-1.58zm1.58-3.424c0 .443.06.83.19 1.163.13.333.31.594.55.781.24.184.53.276.87.276.36 0 .66-.095.9-.285.24-.193.42-.456.54-.789.13-.336.19-.718.19-1.146 0-.426-.06-.803-.18-1.133-.13-.33-.31-.589-.55-.776-.24-.187-.54-.281-.9-.281-.34 0-.64.091-.88.272-.24.181-.42.435-.55.762-.12.328-.18.713-.18 1.156zm7.03 5.993c-.22 0-.43-.018-.61-.053a2.323 2.323 0 0 1-.45-.116l.38-1.258c.23.069.44.101.63.098a.764.764 0 0 0 .48-.174c.15-.11.27-.294.36-.553l.14-.37-2.48-6.992h1.71l1.58 5.173h.07l1.58-5.173h1.72l-2.74 7.679c-.13.363-.3.673-.51.932-.21.262-.47.461-.78.598-.3.139-.66.209-1.08.209z"/><g clip-path="url(#c)" opacity=".6"><path stroke="#fff" stroke-linecap="round" stroke-linejoin="round" stroke-width=".942" d="m1218.68 236.477-4.12 4.117c-.21.207-.31.311-.43.35a.514.514 0 0 1-.32 0c-.12-.039-.23-.143-.44-.35l-1.43-1.432c-.2-.207-.31-.311-.43-.35a.515.515 0 0 0-.32 0c-.12.039-.22.143-.43.35l-2.55 2.547m10.47-5.232h-3.67m3.67 0v3.663"/></g><path fill="#fff" d="M1225.93 237.247v4.567h-.68v-4.567h.68zm5.2 0v4.567h-.64l-2.32-3.349h-.04v3.349h-.69v-4.567h.64l2.32 3.354h.04v-3.354h.69zm1.9 0 1.27 3.72h.06l1.27-3.72h.74l-1.64 4.567h-.8l-1.64-4.567h.74zm4.5 4.567v-4.567h2.87v.593h-2.18v1.392h2.03v.591h-2.03v1.398h2.2v.593h-2.89zm6.78-3.367a.628.628 0 0 0-.3-.491c-.17-.117-.38-.176-.65-.176-.18 0-.35.03-.48.089a.705.705 0 0 0-.32.241.534.534 0 0 0-.11.346c0 .108.02.202.07.281a.71.71 0 0 0 .21.198c.08.052.17.096.27.132.09.034.19.062.28.085l.44.116c.15.035.3.084.45.144.15.061.3.142.43.241.13.1.23.223.31.37.09.148.13.324.13.529 0 .259-.07.488-.2.689-.14.201-.33.359-.58.475-.25.116-.56.174-.91.174s-.64-.054-.89-.163a1.367 1.367 0 0 1-.59-.462c-.14-.2-.22-.438-.23-.713h.69c.01.165.07.302.16.412.09.109.22.19.36.243.15.052.31.079.49.079.2 0 .37-.031.52-.092a.899.899 0 0 0 .36-.259.597.597 0 0 0 .13-.39c0-.135-.03-.246-.11-.332a.899.899 0 0 0-.31-.214 3.143 3.143 0 0 0-.44-.149l-.54-.148c-.37-.099-.66-.246-.87-.439a.996.996 0 0 1-.32-.767c0-.263.07-.493.21-.689.15-.196.34-.349.58-.457.25-.11.52-.165.83-.165.31 0 .58.054.82.163.24.108.42.258.56.448.14.189.21.406.21.651h-.66zm1.83-.607v-.593h3.53v.593h-1.42v3.974h-.69v-3.974h-1.42z" opacity=".6"/><circle cx="1215.95" cy="74.581" r="13.186" fill="#fff"/><path fill="#51B773" fill-rule="evenodd" d="M1212.78 77.467c.96 0 1.74.76 1.74 1.697 0 .936-.78 1.697-1.74 1.697-.95 0-1.73-.761-1.73-1.697s.78-1.697 1.73-1.697zm6.31 0c.96 0 1.73.76 1.73 1.697 0 .936-.77 1.697-1.73 1.697s-1.73-.761-1.73-1.697.77-1.697 1.73-1.697zm1.89-4.862c0 2.724-2.26 4.933-5.04 4.933-2.49 0-4.61-1.777-4.98-4.182l-.03-.18h5.23v-5.502c2.72.21 4.82 2.217 4.82 4.931z" clip-rule="evenodd"/><g clip-path="url(#d)" opacity=".6"><path stroke="#fff" stroke-linecap="round" stroke-linejoin="round" stroke-width=".942" d="m1408.93 236.477-4.12 4.117c-.2.207-.31.311-.43.35a.514.514 0 0 1-.32 0c-.12-.039-.22-.143-.43-.35l-1.43-1.432c-.21-.207-.31-.311-.43-.35a.547.547 0 0 0-.33 0c-.11.039-.22.143-.43.35l-2.54 2.547m10.46-5.232h-3.66m3.66 0v3.663"/></g><path fill="#fff" d="M1416.19 237.247v4.567h-.69v-4.567h.69zm5.19 0v4.567h-.63l-2.32-3.349h-.04v3.349h-.69v-4.567h.63l2.33 3.354h.04v-3.354h.68zm1.91 0 1.27 3.72h.05l1.27-3.72h.75l-1.65 4.567h-.79l-1.65-4.567h.75zm4.5 4.567v-4.567h2.86v.593h-2.17v1.392h2.02v.591h-2.02v1.398h2.2v.593h-2.89zm6.77-3.367a.644.644 0 0 0-.29-.491c-.17-.117-.39-.176-.65-.176-.19 0-.35.03-.49.089a.832.832 0 0 0-.32.241.598.598 0 0 0-.11.346c0 .108.03.202.08.281.05.079.12.145.2.198.09.052.18.096.27.132.1.034.19.062.28.085l.45.116c.14.035.29.084.45.144.15.061.29.142.42.241.13.1.24.223.32.37.08.148.12.324.12.529 0 .259-.07.488-.2.689a1.29 1.29 0 0 1-.58.475c-.25.116-.55.174-.91.174-.34 0-.64-.054-.89-.163a1.337 1.337 0 0 1-.58-.462c-.14-.2-.22-.438-.24-.713h.69c.02.165.07.302.17.412a.8.8 0 0 0 .36.243c.15.052.31.079.49.079.19 0 .37-.031.52-.092a.899.899 0 0 0 .36-.259.597.597 0 0 0 .13-.39.469.469 0 0 0-.12-.332.813.813 0 0 0-.31-.214 2.754 2.754 0 0 0-.44-.149l-.54-.148c-.36-.099-.65-.246-.86-.439-.22-.193-.32-.449-.32-.767 0-.263.07-.493.21-.689.14-.196.34-.349.58-.457.24-.11.52-.165.83-.165.3 0 .58.054.81.163.24.108.43.258.57.448.13.189.2.406.21.651h-.67zm1.83-.607v-.593h3.54v.593h-1.43v3.974h-.69v-3.974h-1.42z" opacity=".6"/><path fill="#fff" d="M1403.79 113.809h-1.67a2.074 2.074 0 0 0-.26-.727 2.01 2.01 0 0 0-.48-.544c-.19-.149-.41-.26-.65-.335a2.54 2.54 0 0 0-.78-.116c-.5 0-.94.125-1.32.375-.38.247-.68.61-.9 1.088-.22.476-.33 1.057-.33 1.744 0 .699.11 1.287.33 1.766.22.476.52.835.9 1.079a2.4 2.4 0 0 0 1.31.361c.28 0 .53-.035.77-.107.24-.074.46-.183.65-.325.19-.143.35-.318.48-.527.14-.208.23-.445.28-.713l1.67.009c-.06.434-.2.841-.41 1.222-.2.38-.47.716-.8 1.008a3.9 3.9 0 0 1-1.17.678c-.45.16-.94.24-1.49.24-.8 0-1.52-.185-2.15-.557-.63-.372-1.12-.908-1.49-1.61-.36-.702-.54-1.543-.54-2.524 0-.984.18-1.826.55-2.524.36-.702.86-1.239 1.49-1.61.63-.372 1.35-.558 2.14-.558.51 0 .98.072 1.42.214.44.143.83.353 1.17.629.34.274.62.61.84 1.008.22.396.37.847.44 1.356zm1.44 6.051v-6.849h1.57v1.141h.07c.12-.395.34-.7.64-.914.31-.217.66-.326 1.05-.326.09 0 .19.005.3.014.11.006.2.016.28.031v1.485a1.768 1.768 0 0 0-.33-.062 2.828 2.828 0 0 0-.42-.032c-.29 0-.56.064-.79.192-.24.125-.42.299-.55.522-.14.223-.2.48-.2.771v4.027h-1.62zm7.73.134c-.68 0-1.28-.142-1.78-.428a2.878 2.878 0 0 1-1.14-1.222c-.27-.529-.4-1.152-.4-1.868 0-.705.13-1.323.4-1.856.27-.535.64-.951 1.13-1.248.48-.3 1.05-.451 1.71-.451.42 0 .82.069 1.19.206.38.133.71.341 1 .624.29.282.52.642.69 1.079.16.434.25.951.25 1.552v.495h-5.62v-1.088h4.07c0-.309-.07-.584-.2-.825a1.416 1.416 0 0 0-.55-.575c-.23-.14-.5-.21-.81-.21-.33 0-.62.08-.87.241a1.728 1.728 0 0 0-.79 1.467v.95c0 .398.07.74.21 1.026.15.282.35.499.62.651.26.148.56.223.91.223.24 0 .45-.033.64-.098.19-.069.36-.168.5-.299.14-.131.24-.293.31-.486l1.51.169a2.37 2.37 0 0 1-.54 1.044c-.27.294-.61.523-1.02.686-.41.161-.89.241-1.42.241zm6.38.005c-.43 0-.82-.078-1.17-.232-.34-.158-.62-.39-.82-.696-.2-.306-.3-.684-.3-1.133 0-.386.07-.706.22-.958.14-.253.33-.455.58-.607.25-.152.53-.266.83-.343.32-.081.64-.139.97-.174.4-.042.73-.079.98-.112.25-.035.43-.089.54-.16a.377.377 0 0 0 .18-.344v-.026c0-.336-.1-.596-.3-.781-.2-.184-.49-.276-.86-.276-.4 0-.71.086-.94.258-.23.173-.39.376-.47.611l-1.5-.214c.11-.416.31-.764.58-1.043.28-.283.61-.494 1.01-.634.39-.142.83-.214 1.31-.214.33 0 .66.039.98.116.33.078.63.205.9.384.27.175.49.415.65.718.17.303.25.682.25 1.137v4.584h-1.55v-.94h-.05a2.019 2.019 0 0 1-1.08.932c-.27.098-.58.147-.94.147zm.42-1.187c.33 0 .61-.063.85-.191.23-.131.42-.304.55-.518.13-.214.19-.447.19-.7v-.807a.78.78 0 0 1-.26.116c-.12.036-.25.067-.4.094-.15.026-.29.05-.44.071l-.38.054c-.24.032-.46.086-.65.16a1.07 1.07 0 0 0-.45.312c-.11.131-.16.301-.16.509 0 .297.11.521.32.673.22.152.5.227.83.227zm8.25-5.801v1.248h-3.94v-1.248h3.94zm-2.97-1.642h1.61v6.431c0 .217.04.384.1.5.07.113.16.19.27.232.11.041.23.062.37.062.1 0 .19-.007.27-.022.09-.015.15-.029.2-.04l.27 1.262a3.11 3.11 0 0 1-.95.16c-.4.012-.77-.049-1.09-.183a1.662 1.662 0 0 1-.77-.633c-.19-.285-.28-.642-.28-1.07v-6.699zm7.27 8.625c-.68 0-1.28-.142-1.77-.428a2.9 2.9 0 0 1-1.15-1.222c-.27-.529-.4-1.152-.4-1.868 0-.705.13-1.323.4-1.856.27-.535.65-.951 1.13-1.248.49-.3 1.06-.451 1.71-.451.42 0 .82.069 1.19.206.38.133.72.341 1 .624.3.282.52.642.69 1.079.17.434.25.951.25 1.552v.495h-5.61v-1.088h4.06c0-.309-.07-.584-.2-.825a1.416 1.416 0 0 0-.55-.575c-.23-.14-.5-.21-.81-.21-.33 0-.62.08-.87.241a1.728 1.728 0 0 0-.79 1.467v.95c0 .398.07.74.22 1.026.14.282.35.499.61.651.26.148.57.223.92.223.23 0 .44-.033.63-.098.19-.069.36-.168.5-.299.14-.131.24-.293.32-.486l1.5.169c-.09.399-.27.746-.54 1.044-.27.294-.6.523-1.02.686-.41.161-.88.241-1.42.241zm8.53 2.435c-.22 0-.42-.018-.61-.053a2.401 2.401 0 0 1-.44-.116l.38-1.258c.23.069.44.101.63.098a.764.764 0 0 0 .48-.174c.14-.11.26-.294.36-.553l.14-.37-2.48-6.992h1.71l1.58 5.173h.07l1.58-5.173h1.72l-2.74 7.679c-.13.363-.3.673-.51.932-.21.262-.47.461-.78.598-.3.139-.66.209-1.09.209zm8.99-2.435c-.67 0-1.25-.147-1.74-.441a2.995 2.995 0 0 1-1.14-1.236c-.27-.529-.4-1.147-.4-1.855 0-.707.13-1.327.4-1.859.27-.533.65-.946 1.14-1.24.49-.294 1.07-.442 1.74-.442.67 0 1.25.148 1.74.442.49.294.87.707 1.14 1.24.27.532.4 1.152.4 1.859 0 .708-.13 1.326-.4 1.855-.27.53-.65.941-1.14 1.236-.49.294-1.07.441-1.74.441zm.01-1.293c.36 0 .67-.1.91-.299.24-.202.43-.473.54-.811.13-.339.19-.717.19-1.133 0-.419-.06-.798-.19-1.137-.11-.342-.3-.614-.54-.816-.24-.203-.55-.304-.91-.304-.37 0-.68.101-.93.304-.24.202-.42.474-.55.816-.11.339-.17.718-.17 1.137 0 .416.06.794.17 1.133.13.338.31.609.55.811.25.199.56.299.93.299zm9.01-1.721v-3.969h1.61v6.849h-1.56v-1.217h-.07c-.16.384-.41.697-.76.941-.36.244-.79.366-1.3.366-.45 0-.85-.1-1.19-.299-.35-.202-.61-.495-.81-.879-.19-.386-.29-.853-.29-1.4v-4.361h1.62v4.111c0 .434.12.779.36 1.035.23.256.55.383.93.383.24 0 .47-.058.69-.173.23-.116.41-.289.55-.518.15-.232.22-.522.22-.869zm3.27 2.88v-6.849h1.57v1.141h.07c.13-.395.34-.7.64-.914.31-.217.66-.326 1.05-.326.09 0 .19.005.3.014.11.006.21.016.28.031v1.485a1.803 1.803 0 0 0-.32-.062 3.07 3.07 0 0 0-.43-.032c-.29 0-.56.064-.79.192-.23.125-.42.299-.55.522-.13.223-.2.48-.2.771v4.027h-1.62zm11.09.134c-.67 0-1.25-.147-1.74-.441a2.995 2.995 0 0 1-1.14-1.236c-.27-.529-.41-1.147-.41-1.855 0-.707.14-1.327.41-1.859.27-.533.65-.946 1.14-1.24.49-.294 1.07-.442 1.74-.442.67 0 1.25.148 1.74.442.49.294.87.707 1.13 1.24.27.532.41 1.152.41 1.859 0 .708-.14 1.326-.41 1.855-.26.53-.64.941-1.13 1.236-.49.294-1.07.441-1.74.441zm.01-1.293c.36 0 .66-.1.91-.299.24-.202.42-.473.54-.811.12-.339.18-.717.18-1.133 0-.419-.06-.798-.18-1.137a1.83 1.83 0 0 0-.54-.816 1.39 1.39 0 0 0-.91-.304c-.38 0-.69.101-.93.304-.25.202-.43.474-.55.816a3.39 3.39 0 0 0-.18 1.137c0 .416.06.794.18 1.133.12.338.3.609.55.811.24.199.55.299.93.299zm5.86 1.159-1.94-6.849h1.65l1.2 4.816h.06l1.23-4.816h1.63l1.23 4.789h.07l1.19-4.789h1.65l-1.94 6.849h-1.69l-1.28-4.629h-.09l-1.29 4.629h-1.68zm10.71-4.013v4.013h-1.62v-6.849h1.55v1.164h.08c.15-.384.4-.689.75-.915.35-.226.78-.339 1.29-.339.47 0 .88.101 1.23.304.36.202.63.495.82.878.2.384.3.849.29 1.396v4.361h-1.61v-4.111c0-.458-.12-.816-.36-1.075-.23-.259-.56-.388-.97-.388-.29 0-.54.062-.76.187-.21.122-.39.299-.51.531-.12.232-.18.513-.18.843zm-90.9 19.147c-.69 0-1.27-.15-1.76-.45-.49-.3-.87-.715-1.13-1.244-.26-.533-.39-1.145-.39-1.838 0-.695.13-1.309.4-1.842.26-.535.64-.951 1.13-1.248.49-.3 1.07-.451 1.74-.451.55 0 1.05.103 1.47.308.44.202.78.489 1.04.861.25.368.4.8.43 1.293h-1.54c-.06-.33-.21-.605-.45-.825-.23-.223-.54-.334-.93-.334-.33 0-.62.089-.87.267-.25.176-.44.428-.58.758-.14.33-.21.726-.21 1.187 0 .466.07.868.21 1.204.13.333.33.59.57.771.25.178.55.268.88.268.24 0 .45-.045.64-.134.19-.092.35-.225.48-.397.12-.172.21-.382.26-.629h1.54c-.04.485-.18.914-.43 1.289-.24.372-.58.663-1 .874-.43.208-.93.312-1.5.312zm8.62-3.014v-3.969h1.62v6.849h-1.57v-1.217h-.07c-.15.384-.41.697-.76.941-.35.244-.78.366-1.3.366-.45 0-.84-.1-1.19-.299a2.06 2.06 0 0 1-.8-.879c-.2-.386-.29-.853-.29-1.4v-4.361h1.61v4.111c0 .434.12.779.36 1.035.24.256.55.383.94.383.23 0 .46-.058.69-.173.22-.116.4-.289.55-.518.14-.232.21-.522.21-.869zm8.69-2.159-1.47.161a1.067 1.067 0 0 0-.22-.419 1.09 1.09 0 0 0-.41-.317c-.17-.08-.38-.121-.63-.121-.34 0-.62.073-.85.219-.23.146-.34.334-.33.566-.01.2.07.362.21.486.16.125.41.228.75.308l1.17.25c.65.14 1.13.361 1.45.664.32.304.48.701.48 1.191 0 .431-.13.812-.38 1.142-.25.327-.59.582-1.03.767-.44.184-.95.276-1.52.276-.83 0-1.51-.175-2.02-.526a2.134 2.134 0 0 1-.92-1.476l1.58-.152c.07.309.22.543.45.7.24.158.54.237.91.237.38 0 .69-.079.92-.237.24-.157.35-.352.35-.584a.607.607 0 0 0-.22-.486c-.15-.128-.38-.226-.7-.294l-1.17-.245c-.65-.137-1.14-.368-1.46-.692-.31-.327-.47-.74-.46-1.239-.01-.423.11-.788.34-1.098.23-.312.56-.552.98-.722.42-.172.9-.259 1.45-.259.8 0 1.43.171 1.89.513.47.342.75.804.86 1.387zm4.9-1.81v1.248h-3.94v-1.248h3.94zm-2.96-1.642h1.61v6.431c0 .217.03.384.1.5.07.113.16.19.27.232.11.041.23.062.36.062.1 0 .19-.007.28-.022.08-.015.15-.029.19-.04l.28 1.262a3.21 3.21 0 0 1-.95.16c-.41.012-.77-.049-1.1-.183a1.713 1.713 0 0 1-.77-.633c-.19-.285-.28-.642-.27-1.07v-6.699zm7.23 8.625c-.67 0-1.25-.147-1.74-.441a3.018 3.018 0 0 1-1.15-1.236c-.26-.529-.4-1.147-.4-1.855 0-.707.14-1.327.4-1.859.27-.533.66-.946 1.15-1.24.49-.294 1.07-.442 1.74-.442.66 0 1.24.148 1.73.442.5.294.87.707 1.14 1.24.27.532.41 1.152.41 1.859 0 .708-.14 1.326-.41 1.855-.27.53-.64.941-1.14 1.236-.49.294-1.07.441-1.73.441zm0-1.293c.37 0 .67-.1.91-.299.25-.202.43-.473.55-.811.12-.339.18-.717.18-1.133 0-.419-.06-.798-.18-1.137-.12-.342-.3-.614-.55-.816-.24-.203-.54-.304-.91-.304s-.68.101-.92.304c-.25.202-.43.474-.55.816a3.39 3.39 0 0 0-.18 1.137c0 .416.06.794.18 1.133.12.338.3.609.55.811.24.199.55.299.92.299zm4.65 1.159v-6.849h1.54v1.164h.08c.14-.393.38-.699.71-.919.33-.223.72-.335 1.18-.335.47 0 .86.113 1.17.339.33.223.55.528.68.915h.07c.16-.381.41-.684.77-.91.36-.229.79-.344 1.29-.344.63 0 1.14.2 1.54.598.4.398.6.98.6 1.744v4.597h-1.62v-4.348c0-.425-.11-.735-.34-.932-.22-.199-.5-.298-.83-.298-.39 0-.69.121-.91.365-.22.241-.33.555-.33.941v4.272h-1.58v-4.414c0-.354-.11-.637-.32-.848-.21-.211-.49-.316-.83-.316a1.238 1.238 0 0 0-1.09.673c-.11.211-.17.458-.17.74v4.165h-1.61zm17.36 2.712c-.58 0-1.08-.079-1.49-.236a2.71 2.71 0 0 1-1.01-.625 2.193 2.193 0 0 1-.52-.869l1.45-.353c.07.134.16.266.29.397.12.134.29.244.5.33.22.089.48.134.81.134.46 0 .84-.112 1.14-.334.3-.221.45-.583.45-1.089v-1.297h-.08c-.09.166-.21.337-.37.512-.16.176-.37.323-.63.442s-.58.178-.97.178c-.53 0-1.01-.123-1.44-.37-.42-.25-.76-.621-1.01-1.115-.25-.496-.38-1.118-.38-1.864 0-.752.13-1.387.38-1.904.25-.52.59-.914 1.02-1.182.43-.27.9-.406 1.43-.406.4 0 .73.069.99.206.26.133.47.295.62.486.16.187.28.364.36.53h.09v-1.132h1.59v6.961c0 .586-.14 1.07-.42 1.454-.28.383-.66.67-1.15.86-.48.191-1.03.286-1.65.286zm.02-4.076c.34 0 .63-.083.87-.25.24-.166.42-.406.55-.718.12-.312.19-.687.19-1.124 0-.431-.07-.808-.19-1.132a1.619 1.619 0 0 0-.55-.754c-.23-.181-.53-.272-.87-.272-.36 0-.66.094-.91.281-.24.187-.42.444-.54.771-.12.324-.18.693-.18 1.106 0 .42.06.787.18 1.102.13.312.31.556.55.731.24.173.54.259.9.259zm7.84 1.498c-.67 0-1.25-.147-1.74-.441a2.995 2.995 0 0 1-1.14-1.236c-.27-.529-.4-1.147-.4-1.855 0-.707.13-1.327.4-1.859.27-.533.65-.946 1.14-1.24.49-.294 1.07-.442 1.74-.442.67 0 1.25.148 1.74.442.49.294.87.707 1.14 1.24.27.532.4 1.152.4 1.859 0 .708-.13 1.326-.4 1.855-.27.53-.65.941-1.14 1.236-.49.294-1.07.441-1.74.441zm.01-1.293c.36 0 .66-.1.91-.299.24-.202.42-.473.54-.811.12-.339.19-.717.19-1.133 0-.419-.07-.798-.19-1.137a1.83 1.83 0 0 0-.54-.816 1.39 1.39 0 0 0-.91-.304c-.37 0-.68.101-.93.304-.24.202-.43.474-.55.816a3.39 3.39 0 0 0-.18 1.137c0 .416.06.794.18 1.133.12.338.31.609.55.811.25.199.56.299.93.299zm6.61 1.298c-.43 0-.82-.078-1.17-.232-.34-.158-.62-.39-.82-.696-.2-.306-.3-.684-.3-1.133 0-.386.07-.706.22-.958.14-.253.33-.455.58-.607.25-.152.52-.266.83-.343.32-.081.64-.139.97-.174.4-.042.73-.079.98-.112.25-.035.43-.089.54-.16a.377.377 0 0 0 .18-.344v-.026c0-.336-.1-.596-.3-.781-.2-.184-.49-.276-.86-.276-.4 0-.71.086-.94.258-.23.173-.39.376-.47.611l-1.51-.214c.12-.416.32-.764.59-1.043.28-.283.61-.494 1.01-.634.39-.142.83-.214 1.31-.214.33 0 .66.039.98.116.33.078.63.205.9.384.27.175.49.415.65.718.17.303.25.682.25 1.137v4.584h-1.55v-.94h-.06c-.09.19-.23.368-.41.535-.18.163-.4.295-.66.397-.27.098-.58.147-.94.147zm.42-1.187c.33 0 .61-.063.85-.191.23-.131.42-.304.54-.518.13-.214.2-.447.2-.7v-.807a.78.78 0 0 1-.26.116c-.12.036-.25.067-.4.094-.15.026-.3.05-.44.071l-.38.054c-.24.032-.46.086-.65.16a1.07 1.07 0 0 0-.45.312c-.11.131-.16.301-.16.509 0 .297.11.521.32.673.22.152.5.227.83.227zm6.44-8.085v9.133h-1.62v-9.133h1.62z"/><circle cx="1406.37" cy="73.954" r="13.186" fill="#fff"/><path fill="#59AD7E" d="m1411.8 70.825-1.52-1.51a.721.721 0 0 0-1.05 0l-7.1 7.1a.695.695 0 0 0-.21.504v1.511c0 .403.36.756.76.756h1.51c.2 0 .4-.101.5-.202l7.11-7.101c.3-.302.3-.756 0-1.058z"/><path fill="#fff" d="M1587.24 119.86h-1.77l3.22-9.133h2.04l3.22 9.133h-1.77l-2.44-7.26h-.07l-2.43 7.26zm.05-3.581h4.82v1.329h-4.82v-1.329zm12.52-.432v4.013h-1.62v-6.849h1.55v1.164h.08c.15-.384.41-.689.75-.915.35-.226.78-.339 1.29-.339.47 0 .88.101 1.24.304.35.202.62.495.82.878.19.384.29.849.29 1.396v4.361h-1.62v-4.111c0-.458-.12-.816-.36-1.075-.23-.259-.56-.388-.97-.388-.28 0-.54.062-.76.187-.21.122-.38.299-.51.531-.12.232-.18.513-.18.843zm9.07 4.147c-.69 0-1.28-.142-1.78-.428a2.9 2.9 0 0 1-1.15-1.222c-.26-.529-.4-1.152-.4-1.868 0-.705.14-1.323.4-1.856a3.01 3.01 0 0 1 1.14-1.248c.48-.3 1.05-.451 1.7-.451.43 0 .83.069 1.2.206.38.133.71.341 1 .624.29.282.52.642.69 1.079.16.434.25.951.25 1.552v.495h-5.62v-1.088h4.07a1.834 1.834 0 0 0-.2-.825 1.484 1.484 0 0 0-.55-.575c-.23-.14-.5-.21-.81-.21-.33 0-.62.08-.87.241-.25.157-.45.365-.59.624-.13.256-.2.537-.21.843v.95c0 .398.08.74.22 1.026.15.282.35.499.61.651.26.148.57.223.92.223.24 0 .45-.033.64-.098.19-.069.35-.168.49-.299.14-.131.25-.293.32-.486l1.51.169c-.1.399-.28.746-.55 1.044-.26.294-.6.523-1.01.686a3.93 3.93 0 0 1-1.42.241zm5.79-.134-1.94-6.849h1.65l1.2 4.816h.06l1.24-4.816h1.62l1.23 4.789h.07l1.19-4.789h1.65l-1.94 6.849h-1.68l-1.29-4.629h-.09l-1.29 4.629h-1.68zm15.2.134c-.69 0-1.27-.15-1.76-.45-.49-.3-.87-.715-1.13-1.244-.26-.533-.4-1.145-.4-1.838 0-.695.14-1.309.41-1.842.26-.535.64-.951 1.13-1.248.49-.3 1.07-.451 1.74-.451.55 0 1.05.103 1.47.308.44.202.78.489 1.03.861.26.368.41.8.44 1.293h-1.54c-.06-.33-.21-.605-.45-.825-.23-.223-.54-.334-.93-.334-.33 0-.62.089-.87.267-.25.176-.44.428-.58.758-.14.33-.21.726-.21 1.187 0 .466.07.868.21 1.204.13.333.33.59.57.771.25.178.54.268.88.268.24 0 .45-.045.64-.134.19-.092.35-.225.48-.397.12-.172.21-.382.26-.629h1.54c-.04.485-.18.914-.43 1.289-.24.372-.58.663-1 .874-.43.208-.93.312-1.5.312zm6.23.005c-.44 0-.83-.078-1.17-.232-.35-.158-.62-.39-.83-.696-.19-.306-.29-.684-.29-1.133 0-.386.07-.706.21-.958.14-.253.34-.455.58-.607.25-.152.53-.266.84-.343.31-.081.63-.139.97-.174.4-.042.72-.079.97-.112.25-.035.43-.089.55-.16a.39.39 0 0 0 .17-.344v-.026c0-.336-.1-.596-.3-.781-.2-.184-.48-.276-.86-.276-.39 0-.71.086-.94.258-.23.173-.38.376-.46.611l-1.51-.214c.12-.416.31-.764.59-1.043a2.56 2.56 0 0 1 1-.634c.4-.142.83-.214 1.31-.214.33 0 .66.039.99.116.32.078.62.205.89.384.27.175.49.415.66.718.16.303.24.682.24 1.137v4.584h-1.55v-.94h-.05c-.1.19-.24.368-.42.535-.17.163-.39.295-.66.397-.26.098-.58.147-.93.147zm.42-1.187c.32 0 .6-.063.84-.191.24-.131.42-.304.55-.518.13-.214.19-.447.19-.7v-.807a.712.712 0 0 1-.25.116c-.12.036-.26.067-.41.094a28.455 28.455 0 0 1-.82.125c-.24.032-.45.086-.64.16a1.07 1.07 0 0 0-.45.312.768.768 0 0 0-.17.509c0 .297.11.521.33.673.21.152.49.227.83.227zm4.82 1.048v-6.849h1.56v1.141h.07c.13-.395.34-.7.65-.914.3-.217.65-.326 1.04-.326.09 0 .19.005.3.014.12.006.21.016.28.031v1.485a1.482 1.482 0 0 0-.32-.062 3.045 3.045 0 0 0-.42-.032c-.3 0-.56.064-.8.192-.23.125-.41.299-.55.522-.13.223-.2.48-.2.771v4.027h-1.61z"/><g clip-path="url(#e)" opacity=".6"><path stroke="#fff" stroke-linecap="round" stroke-linejoin="round" stroke-width=".942" d="m1596.67 236.477-4.11 4.117c-.21.207-.31.311-.43.35a.547.547 0 0 1-.33 0c-.12-.039-.22-.143-.43-.35l-1.43-1.432c-.21-.207-.31-.311-.43-.35a.515.515 0 0 0-.32 0c-.12.039-.23.143-.43.35l-2.55 2.547m10.46-5.232h-3.66m3.66 0v3.663"/></g><path fill="#fff" d="M1603.93 237.247v4.567h-.68v-4.567h.68zm5.2 0v4.567h-.64l-2.32-3.349h-.04v3.349h-.69v-4.567h.64l2.32 3.354h.04v-3.354h.69zm1.9 0 1.27 3.72h.06l1.27-3.72h.74l-1.64 4.567h-.8l-1.64-4.567h.74zm4.5 4.567v-4.567h2.87v.593h-2.18v1.392h2.03v.591h-2.03v1.398h2.2v.593h-2.89zm6.78-3.367a.628.628 0 0 0-.3-.491c-.17-.117-.38-.176-.65-.176-.18 0-.35.03-.48.089a.705.705 0 0 0-.32.241.534.534 0 0 0-.11.346c0 .108.02.202.07.281a.71.71 0 0 0 .21.198c.08.052.17.096.27.132.09.034.19.062.28.085l.44.116c.15.035.3.084.45.144.15.061.3.142.43.241.13.1.23.223.31.37.09.148.13.324.13.529 0 .259-.07.488-.2.689-.14.201-.33.359-.58.475-.25.116-.56.174-.91.174s-.64-.054-.89-.163a1.367 1.367 0 0 1-.59-.462c-.14-.2-.22-.438-.23-.713h.69c.01.165.07.302.16.412.09.109.22.19.36.243.15.052.31.079.49.079.2 0 .37-.031.52-.092a.899.899 0 0 0 .36-.259.597.597 0 0 0 .13-.39c0-.135-.03-.246-.11-.332a.899.899 0 0 0-.31-.214 3.143 3.143 0 0 0-.44-.149l-.54-.148c-.37-.099-.66-.246-.87-.439a.996.996 0 0 1-.32-.767c0-.263.07-.493.21-.689.15-.196.34-.349.58-.457.25-.11.52-.165.83-.165.31 0 .58.054.82.163.24.108.42.258.56.448.14.189.21.406.21.651h-.66zm1.83-.607v-.593h3.53v.593h-1.42v3.974h-.69v-3.974h-1.42z" opacity=".6"/><circle cx="1597.72" cy="74.581" r="13.186" fill="#fff"/><g fill="#43A09E" clip-path="url(#f)"><path d="M1597.72 66.827c-4.28 0-7.76 3.477-7.76 7.754 0 4.278 3.48 7.755 7.76 7.755 4.28 0 7.75-3.477 7.75-7.755 0-4.277-3.47-7.754-7.75-7.754zm0 12.685a4.923 4.923 0 0 1-4.93-4.93c0-2.727 2.2-4.93 4.93-4.93 2.73 0 4.93 2.203 4.93 4.93 0 2.726-2.2 4.93-4.93 4.93z"/><path d="m1596.1 74.663-2.22-.718c-.03.212-.05.425-.05.637a3.85 3.85 0 0 0 1.16 2.775l1.37-1.894a1.778 1.778 0 0 1-.26-.8zm1.05-1.6v-2.335a3.917 3.917 0 0 0-2.91 2.106l2.22.718c.18-.212.41-.375.69-.49v.001zm.57 3.134c-.15 0-.29-.016-.43-.049l-1.37 1.894c.54.278 1.15.44 1.8.44.65 0 1.26-.162 1.8-.44l-1.38-1.894c-.13.033-.27.05-.42.05zm.57-5.469v2.335c.26.098.51.277.69.49l2.22-.718a3.9 3.9 0 0 0-2.91-2.107zm.78 4.735 1.38 1.894a3.91 3.91 0 0 0 1.15-2.775c0-.213-.01-.425-.04-.637l-2.22.718c-.02.294-.12.572-.27.8zm-.48-.881c0 1.153-1.73 1.153-1.73 0 0-1.154 1.73-1.154 1.73 0z"/></g><path fill="#fff" d="m1014.63 110.727 2.38 7.189h.1l2.37-7.189h1.82l-3.22 9.133h-2.05l-3.21-9.133h1.81zm9.06 9.272c-.44 0-.83-.078-1.17-.232-.35-.158-.62-.39-.82-.696-.2-.306-.3-.684-.3-1.133 0-.386.07-.706.21-.958.14-.253.34-.455.58-.607.25-.152.53-.266.84-.343.31-.081.63-.139.97-.174.4-.042.72-.079.97-.112.25-.035.43-.089.55-.16a.39.39 0 0 0 .17-.344v-.026c0-.336-.1-.596-.3-.781-.2-.184-.48-.276-.86-.276-.39 0-.71.086-.94.258-.23.173-.38.376-.46.611l-1.51-.214c.12-.416.31-.764.59-1.043a2.56 2.56 0 0 1 1-.634c.4-.142.83-.214 1.31-.214.33 0 .66.039.99.116.33.078.62.205.89.384.27.175.49.415.66.718.16.303.25.682.25 1.137v4.584h-1.56v-.94h-.05c-.1.19-.24.368-.41.535-.18.163-.4.295-.67.397-.26.098-.57.147-.93.147zm.42-1.187c.32 0 .6-.063.84-.191.24-.131.42-.304.55-.518.13-.214.2-.447.2-.7v-.807a.892.892 0 0 1-.26.116c-.12.036-.26.067-.4.094a28.455 28.455 0 0 1-.83.125c-.24.032-.45.086-.64.16a1.07 1.07 0 0 0-.45.312.768.768 0 0 0-.17.509c0 .297.11.521.33.673.22.152.49.227.83.227zm7.81 1.182c-.69 0-1.27-.15-1.77-.45-.48-.3-.86-.715-1.12-1.244-.27-.533-.4-1.145-.4-1.838 0-.695.14-1.309.41-1.842.26-.535.64-.951 1.13-1.248.49-.3 1.07-.451 1.74-.451.55 0 1.05.103 1.47.308.43.202.78.489 1.03.861.26.368.41.8.44 1.293h-1.54c-.06-.33-.21-.605-.45-.825-.23-.223-.54-.334-.93-.334-.33 0-.62.089-.87.267-.25.176-.44.428-.58.758-.14.33-.21.726-.21 1.187 0 .466.07.868.21 1.204.13.333.32.59.57.771.25.178.54.268.88.268.24 0 .45-.045.64-.134.19-.092.35-.225.47-.397.13-.172.22-.382.27-.629h1.54c-.04.485-.18.914-.43 1.289-.24.372-.58.663-1.01.874-.42.208-.92.312-1.49.312zm6.23.005c-.44 0-.83-.078-1.18-.232-.34-.158-.61-.39-.82-.696-.2-.306-.29-.684-.29-1.133 0-.386.07-.706.21-.958.14-.253.34-.455.58-.607.25-.152.53-.266.84-.343.31-.081.63-.139.97-.174.4-.042.72-.079.97-.112.25-.035.43-.089.55-.16a.39.39 0 0 0 .17-.344v-.026c0-.336-.1-.596-.3-.781-.2-.184-.49-.276-.86-.276-.4 0-.71.086-.94.258-.23.173-.38.376-.46.611l-1.51-.214c.12-.416.31-.764.59-1.043.27-.283.6-.494 1-.634.4-.142.83-.214 1.31-.214.33 0 .66.039.99.116.32.078.62.205.89.384.27.175.49.415.65.718.17.303.25.682.25 1.137v4.584h-1.55v-.94h-.05c-.1.19-.24.368-.42.535-.17.163-.39.295-.66.397-.27.098-.58.147-.93.147zm.42-1.187c.32 0 .6-.063.84-.191.24-.131.42-.304.55-.518.13-.214.19-.447.19-.7v-.807a.712.712 0 0 1-.25.116c-.12.036-.26.067-.41.094a28.455 28.455 0 0 1-.82.125c-.24.032-.45.086-.64.16a1.07 1.07 0 0 0-.45.312.768.768 0 0 0-.17.509c0 .297.11.521.33.673.21.152.49.227.83.227zm8.24-5.801v1.248h-3.94v-1.248h3.94zm-2.97-1.642h1.62v6.431c0 .217.03.384.09.5.07.113.16.19.27.232.11.041.23.062.37.062.1 0 .19-.007.27-.022.09-.015.16-.029.2-.04l.27 1.262c-.08.029-.21.062-.37.098-.15.035-.35.056-.58.062-.4.012-.77-.049-1.09-.183a1.713 1.713 0 0 1-.77-.633c-.19-.285-.28-.642-.28-1.07v-6.699zm4.32 8.491v-6.849h1.61v6.849h-1.61zm.81-7.822a.925.925 0 0 1-.66-.254.838.838 0 0 1-.28-.62c0-.243.1-.45.28-.62a.92.92 0 0 1 .66-.258c.26 0 .48.086.66.258.18.17.28.377.28.62 0 .241-.1.448-.28.62-.18.17-.4.254-.66.254zm5.45 7.956c-.67 0-1.25-.147-1.74-.441a2.995 2.995 0 0 1-1.14-1.236c-.27-.529-.4-1.147-.4-1.855 0-.707.13-1.327.4-1.859.27-.533.65-.946 1.14-1.24.49-.294 1.07-.442 1.74-.442.67 0 1.25.148 1.74.442.49.294.87.707 1.14 1.24.27.532.4 1.152.4 1.859 0 .708-.13 1.326-.4 1.855-.27.53-.65.941-1.14 1.236-.49.294-1.07.441-1.74.441zm.01-1.293c.36 0 .67-.1.91-.299.24-.202.42-.473.54-.811.13-.339.19-.717.19-1.133 0-.419-.06-.798-.19-1.137a1.83 1.83 0 0 0-.54-.816c-.24-.203-.55-.304-.91-.304-.37 0-.68.101-.93.304-.24.202-.42.474-.55.816a3.39 3.39 0 0 0-.18 1.137c0 .416.06.794.18 1.133.13.338.31.609.55.811.25.199.56.299.93.299zm6.26-2.854v4.013h-1.62v-6.849h1.55v1.164h.08c.15-.384.41-.689.75-.915.35-.226.78-.339 1.29-.339.47 0 .88.101 1.23.304.36.202.63.495.82.878.2.384.3.849.29 1.396v4.361h-1.61v-4.111c0-.458-.12-.816-.36-1.075-.23-.259-.56-.388-.97-.388-.29 0-.54.062-.76.187-.21.122-.38.299-.51.531-.12.232-.18.513-.18.843z"/><g clip-path="url(#g)" opacity=".6"><path stroke="#fff" stroke-linecap="round" stroke-linejoin="round" stroke-width=".942" d="m1026.54 236.477-4.12 4.117c-.21.207-.31.311-.43.35a.547.547 0 0 1-.33 0c-.12-.039-.22-.143-.43-.35l-1.43-1.432c-.21-.207-.31-.311-.43-.35a.515.515 0 0 0-.32 0c-.12.039-.22.143-.43.35l-2.55 2.547m10.47-5.232h-3.67m3.67 0v3.663"/></g><path fill="#fff" d="M1033.8 237.247v4.567h-.69v-4.567h.69zm5.19 0v4.567h-.64l-2.32-3.349h-.04v3.349h-.69v-4.567h.64l2.32 3.354h.05v-3.354h.68zm1.9 0 1.28 3.72h.05l1.27-3.72h.74l-1.64 4.567h-.8l-1.64-4.567h.74zm4.5 4.567v-4.567h2.87v.593h-2.18v1.392h2.03v.591h-2.03v1.398h2.2v.593h-2.89zm6.78-3.367a.644.644 0 0 0-.29-.491 1.163 1.163 0 0 0-.66-.176c-.18 0-.34.03-.48.089a.763.763 0 0 0-.32.241.598.598 0 0 0-.11.346c0 .108.02.202.07.281a.71.71 0 0 0 .21.198c.08.052.17.096.27.132.1.034.19.062.28.085l.44.116c.15.035.3.084.45.144.16.061.3.142.43.241.13.1.23.223.31.37.09.148.13.324.13.529 0 .259-.07.488-.2.689-.14.201-.33.359-.58.475-.25.116-.56.174-.91.174-.34 0-.64-.054-.89-.163a1.367 1.367 0 0 1-.59-.462c-.14-.2-.22-.438-.23-.713h.69c.01.165.07.302.16.412.1.109.22.19.36.243.15.052.32.079.49.079.2 0 .37-.031.52-.092a.778.778 0 0 0 .36-.259.605.605 0 0 0 .14-.39.469.469 0 0 0-.12-.332.899.899 0 0 0-.31-.214 3.143 3.143 0 0 0-.44-.149l-.54-.148c-.37-.099-.66-.246-.87-.439a.996.996 0 0 1-.32-.767c0-.263.07-.493.22-.689.14-.196.33-.349.58-.457.24-.11.51-.165.82-.165.31 0 .58.054.82.163.24.108.42.258.56.448.14.189.21.406.21.651h-.66zm1.83-.607v-.593h3.53v.593h-1.42v3.974h-.69v-3.974H1054z" opacity=".6"/><circle cx="1025.07" cy="74.581" r="13.186" fill="#fff"/><path fill="#49AA8B" fill-rule="evenodd" d="M1030.72 74.581c0 .307-.27.53-.58.5l-.79-.077a.415.415 0 0 1-.37-.423c0-.213.15-.402.37-.423l.79-.077c.31-.03.58.194.58.5zm-.77-1.48c.29-.089.46-.402.34-.685-.12-.283-.45-.382-.73-.237l-.7.378c-.19.1-.26.33-.18.526.09.195.3.312.5.25l.77-.232zm-.88-2.516a.52.52 0 0 1-.06.764l-.62.507c-.16.135-.4.11-.55-.041-.15-.15-.18-.392-.05-.556l.51-.618c.2-.236.55-.272.77-.056zm-1.84-1.225c.29.117.39.455.24.726l-.38.706a.408.408 0 0 1-.52.174.413.413 0 0 1-.25-.496l.23-.767c.09-.293.4-.46.68-.343zm-2.16-.43c.31 0 .53.274.5.58l-.08.793a.416.416 0 0 1-.42.366c-.21 0-.4-.153-.42-.366l-.08-.794c-.03-.305.19-.579.5-.579zm-1.48.773a.519.519 0 0 0-.69-.343c-.28.117-.38.455-.23.726l.37.706c.1.186.34.255.53.174.2-.081.31-.294.25-.496l-.23-.767zm-2.52.882c.22-.216.57-.18.77.056l.5.618c.14.164.11.406-.04.556-.15.15-.39.176-.55.04l-.62-.507a.518.518 0 0 1-.06-.763zm-1.22 1.831c.12-.283.45-.382.72-.237l.71.378c.19.1.25.33.17.526-.08.195-.29.312-.49.25l-.77-.232c-.29-.089-.46-.402-.34-.685zm.15 1.665c-.31-.03-.58.194-.58.5 0 .307.27.53.58.5l.79-.077c.21-.02.37-.21.37-.423a.423.423 0 0 0-.37-.423l-.79-.077zm-.15 2.666c-.12-.283.05-.597.34-.686l.77-.232c.2-.061.41.056.49.251.08.195.02.426-.17.526l-.71.378c-.27.145-.6.046-.72-.237zm1.22 1.83a.518.518 0 0 1 .06-.763l.62-.507c.16-.135.4-.11.55.04.15.151.18.393.04.557l-.5.617c-.2.237-.55.273-.77.056zm1.83 1.226c-.28-.118-.38-.456-.23-.726l.37-.706a.42.42 0 0 1 .53-.174c.2.081.31.294.25.496l-.23.767a.52.52 0 0 1-.69.343zm2.17.43c-.31 0-.53-.275-.5-.58l.08-.794a.416.416 0 0 1 .42-.365c.21 0 .4.153.42.365l.08.794c.03.305-.19.58-.5.58zm2.16-.43c-.28.117-.59-.05-.68-.343l-.23-.767a.413.413 0 0 1 .25-.496.408.408 0 0 1 .52.174l.38.706c.15.27.05.608-.24.726zm1.84-1.226c-.22.217-.57.181-.77-.056l-.51-.617c-.13-.164-.1-.406.05-.556.15-.15.39-.176.55-.04l.62.506c.24.195.27.547.06.763zm1.22-1.83c-.12.283-.45.382-.73.237l-.7-.378a.413.413 0 0 1-.18-.526c.09-.195.3-.312.5-.25l.77.231c.29.09.46.403.34.686z" clip-rule="evenodd"/><circle cx="1025.07" cy="74.581" r="4.557" fill="#49AA8B"/><path fill="#fff" d="M440.76 119.86v-9.133h5.94v1.387h-4.285v2.48h3.978v1.387h-3.978v2.493h4.321v1.386h-5.976zm7.557 0v-6.849h1.543v1.164h.08c.143-.393.379-.699.709-.919.33-.223.724-.335 1.182-.335.464 0 .855.113 1.173.339.321.223.547.528.678.915h.071c.152-.381.407-.684.767-.91.363-.229.793-.344 1.289-.344.63 0 1.145.2 1.543.598.398.398.598.98.598 1.744v4.597h-1.619v-4.348c0-.425-.113-.735-.339-.932a1.212 1.212 0 0 0-.83-.298c-.389 0-.694.121-.914.365-.217.241-.325.555-.325.941v4.272h-1.584v-4.414c0-.354-.107-.637-.321-.848-.211-.211-.487-.316-.829-.316-.232 0-.443.059-.633.178a1.24 1.24 0 0 0-.455.495c-.113.211-.17.458-.17.74v4.165h-1.614zm14.303.134c-.687 0-1.28-.142-1.779-.428a2.9 2.9 0 0 1-1.147-1.222c-.267-.529-.401-1.152-.401-1.868 0-.705.134-1.323.401-1.856a3.04 3.04 0 0 1 1.133-1.248c.485-.3 1.054-.451 1.708-.451.422 0 .821.069 1.195.206.378.133.711.341.999.624.292.282.521.642.687 1.079.167.434.25.951.25 1.552v.495h-5.615v-1.088h4.067a1.747 1.747 0 0 0-.2-.825 1.454 1.454 0 0 0-.549-.575 1.54 1.54 0 0 0-.812-.21c-.33 0-.619.08-.869.241-.25.157-.445.365-.584.624a1.797 1.797 0 0 0-.21.843v.95c0 .398.073.74.219 1.026.145.282.349.499.611.651.261.148.567.223.918.223.235 0 .448-.033.638-.098.19-.069.355-.168.495-.299.14-.131.245-.293.317-.486l1.507.169a2.356 2.356 0 0 1-.544 1.044 2.655 2.655 0 0 1-1.017.686c-.413.161-.886.241-1.418.241zm4.412-.134v-6.849h1.565v1.141h.071c.125-.395.339-.7.642-.914a1.77 1.77 0 0 1 1.048-.326c.09 0 .189.005.299.014.113.006.207.016.281.031v1.485a1.697 1.697 0 0 0-.325-.062 2.977 2.977 0 0 0-.424-.032c-.294 0-.559.064-.794.192a1.397 1.397 0 0 0-.548.522c-.134.223-.201.48-.201.771v4.027h-1.614zm7.676 2.712c-.58 0-1.078-.079-1.494-.236-.417-.155-.751-.363-1.004-.625a2.15 2.15 0 0 1-.526-.869l1.454-.353c.065.134.16.266.285.397.125.134.293.244.504.33.214.089.483.134.807.134.458 0 .837-.112 1.137-.334.301-.221.451-.583.451-1.089v-1.297h-.08a2.335 2.335 0 0 1-.366.512 1.866 1.866 0 0 1-.629.442c-.259.119-.584.178-.976.178a2.812 2.812 0 0 1-1.432-.37c-.425-.25-.764-.621-1.017-1.115-.25-.496-.374-1.118-.374-1.864 0-.752.124-1.387.374-1.904.253-.52.593-.914 1.021-1.182.429-.27.906-.406 1.432-.406.401 0 .731.069.99.206.262.133.47.295.624.486.155.187.272.364.353.53h.089v-1.132h1.592v6.961c0 .586-.14 1.07-.419 1.454-.28.383-.662.67-1.146.86-.485.191-1.035.286-1.65.286zm.013-4.076c.342 0 .633-.083.874-.25.241-.166.424-.406.549-.718.124-.312.187-.687.187-1.124 0-.431-.063-.808-.187-1.132a1.617 1.617 0 0 0-.545-.754c-.237-.181-.53-.272-.878-.272-.36 0-.66.094-.901.281a1.7 1.7 0 0 0-.544.771 3.124 3.124 0 0 0-.183 1.106c0 .42.061.787.183 1.102.125.312.308.556.549.731.243.173.542.259.896.259zm7.889 1.498c-.687 0-1.28-.142-1.779-.428a2.9 2.9 0 0 1-1.147-1.222c-.267-.529-.401-1.152-.401-1.868 0-.705.134-1.323.401-1.856a3.04 3.04 0 0 1 1.133-1.248c.485-.3 1.054-.451 1.708-.451.422 0 .821.069 1.195.206.378.133.711.341.999.624.292.282.521.642.687 1.079.167.434.25.951.25 1.552v.495h-5.615v-1.088h4.067a1.747 1.747 0 0 0-.2-.825 1.454 1.454 0 0 0-.549-.575 1.54 1.54 0 0 0-.812-.21c-.33 0-.619.08-.869.241-.25.157-.445.365-.584.624a1.797 1.797 0 0 0-.21.843v.95c0 .398.073.74.219 1.026.145.282.349.499.611.651.261.148.567.223.918.223.235 0 .448-.033.638-.098.19-.069.355-.168.495-.299.14-.131.245-.293.317-.486l1.507.169a2.356 2.356 0 0 1-.544 1.044 2.655 2.655 0 0 1-1.017.686c-.413.161-.886.241-1.418.241zm6.026-4.147v4.013h-1.614v-6.849h1.543v1.164h.08c.157-.384.409-.689.753-.915.348-.226.778-.339 1.289-.339.473 0 .885.101 1.236.304.353.202.627.495.82.878.196.384.293.849.29 1.396v4.361h-1.614v-4.111c0-.458-.119-.816-.357-1.075-.235-.259-.561-.388-.977-.388-.282 0-.533.062-.753.187a1.3 1.3 0 0 0-.513.531c-.122.232-.183.513-.183.843zm9.026 4.147c-.684 0-1.271-.15-1.761-.45a3.008 3.008 0 0 1-1.129-1.244c-.261-.533-.392-1.145-.392-1.838 0-.695.134-1.309.401-1.842a2.993 2.993 0 0 1 1.133-1.248c.49-.3 1.07-.451 1.739-.451.556 0 1.048.103 1.476.308.431.202.775.489 1.03.861.256.368.402.8.437 1.293h-1.543a1.472 1.472 0 0 0-.446-.825c-.231-.223-.542-.334-.932-.334-.33 0-.619.089-.869.267-.25.176-.445.428-.584.758-.137.33-.206.726-.206 1.187 0 .466.069.868.206 1.204.136.333.328.59.575.771.25.178.542.268.878.268.238 0 .451-.045.638-.134.19-.092.349-.225.477-.397.128-.172.216-.382.263-.629h1.543a2.681 2.681 0 0 1-.428 1.289 2.52 2.52 0 0 1-1.008.874c-.425.208-.924.312-1.498.312zm5.263 2.435c-.22 0-.423-.018-.611-.053a2.328 2.328 0 0 1-.441-.116l.375-1.258c.234.069.444.101.628.098a.768.768 0 0 0 .486-.174c.143-.11.264-.294.362-.553l.138-.37-2.484-6.992h1.712l1.579 5.173h.071l1.584-5.173h1.717l-2.743 7.679a3.081 3.081 0 0 1-.508.932c-.212.262-.47.461-.776.598-.304.139-.666.209-1.089.209zm12.817-9.418v1.248h-4.049v-1.248h4.049zm-3.037 6.849v-7.496c0-.461.095-.844.286-1.151a1.8 1.8 0 0 1 .776-.686 2.507 2.507 0 0 1 1.079-.228 3.7 3.7 0 0 1 .745.067c.217.045.377.085.481.12l-.321 1.249a2.764 2.764 0 0 0-.258-.062 1.557 1.557 0 0 0-.348-.036c-.301 0-.513.073-.638.219-.122.142-.183.347-.183.615v7.389h-1.619zm8.667-2.88v-3.969h1.615v6.849h-1.566v-1.217h-.071a2.058 2.058 0 0 1-.762.941c-.351.244-.784.366-1.298.366-.449 0-.846-.1-1.191-.299a2.079 2.079 0 0 1-.803-.879c-.193-.386-.289-.853-.289-1.4v-4.361h1.614v4.111c0 .434.119.779.357 1.035.237.256.55.383.936.383.238 0 .468-.058.691-.173a1.41 1.41 0 0 0 .549-.518c.146-.232.218-.522.218-.869zm4.889-1.133v4.013h-1.614v-6.849h1.543v1.164h.08a1.96 1.96 0 0 1 .754-.915c.348-.226.777-.339 1.289-.339.472 0 .884.101 1.235.304.354.202.627.495.821.878.196.384.292.849.289 1.396v4.361h-1.614v-4.111c0-.458-.119-.816-.357-1.075-.235-.259-.56-.388-.976-.388-.283 0-.534.062-.754.187a1.3 1.3 0 0 0-.513.531c-.122.232-.183.513-.183.843zm8.58 4.134a2.585 2.585 0 0 1-1.444-.415c-.426-.276-.762-.678-1.008-1.204-.247-.526-.37-1.165-.37-1.918 0-.761.124-1.403.374-1.926.253-.526.593-.923 1.021-1.191.429-.27.906-.406 1.432-.406.401 0 .731.069.99.206.259.133.464.295.615.486.152.187.269.364.353.53h.067v-3.416h1.618v9.133h-1.587v-1.079h-.098a2.757 2.757 0 0 1-.362.531 1.983 1.983 0 0 1-.624.473c-.259.13-.584.196-.977.196zm.451-1.325c.342 0 .633-.092.874-.276a1.72 1.72 0 0 0 .548-.781c.125-.333.188-.72.188-1.163 0-.443-.063-.828-.188-1.156a1.633 1.633 0 0 0-.544-.762c-.237-.181-.53-.272-.878-.272-.36 0-.66.094-.901.281a1.699 1.699 0 0 0-.544.776c-.122.33-.183.707-.183 1.133 0 .428.061.81.183 1.146.125.333.308.596.548.789.244.19.543.285.897.285z"/><path fill="#fff" fill-rule="evenodd" d="M465.232 75.395c0 7.18-5.82 13-13 13-7.179 0-13-5.82-13-13s5.821-13 13-13c7.18 0 13 5.82 13 13zm-8.679 5.572c.346 0 .632-.282.588-.626a4.951 4.951 0 0 0-9.824 0c-.044.344.241.626.588.626h8.648zm-9.236-9.279c-.044-.344.241-.626.588-.626h8.648c.346 0 .632.282.588.626a4.951 4.951 0 0 1-9.824 0z" clip-rule="evenodd"/><path fill="#fff" d="M459.178 238.447a.654.654 0 0 0-.294-.491c-.173-.117-.39-.176-.652-.176-.187 0-.349.03-.486.089a.75.75 0 0 0-.318.241.566.566 0 0 0-.112.346c0 .108.025.202.076.281.052.079.12.145.203.198.085.052.175.096.272.132.096.034.189.062.279.085l.445.116c.146.035.296.084.449.144.153.061.295.142.426.241.13.1.236.223.316.37.082.148.123.324.123.529 0 .259-.067.488-.201.689a1.337 1.337 0 0 1-.577.475c-.252.116-.556.174-.912.174a2.21 2.21 0 0 1-.888-.163 1.36 1.36 0 0 1-.586-.462 1.337 1.337 0 0 1-.234-.713h.691a.706.706 0 0 0 .16.412c.096.109.217.19.364.243.149.052.311.079.488.079.195 0 .368-.031.52-.092a.869.869 0 0 0 .361-.259.61.61 0 0 0 .132-.39.48.48 0 0 0-.116-.332.862.862 0 0 0-.31-.214 2.975 2.975 0 0 0-.44-.149l-.539-.148c-.366-.099-.656-.246-.87-.439-.212-.193-.319-.449-.319-.767 0-.263.072-.493.214-.689.143-.196.336-.349.58-.457.244-.11.519-.165.825-.165.309 0 .582.054.818.163.238.108.426.258.562.448.137.189.208.406.214.651h-.664zm2.401 3.367h-.731l1.643-4.567h.796l1.644 4.567h-.732l-1.291-3.737h-.035l-1.294 3.737zm.123-1.788h2.373v.579h-2.373v-.579zm4.311-2.779 1.271 3.72h.052l1.271-3.72h.744l-1.643 4.567h-.796l-1.643-4.567h.744zm4.5 4.567v-4.567h2.863v.593h-2.174v1.392h2.025v.591h-2.025v1.398h2.201v.593h-2.89z" opacity=".6"/><path stroke="#fff" stroke-linecap="round" stroke-linejoin="round" stroke-width=".628" d="M445.981 235.797c0 .52-1.16.941-2.59.941-1.431 0-2.59-.421-2.59-.941m5.18 0c0-.521-1.16-.942-2.59-.942-1.431 0-2.59.421-2.59.942m5.18 0v2.099c-.575.172-.942.434-.942.726m-4.238-2.825v5.651c0 .52 1.159.942 2.59.942.626 0 1.2-.081 1.648-.216v-3.552m-4.238-.942c0 .52 1.159.942 2.59.942.626 0 1.2-.081 1.648-.215m-4.238 1.157c0 .52 1.159.942 2.59.942.626 0 1.2-.081 1.648-.215m5.18-1.669c0 .52-1.159.942-2.59.942-1.43 0-2.59-.422-2.59-.942m5.18 0c0-.52-1.159-.942-2.59-.942-1.43 0-2.59.422-2.59.942m5.18 0v3.768c0 .52-1.159.941-2.59.941-1.43 0-2.59-.421-2.59-.941v-3.768m5.18 1.884c0 .52-1.159.942-2.59.942-1.43 0-2.59-.422-2.59-.942" opacity=".6"/><path stroke="#fff" stroke-linecap="round" stroke-linejoin="round" stroke-width=".942" d="m646.024 236.477-4.118 4.117c-.207.207-.31.311-.43.35a.524.524 0 0 1-.323 0c-.12-.039-.223-.143-.431-.35l-1.432-1.432c-.207-.207-.311-.311-.43-.35a.527.527 0 0 0-.324 0c-.119.039-.223.143-.43.35l-2.547 2.547m10.465-5.232h-3.663m3.663 0v3.663" opacity=".6"/><path fill="#fff" d="M653.283 237.247v4.567h-.69v-4.567h.69zm5.191 0v4.567h-.633l-2.321-3.349h-.043v3.349h-.689v-4.567h.638l2.323 3.354h.043v-3.354h.682zm1.907 0 1.271 3.72h.051l1.271-3.72h.745l-1.644 4.567h-.796l-1.643-4.567h.745zm4.499 4.567v-4.567h2.863v.593h-2.174v1.392h2.025v.591h-2.025v1.398h2.201v.593h-2.89zm6.777-3.367a.652.652 0 0 0-.295-.491c-.172-.117-.389-.176-.651-.176-.187 0-.349.03-.486.089a.754.754 0 0 0-.319.241.572.572 0 0 0-.111.346c0 .108.025.202.076.281a.662.662 0 0 0 .203.198c.084.052.175.096.272.132.096.034.189.062.278.085l.446.116c.146.035.295.084.448.144.154.061.296.142.426.241a1.074 1.074 0 0 1 .44.899c0 .259-.067.488-.201.689a1.334 1.334 0 0 1-.578.475c-.251.116-.555.174-.912.174-.341 0-.637-.054-.887-.163a1.36 1.36 0 0 1-.586-.462 1.33 1.33 0 0 1-.235-.713h.692a.706.706 0 0 0 .16.412.86.86 0 0 0 .364.243c.148.052.311.079.488.079.195 0 .368-.031.52-.092a.869.869 0 0 0 .361-.259.614.614 0 0 0 .131-.39.475.475 0 0 0-.116-.332.845.845 0 0 0-.31-.214 2.922 2.922 0 0 0-.439-.149l-.539-.148c-.366-.099-.656-.246-.87-.439-.213-.193-.319-.449-.319-.767 0-.263.071-.493.214-.689.143-.196.336-.349.58-.457.244-.11.519-.165.825-.165.309 0 .582.054.818.163.238.108.425.258.562.448.137.189.208.406.214.651h-.664zm1.827-.607v-.593h3.534v.593h-1.425v3.974h-.686v-3.974h-1.423z" opacity=".6"/><path fill="#fff" d="M635.528 119.86v-9.133h1.654v3.867h4.232v-3.867h1.659v9.133h-1.659v-3.879h-4.232v3.879h-1.654zm12.261.134c-.669 0-1.248-.147-1.739-.441a3.007 3.007 0 0 1-1.142-1.236c-.267-.529-.401-1.147-.401-1.855 0-.707.134-1.327.401-1.859a2.993 2.993 0 0 1 1.142-1.24c.491-.294 1.07-.442 1.739-.442s1.249.148 1.74.442c.49.294.869.707 1.137 1.24.27.532.406 1.152.406 1.859 0 .708-.136 1.326-.406 1.855-.268.53-.647.941-1.137 1.236-.491.294-1.071.441-1.74.441zm.009-1.293c.363 0 .666-.1.91-.299.244-.202.425-.473.544-.811.122-.339.183-.717.183-1.133a3.34 3.34 0 0 0-.183-1.137 1.797 1.797 0 0 0-.544-.816c-.244-.203-.547-.304-.91-.304-.371 0-.681.101-.927.304a1.829 1.829 0 0 0-.549.816 3.417 3.417 0 0 0-.178 1.137c0 .416.059.794.178 1.133.122.338.305.609.549.811.246.199.556.299.927.299zm4.644 1.159v-6.849h1.543v1.164h.08c.143-.393.379-.699.709-.919.33-.223.724-.335 1.182-.335.464 0 .855.113 1.173.339.321.223.547.528.678.915h.071c.152-.381.407-.684.767-.91.363-.229.792-.344 1.289-.344.63 0 1.145.2 1.543.598.398.398.597.98.597 1.744v4.597h-1.618v-4.348c0-.425-.113-.735-.339-.932a1.212 1.212 0 0 0-.83-.298c-.389 0-.694.121-.914.365-.217.241-.326.555-.326.941v4.272h-1.583v-4.414c0-.354-.107-.637-.321-.848-.211-.211-.487-.316-.829-.316-.232 0-.443.059-.633.178a1.24 1.24 0 0 0-.455.495c-.113.211-.17.458-.17.74v4.165h-1.614zm14.303.134c-.687 0-1.28-.142-1.78-.428a2.904 2.904 0 0 1-1.146-1.222c-.267-.529-.401-1.152-.401-1.868 0-.705.134-1.323.401-1.856a3.033 3.033 0 0 1 1.133-1.248c.485-.3 1.054-.451 1.708-.451.422 0 .821.069 1.195.206.378.133.711.341.999.624.291.282.52.642.687 1.079.166.434.25.951.25 1.552v.495h-5.615v-1.088h4.067a1.736 1.736 0 0 0-.201-.825 1.445 1.445 0 0 0-.548-.575 1.54 1.54 0 0 0-.812-.21c-.33 0-.62.08-.869.241-.25.157-.445.365-.585.624a1.808 1.808 0 0 0-.209.843v.95c0 .398.073.74.218 1.026.146.282.35.499.611.651.262.148.568.223.919.223.235 0 .447-.033.638-.098.19-.069.355-.168.495-.299a1.24 1.24 0 0 0 .316-.486l1.508.169a2.356 2.356 0 0 1-.544 1.044 2.655 2.655 0 0 1-1.017.686c-.413.161-.886.241-1.418.241zm10.068-.013a2.59 2.59 0 0 1-1.445-.415c-.425-.276-.761-.678-1.007-1.204-.247-.526-.371-1.165-.371-1.918 0-.761.125-1.403.375-1.926.253-.526.593-.923 1.021-1.191.428-.27.906-.406 1.432-.406.401 0 .731.069.99.206.258.133.464.295.615.486.152.187.269.364.353.53h.066v-3.416h1.619v9.133h-1.587v-1.079h-.098a2.757 2.757 0 0 1-.362.531 1.983 1.983 0 0 1-.624.473c-.259.13-.584.196-.977.196zm.451-1.325c.342 0 .633-.092.874-.276.241-.187.423-.448.548-.781.125-.333.188-.72.188-1.163 0-.443-.063-.828-.188-1.156a1.64 1.64 0 0 0-.544-.762c-.238-.181-.53-.272-.878-.272-.36 0-.66.094-.901.281a1.699 1.699 0 0 0-.544.776c-.122.33-.183.707-.183 1.133 0 .428.061.81.183 1.146.125.333.308.596.548.789.244.19.543.285.897.285zm7.905 1.338c-.668 0-1.248-.147-1.739-.441a2.998 2.998 0 0 1-1.141-1.236c-.268-.529-.402-1.147-.402-1.855 0-.707.134-1.327.402-1.859.27-.533.651-.946 1.141-1.24.491-.294 1.071-.442 1.739-.442.669 0 1.249.148 1.74.442.49.294.869.707 1.137 1.24.27.532.406 1.152.406 1.859 0 .708-.136 1.326-.406 1.855-.268.53-.647.941-1.137 1.236-.491.294-1.071.441-1.74.441zm.009-1.293c.363 0 .666-.1.91-.299.244-.202.425-.473.544-.811.122-.339.183-.717.183-1.133a3.34 3.34 0 0 0-.183-1.137 1.797 1.797 0 0 0-.544-.816c-.244-.203-.547-.304-.91-.304-.371 0-.68.101-.927.304a1.829 1.829 0 0 0-.549.816 3.417 3.417 0 0 0-.178 1.137c0 .416.059.794.178 1.133.122.338.305.609.549.811.247.199.556.299.927.299zm5.861 1.159-1.935-6.849h1.645l1.205 4.816h.062l1.231-4.816h1.628l1.23 4.789h.067l1.187-4.789h1.65l-1.94 6.849h-1.682l-1.284-4.629h-.094l-1.284 4.629h-1.686zm10.711-4.013v4.013h-1.614v-6.849h1.543v1.164h.08a1.96 1.96 0 0 1 .754-.915c.348-.226.777-.339 1.289-.339.472 0 .884.101 1.235.304.354.202.627.495.82.878.197.384.293.849.29 1.396v4.361h-1.614v-4.111c0-.458-.119-.816-.357-1.075-.235-.259-.56-.388-.977-.388-.282 0-.533.062-.753.187a1.3 1.3 0 0 0-.513.531c-.122.232-.183.513-.183.843zm-66.294 21.582v-9.418h1.588v1.132h.094c.083-.166.2-.343.352-.53.152-.191.357-.353.615-.486.259-.137.589-.206.99-.206.53 0 1.007.136 1.432.406.428.268.767.665 1.017 1.191.252.523.379 1.165.379 1.926 0 .753-.124 1.392-.37 1.918-.247.526-.583.928-1.008 1.204a2.588 2.588 0 0 1-1.445.415c-.393 0-.718-.066-.977-.196a1.995 1.995 0 0 1-.624-.473 2.996 2.996 0 0 1-.361-.531h-.067v3.648h-1.615zm1.584-5.993c0 .443.062.83.187 1.163.128.333.311.594.548.781a1.4 1.4 0 0 0 .874.276c.357 0 .656-.095.897-.285.241-.193.422-.456.544-.789.125-.336.187-.718.187-1.146 0-.426-.061-.803-.183-1.133a1.699 1.699 0 0 0-.544-.776c-.241-.187-.541-.281-.901-.281-.344 0-.637.091-.878.272a1.67 1.67 0 0 0-.549.762 3.336 3.336 0 0 0-.182 1.156zm8.236 3.563a2.86 2.86 0 0 1-1.172-.232 1.919 1.919 0 0 1-.821-.696c-.199-.306-.299-.684-.299-1.133 0-.386.072-.706.214-.958.143-.253.338-.455.584-.607.247-.152.525-.266.834-.343.313-.081.635-.139.968-.174.401-.042.727-.079.977-.112.249-.035.431-.089.544-.16.116-.075.174-.189.174-.344v-.026c0-.336-.1-.596-.299-.781-.199-.184-.486-.276-.861-.276-.395 0-.709.086-.941.258a1.29 1.29 0 0 0-.464.611l-1.507-.214a2.4 2.4 0 0 1 .589-1.043 2.557 2.557 0 0 1 1.003-.634 3.86 3.86 0 0 1 1.311-.214c.33 0 .659.039.986.116.327.078.626.205.896.384.271.175.488.415.651.718.167.303.25.682.25 1.137v4.584h-1.552v-.94h-.053c-.098.19-.237.368-.415.535a2.013 2.013 0 0 1-.665.397 2.677 2.677 0 0 1-.932.147zm.42-1.187c.324 0 .605-.063.842-.191.238-.131.421-.304.549-.518.131-.214.196-.447.196-.7v-.807a.757.757 0 0 1-.258.116 3.637 3.637 0 0 1-.402.094c-.148.026-.296.05-.441.071l-.379.054a2.797 2.797 0 0 0-.647.16 1.07 1.07 0 0 0-.45.312.765.765 0 0 0-.165.509c0 .297.108.521.325.673.217.152.494.227.83.227zm5.579 3.617c-.22 0-.424-.018-.611-.053a2.32 2.32 0 0 1-.442-.116l.375-1.258c.235.069.444.101.628.098a.773.773 0 0 0 .487-.174c.142-.11.263-.294.361-.553l.138-.37-2.484-6.992h1.713l1.578 5.173h.072l1.583-5.173h1.717l-2.743 7.679a3.081 3.081 0 0 1-.508.932c-.211.262-.47.461-.776.598-.304.139-.666.209-1.088.209zm6.232-2.569v-6.849h1.543v1.164h.08c.143-.393.379-.699.709-.919.33-.223.724-.335 1.182-.335.464 0 .855.113 1.173.339.321.223.547.528.678.915h.071c.152-.381.407-.684.767-.91.363-.229.792-.344 1.289-.344.63 0 1.144.2 1.543.598.398.398.597.98.597 1.744v4.597h-1.618v-4.348c0-.425-.113-.735-.339-.932a1.212 1.212 0 0 0-.83-.298c-.389 0-.694.121-.914.365-.217.241-.326.555-.326.941v4.272h-1.583v-4.414c0-.354-.107-.637-.321-.848-.211-.211-.487-.316-.829-.316-.232 0-.443.059-.634.178-.19.116-.341.281-.454.495-.113.211-.17.458-.17.74v4.165h-1.614zm14.303.134c-.687 0-1.28-.142-1.78-.428a2.904 2.904 0 0 1-1.146-1.222c-.267-.529-.401-1.152-.401-1.868 0-.705.134-1.323.401-1.856a3.033 3.033 0 0 1 1.133-1.248c.485-.3 1.054-.451 1.708-.451.422 0 .821.069 1.195.206.378.133.711.341.999.624.291.282.52.642.687 1.079.166.434.25.951.25 1.552v.495h-5.615v-1.088h4.067a1.736 1.736 0 0 0-.201-.825 1.445 1.445 0 0 0-.548-.575 1.542 1.542 0 0 0-.812-.21c-.33 0-.62.08-.869.241-.25.157-.445.365-.585.624a1.808 1.808 0 0 0-.209.843v.95c0 .398.073.74.218 1.026.146.282.35.499.611.651.262.148.568.223.919.223.235 0 .447-.033.638-.098.19-.069.355-.168.495-.299a1.25 1.25 0 0 0 .316-.486l1.508.169a2.356 2.356 0 0 1-.544 1.044 2.655 2.655 0 0 1-1.017.686c-.413.161-.886.241-1.418.241zm6.026-4.147v4.013h-1.615v-6.849h1.543v1.164h.081c.157-.384.408-.689.753-.915.348-.226.778-.339 1.289-.339.473 0 .885.101 1.235.304.354.202.628.495.821.878.196.384.293.849.29 1.396v4.361h-1.615v-4.111c0-.458-.118-.816-.356-1.075-.235-.259-.561-.388-.977-.388a1.5 1.5 0 0 0-.754.187 1.292 1.292 0 0 0-.512.531c-.122.232-.183.513-.183.843zm9.458-2.836v1.248h-3.937v-1.248h3.937zm-2.965-1.642h1.614v6.431c0 .217.033.384.098.5.069.113.158.19.268.232.11.041.232.062.366.062.101 0 .193-.007.276-.022.086-.015.152-.029.196-.04l.272 1.262a3.091 3.091 0 0 1-.95.16 2.625 2.625 0 0 1-1.092-.183 1.702 1.702 0 0 1-.772-.633c-.187-.285-.279-.642-.276-1.07v-6.699z"/><circle cx="646" cy="76" r="13" fill="#fff"/><path fill="#378FC0" d="M641.668 74.227a1.3 1.3 0 0 1 .461-.993l3.367-2.842a1.3 1.3 0 0 1 1.677 0l3.367 2.842a1.3 1.3 0 0 1 .461.993v4.824a1.3 1.3 0 0 1-1.299 1.3h-6.734a1.3 1.3 0 0 1-1.3-1.3v-4.824z"/><path stroke="#fff" stroke-linecap="round" stroke-linejoin="round" stroke-width=".942" d="m838.164 236.477-4.117 4.117c-.207.207-.311.311-.43.35a.527.527 0 0 1-.324 0c-.119-.039-.223-.143-.43-.35l-1.432-1.432c-.207-.207-.311-.311-.431-.35a.524.524 0 0 0-.323 0c-.119.039-.223.143-.43.35l-2.548 2.547m10.465-5.232h-3.662m3.662 0v3.663" opacity=".6"/><path fill="#fff" d="M845.423 237.247v4.567h-.689v-4.567h.689zm5.192 0v4.567h-.634l-2.321-3.349h-.042v3.349h-.689v-4.567h.638l2.323 3.354h.042v-3.354h.683zm1.906 0 1.271 3.72h.051l1.271-3.72h.745l-1.643 4.567h-.796l-1.644-4.567h.745zm4.5 4.567v-4.567h2.863v.593h-2.174v1.392h2.025v.591h-2.025v1.398h2.201v.593h-2.89zm6.776-3.367a.651.651 0 0 0-.294-.491c-.172-.117-.389-.176-.651-.176-.187 0-.349.03-.486.089a.754.754 0 0 0-.319.241.573.573 0 0 0-.112.346c0 .108.026.202.076.281.052.079.12.145.203.198.085.052.176.096.272.132.097.034.19.062.279.085l.446.116c.146.035.295.084.448.144.153.061.295.142.426.241.131.1.236.223.317.37.081.148.122.324.122.529 0 .259-.067.488-.2.689a1.34 1.34 0 0 1-.578.475c-.251.116-.555.174-.912.174-.342 0-.638-.054-.887-.163a1.364 1.364 0 0 1-.587-.462 1.337 1.337 0 0 1-.234-.713h.691a.707.707 0 0 0 .161.412c.095.109.216.19.363.243.149.052.312.079.489.079.194 0 .368-.031.519-.092a.862.862 0 0 0 .361-.259.61.61 0 0 0 .132-.39.48.48 0 0 0-.116-.332.853.853 0 0 0-.31-.214 2.96 2.96 0 0 0-.439-.149l-.54-.148c-.365-.099-.655-.246-.869-.439-.213-.193-.319-.449-.319-.767 0-.263.071-.493.214-.689.142-.196.336-.349.58-.457a1.98 1.98 0 0 1 .825-.165c.309 0 .582.054.818.163.238.108.425.258.562.448.137.189.208.406.214.651h-.665zm1.828-.607v-.593h3.534v.593h-1.425v3.974h-.687v-3.974h-1.422z" opacity=".6"/><path fill="#fff" d="M822.53 119.86v-9.133h3.425c.701 0 1.29.122 1.766.366.478.244.84.586 1.083 1.026.247.437.37.947.37 1.529 0 .586-.124 1.094-.374 1.525a2.47 2.47 0 0 1-1.093.995c-.481.232-1.073.348-1.775.348h-2.439v-1.374h2.216c.411 0 .747-.056 1.008-.169a1.2 1.2 0 0 0 .58-.504c.128-.223.192-.497.192-.821 0-.324-.064-.6-.192-.829a1.222 1.222 0 0 0-.584-.526c-.262-.122-.599-.183-1.013-.183h-1.516v7.75h-1.654zm4.718-4.138 2.261 4.138h-1.846l-2.221-4.138h1.806zm6.312 4.272c-.686 0-1.279-.142-1.779-.428a2.904 2.904 0 0 1-1.146-1.222c-.268-.529-.401-1.152-.401-1.868 0-.705.133-1.323.401-1.856a3.033 3.033 0 0 1 1.133-1.248c.484-.3 1.054-.451 1.708-.451.422 0 .82.069 1.195.206.377.133.71.341.999.624.291.282.52.642.687 1.079.166.434.249.951.249 1.552v.495h-5.614v-1.088h4.067a1.736 1.736 0 0 0-.201-.825 1.451 1.451 0 0 0-.548-.575 1.542 1.542 0 0 0-.812-.21c-.33 0-.62.08-.87.241a1.659 1.659 0 0 0-.584.624 1.796 1.796 0 0 0-.209.843v.95c0 .398.072.74.218 1.026.146.282.349.499.611.651.262.148.568.223.919.223.235 0 .447-.033.637-.098.191-.069.356-.168.496-.299a1.25 1.25 0 0 0 .316-.486l1.507.169a2.346 2.346 0 0 1-.544 1.044 2.643 2.643 0 0 1-1.016.686c-.414.161-.886.241-1.419.241zm7.833-6.983v1.248h-3.938v-1.248h3.938zm-2.966-1.642h1.614v6.431c0 .217.033.384.098.5.069.113.158.19.268.232.11.041.232.062.366.062.101 0 .193-.007.276-.022.086-.015.152-.029.196-.04l.272 1.262a3.09 3.09 0 0 1-.949.16 2.627 2.627 0 0 1-1.093-.183 1.702 1.702 0 0 1-.772-.633c-.187-.285-.279-.642-.276-1.07v-6.699zm4.316 8.491v-6.849h1.614v6.849h-1.614zm.811-7.822a.941.941 0 0 1-.66-.254.82.82 0 0 1-.276-.62c0-.243.092-.45.276-.62a.936.936 0 0 1 .66-.258c.259 0 .479.086.66.258a.81.81 0 0 1 .277.62.817.817 0 0 1-.277.62.928.928 0 0 1-.66.254zm2.463 7.822v-6.849h1.565v1.141h.072c.125-.395.339-.7.642-.914a1.769 1.769 0 0 1 1.048-.326c.089 0 .189.005.299.014.113.006.206.016.281.031v1.485a1.711 1.711 0 0 0-.326-.062 2.963 2.963 0 0 0-.423-.032 1.63 1.63 0 0 0-.794.192 1.407 1.407 0 0 0-.749 1.293v4.027h-1.615zm7.73.134c-.687 0-1.28-.142-1.78-.428a2.904 2.904 0 0 1-1.146-1.222c-.267-.529-.401-1.152-.401-1.868 0-.705.134-1.323.401-1.856a3.033 3.033 0 0 1 1.133-1.248c.485-.3 1.054-.451 1.708-.451.422 0 .821.069 1.195.206.378.133.711.341.999.624.291.282.52.642.687 1.079.166.434.25.951.25 1.552v.495h-5.615v-1.088h4.067a1.736 1.736 0 0 0-.201-.825 1.445 1.445 0 0 0-.548-.575 1.542 1.542 0 0 0-.812-.21c-.33 0-.62.08-.869.241-.25.157-.445.365-.585.624a1.808 1.808 0 0 0-.209.843v.95c0 .398.073.74.218 1.026.146.282.35.499.611.651.262.148.568.223.919.223.235 0 .447-.033.638-.098.19-.069.355-.168.495-.299a1.25 1.25 0 0 0 .316-.486l1.508.169a2.356 2.356 0 0 1-.544 1.044 2.655 2.655 0 0 1-1.017.686c-.413.161-.886.241-1.418.241zm4.411-.134v-6.849h1.543v1.164h.081c.142-.393.379-.699.709-.919.33-.223.724-.335 1.181-.335.464 0 .855.113 1.173.339.321.223.547.528.678.915h.072c.151-.381.407-.684.767-.91.362-.229.792-.344 1.288-.344.631 0 1.145.2 1.543.598.399.398.598.98.598 1.744v4.597h-1.619v-4.348c0-.425-.113-.735-.339-.932a1.21 1.21 0 0 0-.829-.298c-.39 0-.694.121-.914.365-.217.241-.326.555-.326.941v4.272h-1.583v-4.414c0-.354-.107-.637-.321-.848-.211-.211-.488-.316-.83-.316-.232 0-.443.059-.633.178-.19.116-.342.281-.455.495a1.545 1.545 0 0 0-.169.74v4.165h-1.615zm14.303.134c-.686 0-1.28-.142-1.779-.428a2.892 2.892 0 0 1-1.146-1.222c-.268-.529-.402-1.152-.402-1.868 0-.705.134-1.323.402-1.856.27-.535.648-.951 1.133-1.248.484-.3 1.053-.451 1.708-.451.422 0 .82.069 1.195.206.377.133.71.341.999.624.291.282.52.642.686 1.079.167.434.25.951.25 1.552v.495h-5.614v-1.088h4.067a1.736 1.736 0 0 0-.201-.825 1.454 1.454 0 0 0-.549-.575 1.536 1.536 0 0 0-.811-.21c-.33 0-.62.08-.87.241-.25.157-.444.365-.584.624a1.797 1.797 0 0 0-.21.843v.95c0 .398.073.74.219 1.026.146.282.349.499.611.651.262.148.568.223.919.223.234 0 .447-.033.637-.098.191-.069.356-.168.495-.299.14-.131.246-.293.317-.486l1.507.169a2.346 2.346 0 0 1-.544 1.044 2.64 2.64 0 0 1-1.017.686c-.413.161-.886.241-1.418.241zm6.026-4.147v4.013h-1.614v-6.849h1.543v1.164h.08a1.96 1.96 0 0 1 .754-.915c.348-.226.777-.339 1.289-.339.472 0 .884.101 1.235.304.354.202.627.495.821.878.196.384.292.849.289 1.396v4.361h-1.614v-4.111c0-.458-.119-.816-.357-1.075-.235-.259-.56-.388-.976-.388-.283 0-.534.062-.754.187a1.3 1.3 0 0 0-.513.531c-.122.232-.183.513-.183.843zm9.459-2.836v1.248h-3.938v-1.248h3.938zm-2.966-1.642h1.615v6.431c0 .217.032.384.098.5.068.113.157.19.267.232.11.041.232.062.366.062.101 0 .193-.007.277-.022.086-.015.151-.029.196-.04l.272 1.262a3.1 3.1 0 0 1-.95.16 2.63 2.63 0 0 1-1.093-.183 1.694 1.694 0 0 1-.771-.633c-.187-.285-.28-.642-.277-1.07v-6.699z"/><circle cx="833.557" cy="74.581" r="13.186" fill="#fff"/><path fill="#409CA7" d="M833.557 68.302a6.907 6.907 0 0 0-6.907 6.907h13.814a6.907 6.907 0 0 0-6.907-6.907zm-8.789 8.163h17.581v.628h-17.581z"/><path fill="#fff" d="M1776.95 119.86v-9.133h1.65v4.197h.11l3.56-4.197h2.03l-3.54 4.099 3.57 5.034h-1.99l-2.73-3.915-1.01 1.195v2.72h-1.65zm8.85 0v-6.849h1.62v6.849h-1.62zm.81-7.822a.959.959 0 0 1-.66-.254.828.828 0 0 1-.27-.62c0-.243.09-.45.27-.62a.954.954 0 0 1 .66-.258c.26 0 .48.086.66.258.19.17.28.377.28.62 0 .241-.09.448-.28.62-.18.17-.4.254-.66.254zm5.01 7.943c-.54 0-1.02-.138-1.45-.415-.42-.276-.76-.678-1-1.204-.25-.526-.37-1.165-.37-1.918 0-.761.12-1.403.37-1.926.25-.526.59-.923 1.02-1.191.43-.27.91-.406 1.43-.406.4 0 .73.069.99.206.26.133.47.295.62.486.15.187.27.364.35.53h.07v-3.416h1.62v9.133h-1.59v-1.079h-.1c-.08.167-.2.344-.36.531a2.11 2.11 0 0 1-.62.473c-.26.13-.59.196-.98.196zm.45-1.325c.34 0 .63-.092.87-.276.24-.187.43-.448.55-.781.13-.333.19-.72.19-1.163 0-.443-.06-.828-.19-1.156-.12-.327-.3-.581-.54-.762-.24-.181-.53-.272-.88-.272-.36 0-.66.094-.9.281-.24.187-.42.446-.55.776-.12.33-.18.707-.18 1.133 0 .428.06.81.18 1.146.13.333.31.596.55.789.25.19.55.285.9.285zm10.33-3.835-1.47.161a1.216 1.216 0 0 0-.22-.419 1.09 1.09 0 0 0-.41-.317c-.17-.08-.38-.121-.63-.121-.34 0-.62.073-.85.219-.23.146-.34.334-.33.566-.01.2.07.362.21.486.16.125.41.228.75.308l1.17.25c.65.14 1.13.361 1.45.664.31.304.48.701.48 1.191 0 .431-.13.812-.38 1.142-.25.327-.59.582-1.03.767-.44.184-.95.276-1.52.276-.84 0-1.51-.175-2.02-.526a2.134 2.134 0 0 1-.92-1.476l1.58-.152c.07.309.22.543.45.7.23.158.54.237.91.237.38 0 .69-.079.92-.237.24-.157.35-.352.35-.584a.607.607 0 0 0-.22-.486c-.15-.128-.38-.226-.7-.294l-1.17-.245c-.65-.137-1.14-.368-1.46-.692-.31-.327-.47-.74-.46-1.239-.01-.423.11-.788.34-1.098.23-.312.56-.552.98-.722.41-.172.9-.259 1.44-.259.81 0 1.44.171 1.9.513.46.342.75.804.86 1.387zm7.58 5.173c-.68 0-1.27-.15-1.76-.45a3.03 3.03 0 0 1-1.13-1.244c-.26-.533-.39-1.145-.39-1.838 0-.695.13-1.309.4-1.842.27-.535.65-.951 1.13-1.248.49-.3 1.07-.451 1.74-.451.56 0 1.05.103 1.48.308.43.202.77.489 1.03.861.26.368.4.8.44 1.293h-1.55c-.06-.33-.21-.605-.44-.825-.23-.223-.54-.334-.93-.334-.33 0-.62.089-.87.267-.25.176-.45.428-.59.758-.13.33-.2.726-.2 1.187 0 .466.07.868.2 1.204.14.333.33.59.58.771.25.178.54.268.88.268.23 0 .45-.045.63-.134.19-.092.35-.225.48-.397a1.4 1.4 0 0 0 .26-.629h1.55c-.04.485-.18.914-.43 1.289-.25.372-.58.663-1.01.874-.42.208-.92.312-1.5.312zm7.25 0c-.67 0-1.25-.147-1.74-.441a2.995 2.995 0 0 1-1.14-1.236c-.27-.529-.4-1.147-.4-1.855 0-.707.13-1.327.4-1.859.27-.533.65-.946 1.14-1.24.49-.294 1.07-.442 1.74-.442.67 0 1.25.148 1.74.442.49.294.87.707 1.14 1.24.27.532.4 1.152.4 1.859 0 .708-.13 1.326-.4 1.855-.27.53-.65.941-1.14 1.236-.49.294-1.07.441-1.74.441zm.01-1.293c.36 0 .67-.1.91-.299.24-.202.42-.473.54-.811.12-.339.19-.717.19-1.133 0-.419-.07-.798-.19-1.137a1.83 1.83 0 0 0-.54-.816c-.24-.203-.55-.304-.91-.304-.37 0-.68.101-.93.304-.24.202-.43.474-.55.816a3.39 3.39 0 0 0-.18 1.137c0 .416.06.794.18 1.133.12.338.31.609.55.811.25.199.56.299.93.299zm6.26-7.974v9.133h-1.62v-9.133h1.62zm3.27 0v9.133h-1.61v-9.133h1.61zm4.69 9.267c-.68 0-1.28-.142-1.78-.428a2.94 2.94 0 0 1-1.14-1.222c-.27-.529-.4-1.152-.4-1.868 0-.705.13-1.323.4-1.856.27-.535.65-.951 1.13-1.248.49-.3 1.06-.451 1.71-.451.42 0 .82.069 1.19.206.38.133.71.341 1 .624.29.282.52.642.69 1.079.17.434.25.951.25 1.552v.495h-5.61v-1.088h4.06c0-.309-.07-.584-.2-.825a1.416 1.416 0 0 0-.55-.575c-.23-.14-.5-.21-.81-.21-.33 0-.62.08-.87.241a1.728 1.728 0 0 0-.79 1.467v.95c0 .398.07.74.22 1.026.14.282.35.499.61.651.26.148.57.223.92.223.23 0 .44-.033.63-.098.19-.069.36-.168.5-.299.14-.131.24-.293.32-.486l1.5.169c-.09.399-.27.746-.54 1.044-.27.294-.6.523-1.02.686-.41.161-.88.241-1.42.241zm7.39 2.578c-.58 0-1.07-.079-1.49-.236-.42-.155-.75-.363-1-.625a2.107 2.107 0 0 1-.53-.869l1.45-.353c.07.134.17.266.29.397.13.134.29.244.5.33.22.089.49.134.81.134.46 0 .84-.112 1.14-.334.3-.221.45-.583.45-1.089v-1.297h-.08c-.08.166-.21.337-.37.512-.15.176-.36.323-.63.442-.25.119-.58.178-.97.178-.53 0-1.01-.123-1.43-.37-.43-.25-.77-.621-1.02-1.115-.25-.496-.38-1.118-.38-1.864 0-.752.13-1.387.38-1.904.25-.52.59-.914 1.02-1.182.43-.27.91-.406 1.43-.406.4 0 .73.069.99.206.26.133.47.295.63.486.15.187.27.364.35.53h.09v-1.132h1.59v6.961c0 .586-.14 1.07-.42 1.454-.28.383-.66.67-1.15.86-.48.191-1.03.286-1.65.286zm.02-4.076c.34 0 .63-.083.87-.25.24-.166.43-.406.55-.718.13-.312.19-.687.19-1.124 0-.431-.06-.808-.19-1.132-.12-.324-.3-.576-.54-.754-.24-.181-.53-.272-.88-.272-.36 0-.66.094-.9.281-.24.187-.43.444-.55.771-.12.324-.18.693-.18 1.106 0 .42.06.787.18 1.102.13.312.31.556.55.731.25.173.54.259.9.259zm7.89 1.498c-.69 0-1.28-.142-1.78-.428a2.9 2.9 0 0 1-1.15-1.222c-.27-.529-.4-1.152-.4-1.868 0-.705.13-1.323.4-1.856.27-.535.65-.951 1.13-1.248.49-.3 1.06-.451 1.71-.451.42 0 .82.069 1.2.206.37.133.71.341 1 .624.29.282.52.642.68 1.079.17.434.25.951.25 1.552v.495h-5.61v-1.088h4.07c-.01-.309-.07-.584-.21-.825a1.46 1.46 0 0 0-.54-.575c-.24-.14-.51-.21-.82-.21-.33 0-.62.08-.87.241a1.722 1.722 0 0 0-.79 1.467v.95c0 .398.07.74.22 1.026.15.282.35.499.61.651.26.148.57.223.92.223.23 0 .45-.033.64-.098.19-.069.35-.168.49-.299.14-.131.25-.293.32-.486l1.51.169c-.1.399-.28.746-.55 1.044-.26.294-.6.523-1.01.686a3.93 3.93 0 0 1-1.42.241z"/><path fill="#fff" d="M1796.42 237.84v-.593h3.53v.593h-1.43v3.974h-.68v-3.974h-1.42zm4.81 3.974v-4.567h1.63c.35 0 .65.061.88.183.24.122.41.291.53.506.11.214.17.462.17.743 0 .279-.06.525-.17.738-.12.211-.3.375-.53.493-.23.117-.53.176-.88.176h-1.23v-.593h1.17c.22 0 .4-.032.54-.096a.661.661 0 0 0 .31-.279c.07-.122.1-.268.1-.439 0-.173-.04-.322-.1-.448a.672.672 0 0 0-.31-.29 1.27 1.27 0 0 0-.55-.103h-.87v3.976h-.69zm2.26-2.06 1.13 2.06h-.79l-1.11-2.06h.77zm2.68 2.06h-.73l1.64-4.567h.8l1.64 4.567h-.73l-1.29-3.737h-.04l-1.29 3.737zm.12-1.788h2.37v.579h-2.37v-.579zm7.97-1.294h-.7a.87.87 0 0 0-.15-.392 1.122 1.122 0 0 0-.26-.288 1.26 1.26 0 0 0-.36-.178c-.13-.04-.26-.06-.41-.06-.26 0-.5.066-.71.198-.2.132-.37.326-.49.582-.12.256-.18.568-.18.937 0 .371.06.685.18.941.12.255.29.449.49.579.21.131.45.197.71.197.14 0 .28-.02.41-.058.13-.041.25-.099.35-.177a.97.97 0 0 0 .27-.283.996.996 0 0 0 .15-.388l.7.003c-.04.224-.11.431-.22.619-.1.188-.24.35-.41.487-.16.135-.35.24-.56.314-.21.074-.45.111-.7.111-.39 0-.74-.093-1.05-.281a1.983 1.983 0 0 1-.74-.809c-.17-.351-.26-.769-.26-1.255 0-.488.09-.906.27-1.256.18-.351.42-.62.73-.807.31-.189.66-.283 1.05-.283.25 0 .47.035.68.105.21.068.4.169.57.303.17.132.31.294.42.486.11.19.18.408.22.653zm1.33 3.082v-4.567h.68v2.181h.06l1.92-2.181h.86l-1.84 2.056 1.85 2.511h-.83l-1.48-2.04-.54.62v1.42h-.68z" opacity=".6"/><path stroke="#fff" stroke-linecap="round" stroke-linejoin="round" stroke-width=".942" d="m1780.76 243.802 3.13-3.139m-1.04-2.616a3.662 3.662 0 0 0 3.66 3.662 3.662 3.662 0 0 0 0-7.325c-2.02 0-3.66 1.64-3.66 3.663z" opacity=".6"/><circle cx="1788.6" cy="74.581" r="13.186" fill="#fff"/><path fill="#688EA2" d="m1796.14 73.522-7.53-3.768-7.54 3.768 7.54 3.767 7.53-3.767z"/><path fill="#688EA2" d="M1782.79 74.945v4.137h11.64v-4.137l-5.82 2.91-5.82-2.91z"/><path fill="#fff" d="M249.877 119.86v-9.133h3.425c.702 0 1.291.131 1.766.393.479.261.84.621 1.084 1.079.247.455.37.972.37 1.552 0 .586-.123 1.106-.37 1.561a2.639 2.639 0 0 1-1.093 1.074c-.481.259-1.074.388-1.779.388h-2.27v-1.36h2.047c.41 0 .746-.071 1.008-.214.262-.142.455-.339.58-.588.128-.25.191-.537.191-.861 0-.324-.063-.61-.191-.856a1.305 1.305 0 0 0-.585-.576c-.261-.139-.599-.209-1.012-.209h-1.516v7.75h-1.655zm9.859.139a2.86 2.86 0 0 1-1.172-.232 1.919 1.919 0 0 1-.821-.696c-.199-.306-.299-.684-.299-1.133 0-.386.072-.706.214-.958.143-.253.338-.455.584-.607.247-.152.525-.266.834-.343.313-.081.635-.139.968-.174.401-.042.727-.079.977-.112.249-.035.431-.089.544-.16.116-.075.174-.189.174-.344v-.026c0-.336-.1-.596-.299-.781-.199-.184-.486-.276-.861-.276-.395 0-.709.086-.941.258a1.29 1.29 0 0 0-.464.611l-1.507-.214a2.4 2.4 0 0 1 .589-1.043 2.557 2.557 0 0 1 1.003-.634 3.86 3.86 0 0 1 1.311-.214c.33 0 .659.039.986.116.327.078.626.205.896.384.271.175.488.415.651.718.167.303.25.682.25 1.137v4.584h-1.552v-.94h-.053c-.098.19-.237.368-.415.535a2.023 2.023 0 0 1-.665.397 2.677 2.677 0 0 1-.932.147zm.42-1.187c.324 0 .605-.063.842-.191.238-.131.421-.304.549-.518.131-.214.196-.447.196-.7v-.807a.757.757 0 0 1-.258.116 3.637 3.637 0 0 1-.402.094c-.148.026-.296.05-.441.071l-.379.054a2.797 2.797 0 0 0-.647.16 1.07 1.07 0 0 0-.45.312.765.765 0 0 0-.165.509c0 .297.108.521.325.673.217.152.494.227.83.227zm5.578 3.617c-.22 0-.423-.018-.61-.053a2.32 2.32 0 0 1-.442-.116l.375-1.258c.235.069.444.101.628.098a.773.773 0 0 0 .487-.174c.142-.11.263-.294.361-.553l.138-.37-2.484-6.992h1.713l1.578 5.173h.072l1.583-5.173h1.717l-2.743 7.679a3.081 3.081 0 0 1-.508.932c-.211.262-.47.461-.776.598-.304.139-.666.209-1.089.209zm11.89-2.448c-.538 0-1.02-.138-1.445-.415-.425-.276-.761-.678-1.008-1.204-.247-.526-.37-1.165-.37-1.918 0-.761.125-1.403.374-1.926.253-.526.594-.923 1.022-1.191.428-.27.905-.406 1.431-.406.402 0 .732.069.99.206.259.133.464.295.616.486.151.187.269.364.352.53h.067v-3.416h1.619v9.133h-1.588v-1.079h-.098a2.748 2.748 0 0 1-.361.531 2 2 0 0 1-.625.473c-.258.13-.584.196-.976.196zm.45-1.325c.342 0 .633-.092.874-.276a1.73 1.73 0 0 0 .549-.781 3.3 3.3 0 0 0 .187-1.163c0-.443-.062-.828-.187-1.156a1.647 1.647 0 0 0-.544-.762c-.238-.181-.531-.272-.879-.272-.36 0-.66.094-.901.281a1.699 1.699 0 0 0-.544.776c-.122.33-.183.707-.183 1.133 0 .428.061.81.183 1.146.125.333.308.596.549.789.244.19.542.285.896.285zm7.906 1.338c-.669 0-1.249-.147-1.739-.441a2.993 2.993 0 0 1-1.142-1.236c-.268-.529-.401-1.147-.401-1.855 0-.707.133-1.327.401-1.859a2.98 2.98 0 0 1 1.142-1.24c.49-.294 1.07-.442 1.739-.442s1.248.148 1.739.442c.491.294.87.707 1.137 1.24.271.532.406 1.152.406 1.859 0 .708-.135 1.326-.406 1.855-.267.53-.646.941-1.137 1.236-.491.294-1.07.441-1.739.441zm.009-1.293c.362 0 .666-.1.909-.299.244-.202.426-.473.545-.811.121-.339.182-.717.182-1.133 0-.419-.061-.798-.182-1.137a1.798 1.798 0 0 0-.545-.816c-.243-.203-.547-.304-.909-.304-.372 0-.681.101-.928.304a1.827 1.827 0 0 0-.548.816 3.416 3.416 0 0 0-.179 1.137c0 .416.06.794.179 1.133.122.338.304.609.548.811.247.199.556.299.928.299zm5.861 1.159-1.936-6.849h1.646l1.204 4.816h.062l1.231-4.816h1.628l1.231 4.789h.067l1.186-4.789h1.65l-1.94 6.849h-1.681l-1.285-4.629h-.093l-1.285 4.629h-1.685zm10.71-4.013v4.013h-1.614v-6.849h1.543v1.164h.08a1.96 1.96 0 0 1 .754-.915c.348-.226.778-.339 1.289-.339.473 0 .884.101 1.235.304.354.202.627.495.821.878.196.384.293.849.29 1.396v4.361h-1.615v-4.111c0-.458-.119-.816-.357-1.075-.234-.259-.56-.388-.976-.388-.283 0-.534.062-.754.187a1.3 1.3 0 0 0-.513.531c-.122.232-.183.513-.183.843zm11.696 4.134c-.538 0-1.02-.138-1.445-.415-.425-.276-.761-.678-1.008-1.204-.247-.526-.37-1.165-.37-1.918 0-.761.125-1.403.374-1.926.253-.526.594-.923 1.022-1.191.428-.27.905-.406 1.431-.406.402 0 .732.069.99.206.259.133.464.295.616.486.151.187.269.364.352.53h.067v-3.416h1.619v9.133h-1.588v-1.079h-.098a2.748 2.748 0 0 1-.361.531 2 2 0 0 1-.625.473c-.258.13-.584.196-.976.196zm.45-1.325c.342 0 .633-.092.874-.276a1.73 1.73 0 0 0 .549-.781 3.3 3.3 0 0 0 .187-1.163c0-.443-.062-.828-.187-1.156a1.647 1.647 0 0 0-.544-.762c-.238-.181-.531-.272-.879-.272-.36 0-.66.094-.901.281a1.699 1.699 0 0 0-.544.776c-.122.33-.183.707-.183 1.133 0 .428.061.81.183 1.146.125.333.308.596.549.789.244.19.542.285.896.285zm7.95 1.338c-.686 0-1.279-.142-1.779-.428a2.904 2.904 0 0 1-1.146-1.222c-.268-.529-.401-1.152-.401-1.868 0-.705.133-1.323.401-1.856.27-.535.648-.951 1.133-1.248.484-.3 1.054-.451 1.708-.451.422 0 .82.069 1.195.206.377.133.71.341.999.624.291.282.52.642.687 1.079.166.434.249.951.249 1.552v.495h-5.614v-1.088h4.067a1.736 1.736 0 0 0-.201-.825 1.458 1.458 0 0 0-.548-.575 1.542 1.542 0 0 0-.812-.21c-.33 0-.62.08-.87.241a1.659 1.659 0 0 0-.584.624 1.796 1.796 0 0 0-.209.843v.95c0 .398.072.74.218 1.026.146.282.349.499.611.651.262.148.568.223.919.223.235 0 .447-.033.637-.098.191-.069.356-.168.495-.299.14-.131.246-.293.317-.486l1.507.169a2.346 2.346 0 0 1-.544 1.044 2.643 2.643 0 0 1-1.016.686c-.414.161-.886.241-1.419.241zm4.483-.134v-9.133h1.615v3.416h.067c.083-.166.2-.343.352-.53.152-.191.357-.353.615-.486.259-.137.589-.206.99-.206.53 0 1.007.136 1.432.406.428.268.767.665 1.017 1.191.252.523.379 1.165.379 1.926 0 .753-.124 1.392-.37 1.918-.247.526-.583.928-1.008 1.204a2.588 2.588 0 0 1-1.445.415c-.393 0-.718-.066-.977-.196a1.995 1.995 0 0 1-.624-.473 2.996 2.996 0 0 1-.361-.531h-.094v1.079h-1.588zm1.584-3.424c0 .443.062.83.187 1.163.128.333.311.594.548.781a1.4 1.4 0 0 0 .874.276c.357 0 .656-.095.897-.285.241-.193.422-.456.544-.789.125-.336.187-.718.187-1.146 0-.426-.061-.803-.183-1.133a1.699 1.699 0 0 0-.544-.776c-.241-.187-.541-.281-.901-.281-.344 0-.637.091-.878.272a1.67 1.67 0 0 0-.549.762c-.122.328-.182.713-.182 1.156zm9.676-3.425v1.248h-3.938v-1.248h3.938zm-2.966-1.642h1.614v6.431c0 .217.033.384.099.5.068.113.157.19.267.232.11.041.232.062.366.062.101 0 .193-.007.276-.022.087-.015.152-.029.197-.04l.272 1.262a3.08 3.08 0 0 1-.95.16 2.627 2.627 0 0 1-1.093-.183 1.694 1.694 0 0 1-.771-.633c-.188-.285-.28-.642-.277-1.07v-6.699z"/><path fill="#fff" d="M266.206 237.84v-.593h3.534v.593h-1.424v3.974h-.687v-3.974h-1.423zm4.818 3.974v-4.567h1.627c.354 0 .648.061.881.183.235.122.41.291.526.506.116.214.174.462.174.743 0 .279-.058.525-.176.738a1.188 1.188 0 0 1-.526.493c-.233.117-.527.176-.881.176h-1.233v-.593h1.171c.223 0 .404-.032.544-.096a.638.638 0 0 0 .31-.279.921.921 0 0 0 .098-.439.952.952 0 0 0-.1-.448.65.65 0 0 0-.31-.29 1.254 1.254 0 0 0-.551-.103h-.865v3.976h-.689zm2.254-2.06 1.128 2.06h-.785l-1.106-2.06h.763zm2.681 2.06h-.732l1.644-4.567h.796l1.643 4.567h-.731l-1.291-3.737h-.036l-1.293 3.737zm.122-1.788h2.373v.579h-2.373v-.579zm7.969-1.294h-.695a1.068 1.068 0 0 0-.417-.68 1.172 1.172 0 0 0-.355-.178 1.387 1.387 0 0 0-.412-.06 1.29 1.29 0 0 0-.707.198c-.207.132-.37.326-.491.582-.119.256-.178.568-.178.937 0 .371.059.685.178.941.121.255.285.449.493.579.208.131.442.197.702.197.144 0 .281-.02.411-.058.13-.041.249-.099.354-.177a1.063 1.063 0 0 0 .422-.671l.695.003a1.852 1.852 0 0 1-.216.619c-.106.188-.242.35-.408.487-.165.135-.354.24-.566.314a2.108 2.108 0 0 1-.696.111c-.396 0-.748-.093-1.057-.281a1.957 1.957 0 0 1-.731-.809c-.177-.351-.266-.769-.266-1.255 0-.488.089-.906.268-1.256.178-.351.422-.62.731-.807a1.982 1.982 0 0 1 1.055-.283c.242 0 .468.035.678.105.211.068.4.169.568.303.168.132.307.294.417.486.11.19.185.408.223.653zm1.327 3.082v-4.567h.689v2.181h.056l1.915-2.181h.868l-1.842 2.056 1.848 2.511h-.829l-1.476-2.04-.54.62v1.42h-.689z" opacity=".6"/><path stroke="#fff" stroke-linecap="round" stroke-linejoin="round" stroke-width=".942" d="m250.546 243.802 3.14-3.139m-1.047-2.616a3.663 3.663 0 1 0 7.326-.002 3.663 3.663 0 0 0-7.326.002z" opacity=".6"/><path fill="#fff" fill-rule="evenodd" d="M274.724 74.582c0 7.282-5.904 13.186-13.186 13.186-7.283 0-13.186-5.904-13.186-13.186 0-7.283 5.903-13.186 13.186-13.186 7.282 0 13.186 5.903 13.186 13.186zm-18.99-2.437c0-.693.562-1.255 1.256-1.255h8.905c.693 0 1.255.562 1.255 1.255v5.1c0 .693-.562 1.255-1.255 1.255h-8.905a1.256 1.256 0 0 1-1.256-1.255v-5.1z" clip-rule="evenodd"/><path fill="#fff" d="M253.625 72.999h14.241v1.055h-14.241zM66.646 113.644a2.359 2.359 0 0 0-.307-.647 1.996 1.996 0 0 0-.464-.495 1.878 1.878 0 0 0-.616-.308 2.579 2.579 0 0 0-.758-.107c-.49 0-.927.124-1.31.371-.384.246-.686.609-.906 1.088-.217.475-.326 1.055-.326 1.739 0 .69.109 1.274.326 1.753.217.478.519.842.905 1.092.387.247.836.37 1.347.37.464 0 .865-.089 1.204-.267a1.89 1.89 0 0 0 .79-.758c.184-.33.276-.717.276-1.16l.374.058h-2.48v-1.293h3.707v1.097c0 .782-.167 1.458-.5 2.029a3.41 3.41 0 0 1-1.373 1.32c-.583.306-1.252.459-2.007.459-.841 0-1.58-.188-2.216-.566a3.92 3.92 0 0 1-1.485-1.619c-.354-.701-.531-1.534-.531-2.497 0-.738.104-1.396.312-1.976.211-.58.506-1.072.883-1.476.378-.407.82-.716 1.329-.927a4.215 4.215 0 0 1 1.659-.322c.505 0 .977.075 1.414.223.437.146.825.354 1.164.625.341.27.622.591.842.963.22.372.365.782.433 1.231h-1.686zm6.323 6.35c-.687 0-1.28-.142-1.78-.428a2.899 2.899 0 0 1-1.146-1.222c-.267-.529-.401-1.152-.401-1.868 0-.705.134-1.323.401-1.856.27-.535.648-.951 1.133-1.248.485-.3 1.054-.451 1.708-.451.422 0 .82.069 1.195.206.378.133.71.341 1 .624.29.282.52.642.686 1.079.166.434.25.951.25 1.552v.495H70.4v-1.088h4.067a1.738 1.738 0 0 0-.2-.825 1.453 1.453 0 0 0-.549-.575 1.54 1.54 0 0 0-.812-.21c-.33 0-.62.08-.87.241a1.649 1.649 0 0 0-.583.624 1.799 1.799 0 0 0-.21.843v.95c0 .398.073.74.219 1.026.145.282.349.499.61.651.262.148.568.223.92.223.234 0 .447-.033.637-.098.19-.069.355-.168.495-.299.14-.131.245-.293.317-.486l1.507.169a2.352 2.352 0 0 1-.544 1.044 2.649 2.649 0 0 1-1.017.686c-.413.161-.886.241-1.418.241zm6.026-4.147v4.013H77.38v-6.849h1.544v1.164h.08c.157-.384.409-.689.753-.915.348-.226.778-.339 1.29-.339.472 0 .884.101 1.234.304.354.202.628.495.821.878.196.384.293.849.29 1.396v4.361h-1.614v-4.111c0-.458-.12-.816-.357-1.075-.235-.259-.56-.388-.977-.388a1.5 1.5 0 0 0-.754.187 1.3 1.3 0 0 0-.512.531c-.122.232-.183.513-.183.843zm9.07 4.147c-.686 0-1.28-.142-1.779-.428a2.899 2.899 0 0 1-1.146-1.222c-.267-.529-.401-1.152-.401-1.868 0-.705.134-1.323.401-1.856.27-.535.648-.951 1.133-1.248.484-.3 1.054-.451 1.708-.451.422 0 .82.069 1.195.206.378.133.71.341.999.624.291.282.52.642.687 1.079.166.434.25.951.25 1.552v.495h-5.615v-1.088h4.067a1.737 1.737 0 0 0-.2-.825 1.452 1.452 0 0 0-.55-.575 1.54 1.54 0 0 0-.81-.21c-.33 0-.62.08-.87.241a1.65 1.65 0 0 0-.585.624 1.798 1.798 0 0 0-.21.843v.95c0 .398.074.74.22 1.026.145.282.349.499.61.651.262.148.568.223.919.223.235 0 .447-.033.638-.098.19-.069.355-.168.495-.299a1.24 1.24 0 0 0 .316-.486l1.508.169a2.351 2.351 0 0 1-.544 1.044 2.649 2.649 0 0 1-1.017.686c-.413.161-.886.241-1.418.241zm4.412-.134v-6.849h1.566v1.141h.07c.126-.395.34-.7.643-.914a1.768 1.768 0 0 1 1.048-.326c.09 0 .189.005.299.014.113.006.207.016.28.031v1.485a1.701 1.701 0 0 0-.325-.062 2.972 2.972 0 0 0-.423-.032c-.295 0-.56.064-.794.192a1.405 1.405 0 0 0-.549.522c-.133.223-.2.48-.2.771v4.027h-1.615zm6.828.139a2.87 2.87 0 0 1-1.173-.232 1.92 1.92 0 0 1-.82-.696c-.2-.306-.3-.684-.3-1.133 0-.386.072-.706.215-.958a1.65 1.65 0 0 1 .584-.607c.247-.152.525-.266.834-.343a6.59 6.59 0 0 1 .968-.174c.401-.042.726-.079.976-.112.25-.035.431-.089.544-.16.116-.075.174-.189.174-.344v-.026c0-.336-.099-.596-.299-.781-.199-.184-.486-.276-.86-.276-.396 0-.71.086-.941.258a1.286 1.286 0 0 0-.464.611l-1.507-.214c.118-.416.315-.764.588-1.043a2.558 2.558 0 0 1 1.004-.634 3.856 3.856 0 0 1 1.311-.214c.33 0 .658.039.985.116.327.078.626.205.897.384.27.175.487.415.651.718.166.303.25.682.25 1.137v4.584h-1.552v-.94h-.054c-.098.19-.236.368-.415.535a2.018 2.018 0 0 1-.664.397 2.682 2.682 0 0 1-.932.147zm.419-1.187c.324 0 .605-.063.843-.191.238-.131.421-.304.548-.518.131-.214.197-.447.197-.7v-.807a.764.764 0 0 1-.259.116 3.67 3.67 0 0 1-.401.094c-.149.026-.296.05-.442.071l-.379.054a2.8 2.8 0 0 0-.647.16 1.07 1.07 0 0 0-.45.312.765.765 0 0 0-.165.509c0 .297.108.521.326.673.217.152.493.227.829.227zm6.435-8.085v9.133h-1.614v-9.133h1.614zm4.775 9.133v-6.849h1.615v6.849h-1.615zm.812-7.822a.938.938 0 0 1-.66-.254.82.82 0 0 1-.277-.62c0-.243.093-.45.277-.62a.933.933 0 0 1 .66-.258c.259 0 .479.086.66.258.184.17.276.377.276.62a.82.82 0 0 1-.276.62.928.928 0 0 1-.66.254zm4.077 3.809v4.013h-1.614v-6.849h1.543v1.164h.08a1.96 1.96 0 0 1 .754-.915c.347-.226.777-.339 1.288-.339.473 0 .885.101 1.236.304.354.202.627.495.82.878.197.384.293.849.29 1.396v4.361h-1.614v-4.111c0-.458-.119-.816-.357-1.075-.235-.259-.56-.388-.977-.388-.282 0-.533.062-.753.187a1.3 1.3 0 0 0-.513.531c-.122.232-.183.513-.183.843zm11.912-2.836-2.44 6.849h-1.784l-2.439-6.849h1.721l1.575 5.088h.071l1.579-5.088h1.717zm3.916 6.983c-.687 0-1.28-.142-1.779-.428a2.892 2.892 0 0 1-1.146-1.222c-.268-.529-.402-1.152-.402-1.868 0-.705.134-1.323.402-1.856.27-.535.648-.951 1.132-1.248.485-.3 1.054-.451 1.708-.451.423 0 .821.069 1.196.206.377.133.71.341.999.624.291.282.52.642.686 1.079.167.434.25.951.25 1.552v.495h-5.615v-1.088h4.068a1.736 1.736 0 0 0-.201-.825 1.454 1.454 0 0 0-.549-.575 1.538 1.538 0 0 0-.811-.21c-.33 0-.62.08-.87.241-.25.157-.444.365-.584.624a1.797 1.797 0 0 0-.21.843v.95c0 .398.073.74.219 1.026.146.282.349.499.611.651.261.148.568.223.918.223.235 0 .448-.033.638-.098.19-.069.355-.168.495-.299.14-.131.245-.293.317-.486l1.507.169a2.346 2.346 0 0 1-.544 1.044 2.647 2.647 0 0 1-1.017.686c-.413.161-.886.241-1.418.241zm9.826-5.173-1.472.161a1.178 1.178 0 0 0-.218-.419 1.087 1.087 0 0 0-.411-.317 1.495 1.495 0 0 0-.633-.121c-.336 0-.618.073-.847.219-.226.146-.338.334-.335.566a.59.59 0 0 0 .219.486c.151.125.401.228.749.308l1.168.25c.648.14 1.13.361 1.445.664.318.304.479.701.482 1.191a1.862 1.862 0 0 1-.379 1.142c-.247.327-.59.582-1.03.767-.44.184-.946.276-1.517.276-.838 0-1.513-.175-2.024-.526-.512-.354-.816-.846-.914-1.476l1.574-.152c.071.309.223.543.455.7.232.158.533.237.905.237.383 0 .691-.079.923-.237.235-.157.352-.352.352-.584a.607.607 0 0 0-.227-.486c-.149-.128-.381-.226-.696-.294l-1.168-.245c-.657-.137-1.143-.368-1.458-.692-.316-.327-.472-.74-.469-1.239a1.758 1.758 0 0 1 .344-1.098c.235-.312.56-.552.976-.722.42-.172.903-.259 1.45-.259.802 0 1.434.171 1.895.513.464.342.751.804.861 1.387zm4.899-1.81v1.248h-3.938v-1.248h3.938zm-2.966-1.642h1.614v6.431c0 .217.033.384.098.5.069.113.158.19.268.232.11.041.232.062.366.062.101 0 .193-.007.276-.022.086-.015.152-.029.196-.04l.272 1.262a3.09 3.09 0 0 1-.949.16 2.627 2.627 0 0 1-1.093-.183 1.702 1.702 0 0 1-.772-.633c-.187-.285-.279-.642-.276-1.07v-6.699zm4.316 8.491v-6.849h1.614v6.849h-1.614zm.811-7.822a.941.941 0 0 1-.66-.254.82.82 0 0 1-.276-.62c0-.243.092-.45.276-.62a.936.936 0 0 1 .66-.258c.259 0 .479.086.66.258a.81.81 0 0 1 .277.62.817.817 0 0 1-.277.62.928.928 0 0 1-.66.254zm4.077 3.809v4.013H151v-6.849h1.543v1.164h.08a1.96 1.96 0 0 1 .754-.915c.348-.226.778-.339 1.289-.339.473 0 .884.101 1.235.304.354.202.628.495.821.878.196.384.293.849.29 1.396v4.361h-1.615v-4.111c0-.458-.119-.816-.357-1.075-.234-.259-.56-.388-.976-.388-.283 0-.534.062-.754.187a1.3 1.3 0 0 0-.513.531c-.122.232-.183.513-.183.843zm9.018 6.725c-.58 0-1.078-.079-1.494-.236-.416-.155-.751-.363-1.004-.625a2.162 2.162 0 0 1-.526-.869l1.454-.353c.065.134.161.266.285.397.125.134.293.244.504.33.214.089.483.134.807.134.458 0 .837-.112 1.138-.334.3-.221.45-.583.45-1.089v-1.297h-.08a2.27 2.27 0 0 1-.366.512 1.856 1.856 0 0 1-.629.442c-.258.119-.584.178-.976.178a2.812 2.812 0 0 1-1.432-.37c-.425-.25-.764-.621-1.017-1.115-.249-.496-.374-1.118-.374-1.864 0-.752.125-1.387.374-1.904.253-.52.594-.914 1.022-1.182.428-.27.905-.406 1.431-.406.402 0 .732.069.99.206.262.133.47.295.625.486.154.187.272.364.352.53h.089v-1.132h1.592v6.961c0 .586-.14 1.07-.419 1.454-.28.383-.662.67-1.146.86-.485.191-1.035.286-1.65.286zm.013-4.076c.342 0 .633-.083.874-.25.241-.166.424-.406.549-.718.125-.312.187-.687.187-1.124 0-.431-.062-.808-.187-1.132a1.622 1.622 0 0 0-.544-.754c-.238-.181-.531-.272-.879-.272-.36 0-.66.094-.901.281a1.7 1.7 0 0 0-.544.771 3.124 3.124 0 0 0-.183 1.106c0 .42.061.787.183 1.102.125.312.308.556.549.731.244.173.542.259.896.259z"/><path stroke="#fff" stroke-linecap="round" stroke-linejoin="round" stroke-width=".942" d="m73.512 238.663-4.117 4.117c-.207.207-.311.311-.43.35a.525.525 0 0 1-.324 0c-.12-.039-.223-.143-.43-.35l-1.433-1.432c-.207-.207-.31-.311-.43-.35a.525.525 0 0 0-.323 0c-.12.039-.223.143-.43.35l-2.548 2.547m10.465-5.232h-3.663m3.663 0v3.663" opacity=".6"/><path fill="#fff" d="M80.77 239.433V244h-.688v-4.567h.689zm5.192 0V244h-.633l-2.321-3.349h-.042V244h-.69v-4.567h.638l2.324 3.354h.042v-3.354h.682zm1.907 0 1.27 3.72h.052l1.271-3.72h.745L89.564 244h-.796l-1.644-4.567h.745zm4.5 4.567v-4.567h2.863v.594h-2.174v1.391h2.024v.591h-2.024v1.398h2.2V244h-2.89zm6.776-3.367a.653.653 0 0 0-.294-.491 1.137 1.137 0 0 0-.651-.176c-.188 0-.35.03-.487.09a.744.744 0 0 0-.318.24.57.57 0 0 0-.112.346.51.51 0 0 0 .076.281.67.67 0 0 0 .203.198c.085.052.175.096.272.132.096.034.19.062.279.085l.446.116c.145.035.295.084.448.145.153.06.295.141.426.24a1.077 1.077 0 0 1 .44.899 1.22 1.22 0 0 1-.202.689 1.336 1.336 0 0 1-.577.475c-.251.116-.555.174-.912.174a2.21 2.21 0 0 1-.888-.163 1.358 1.358 0 0 1-.586-.462c-.141-.2-.22-.438-.234-.713h.691a.705.705 0 0 0 .16.412c.096.109.217.19.364.243.149.053.311.079.488.079.195 0 .368-.031.52-.092a.867.867 0 0 0 .361-.259.61.61 0 0 0 .132-.39.478.478 0 0 0-.116-.332.853.853 0 0 0-.31-.214 2.956 2.956 0 0 0-.44-.149l-.54-.148c-.365-.099-.655-.246-.869-.439-.212-.193-.319-.449-.319-.767 0-.263.072-.493.214-.689.143-.196.336-.349.58-.457.244-.11.519-.165.825-.165.31 0 .582.054.819.163.237.108.425.258.561.448.137.189.209.406.215.651h-.665zm1.827-.606v-.594h3.535v.594h-1.425V244h-.687v-3.973h-1.423z" opacity=".6"/><circle cx="72.186" cy="74.581" r="13.186" fill="#fff"/><path fill="#6B9BC0" d="M66.82 74.988h2.597v3.361H66.82zm2.598-1.921h2.597v5.282h-2.597zm2.598-1.441h2.597v6.722h-2.597z"/><path fill="#6B9BC0" d="M74.611 70.186h2.597v8.163h-2.597z"/></g><defs><clipPath id="a"><path fill="#fff" d="M0 0h1947v300H0z"/></clipPath><clipPath id="c"><path fill="#fff" d="M1207.16 232.814h12.558v12.558h-12.558z"/></clipPath><clipPath id="d"><path fill="#fff" d="M1397.42 232.814h12.558v12.558h-12.558z"/></clipPath><clipPath id="e"><path fill="#fff" d="M1585.16 232.814h12.558v12.558h-12.558z"/></clipPath><clipPath id="f"><path fill="#fff" d="M1589.56 66.419h16.326v16.326h-16.326z"/></clipPath><clipPath id="g"><path fill="#fff" d="M1015.02 232.814h12.558v12.558h-12.558z"/></clipPath><linearGradient id="b" x1="38" x2="2115.12" y1="148.674" y2="148.674" gradientUnits="userSpaceOnUse"><stop stop-color="#749DBF"/><stop offset=".271" stop-color="#348AC7"/><stop offset=".599" stop-color="#52B96F"/><stop offset="1" stop-color="#7474BF"/></linearGradient></defs></svg>