<svg xmlns="http://www.w3.org/2000/svg" xmlns:xlink="http://www.w3.org/1999/xlink" style="width: 100%; height: 100%" viewBox="0 0 61 61" preserveAspectRatio="none" width="61" height="61"><defs><svg width="61" height="61" fill="none" xmlns="http://www.w3.org/2000/svg" id="svg-39973884_652"><path d="M30.5 3.004C15.312 3.004 3 15.316 3 30.504c0 0 3.822-2.75 8.25-2.75s8.25 2.75 8.25 2.75 6.572-2.75 11-2.75 11 2.75 11 2.75 3.822-2.75 8.25-2.75 8.25 2.75 8.25 2.75c0-15.188-12.312-27.5-27.5-27.5Z" fill="#FFFFFF"></path><path d="M16.75 50.854c0 3.949 3.078 7.15 6.875 7.15s6.875-3.201 6.875-7.15v-23.1m0 0c-4.428 0-11 2.75-11 2.75s-3.822-2.75-8.25-2.75S3 30.504 3 30.504c0-15.188 12.312-27.5 27.5-27.5S58 15.316 58 30.504c0 0-3.822-2.75-8.25-2.75s-8.25 2.75-8.25 2.75-6.572-2.75-11-2.75Z" stroke="#FFFFFF" stroke-width="5.083px" stroke-linecap="round" stroke-linejoin="round" fill="none"></path></svg></defs><use href="#svg-39973884_652"></use></svg>