<svg xmlns="http://www.w3.org/2000/svg" xmlns:xlink="http://www.w3.org/1999/xlink" style="width: 100%; height: 100%" viewBox="0 0 67 43" preserveAspectRatio="none" width="67" height="43"><defs><svg width="67" height="43" fill="none" xmlns="http://www.w3.org/2000/svg" id="svg1218915207_2170"><g filter="url(#svg1218915207_2170_a)" fill="none"><rect x="8" y="4" width="51" height="27" rx="6" fill="#2E2E2E"></rect></g><path d="M20.959 12.273h1.598l2.778 6.784h.102l2.779-6.784h1.598V21H28.56v-6.315h-.08l-2.575 6.302h-1.04l-2.573-6.307h-.081V21h-1.253v-8.727ZM31.626 21v-6.546H32.9V21h-1.274Zm.643-7.555a.81.81 0 0 1-.57-.222.72.72 0 0 1-.235-.537c0-.21.078-.39.235-.537a.803.803 0 0 1 .57-.226c.222 0 .411.076.567.226.16.148.239.327.239.537 0 .207-.08.386-.239.537a.795.795 0 0 1-.566.222Zm3.62 3.669V21h-1.275v-6.546h1.223v1.066h.081c.15-.347.387-.625.708-.835.324-.21.731-.316 1.223-.316.446 0 .836.094 1.172.282.335.184.595.46.78.826.184.367.276.82.276 1.36V21h-1.274v-4.01c0-.474-.123-.845-.37-1.112-.248-.27-.587-.405-1.019-.405-.295 0-.558.064-.788.192a1.378 1.378 0 0 0-.541.562c-.131.245-.197.54-.197.887Zm8.718 4.018c-.645 0-1.2-.138-1.666-.413a2.804 2.804 0 0 1-1.074-1.172c-.25-.506-.375-1.098-.375-1.777 0-.67.125-1.261.375-1.773.253-.511.605-.91 1.057-1.197.455-.287.986-.43 1.594-.43.37 0 .727.06 1.074.183.346.122.657.313.933.575.275.261.493.6.652 1.018.159.415.239.92.239 1.513v.452h-5.204v-.955h3.955a1.87 1.87 0 0 0-.205-.89 1.548 1.548 0 0 0-.575-.618 1.608 1.608 0 0 0-.86-.226c-.359 0-.671.088-.938.264a1.77 1.77 0 0 0-.614.682 1.969 1.969 0 0 0-.213.908v.745c0 .438.077.81.23 1.117.156.307.374.541.652.703.279.159.604.238.976.238.242 0 .462-.034.66-.102a1.37 1.37 0 0 0 .848-.831l1.206.218c-.096.355-.27.666-.52.933a2.52 2.52 0 0 1-.933.618 3.493 3.493 0 0 1-1.274.217Z" fill="#FFFFFF"></path><defs><filter id="svg1218915207_2170_a" x="0" y="0" width="67" height="43" filterUnits="userSpaceOnUse" color-interpolation-filters="sRGB"><feFlood flood-opacity="0" result="BackgroundImageFix"></feFlood><feColorMatrix in="SourceAlpha" values="0 0 0 0 0 0 0 0 0 0 0 0 0 0 0 0 0 0 127 0" result="hardAlpha"></feColorMatrix><feOffset dy="4"></feOffset><feGaussianBlur stdDeviation="4"></feGaussianBlur><feComposite in2="hardAlpha" operator="out"></feComposite><feColorMatrix values="0 0 0 0 0 0 0 0 0 0 0 0 0 0 0 0 0 0 0.05 0"></feColorMatrix><feBlend in2="BackgroundImageFix" result="effect1_dropShadow_410_17626"></feBlend><feBlend in="SourceGraphic" in2="effect1_dropShadow_410_17626" result="shape"></feBlend></filter></defs></svg></defs><use href="#svg1218915207_2170"></use></svg>