<svg xmlns:xlink="http://www.w3.org/1999/xlink" width="34" height="34" fill="none" xmlns="http://www.w3.org/2000/svg" id="svg-479434547_723"><g clip-path="url(#svg-479434547_723_a)" fill="none"><path fill="#FFFFFF" d="M0 0h34v34H0z"></path><path d="M8 30.5h4.5m9 0H26m-.75-21.75v12M3.5 8.3v12.9c0 1.68 0 2.52.327 3.162a3 3 0 0 0 1.311 1.311C5.78 26 6.62 26 8.3 26h17.4c1.68 0 2.52 0 3.162-.327a3 3 0 0 0 1.311-1.311c.327-.642.327-1.482.327-3.162V8.3c0-1.68 0-2.52-.327-3.162a3 3 0 0 0-1.311-1.311C28.22 3.5 27.38 3.5 25.7 3.5H8.3c-1.68 0-2.52 0-3.162.327a3 3 0 0 0-1.311 1.311C3.5 5.78 3.5 6.62 3.5 8.3Zm12.75 6.45a3.75 3.75 0 1 1-7.5 0 3.75 3.75 0 0 1 7.5 0Z" stroke="#000000" stroke-width="2px" stroke-linecap="round" stroke-linejoin="round" fill="none"></path></g><defs><clipPath id="svg-479434547_723_a"><path fill="#fff" d="M0 0h34v34H0z"></path></clipPath></defs></svg>