<svg xmlns="http://www.w3.org/2000/svg" xmlns:xlink="http://www.w3.org/1999/xlink" style="width: 100%; height: 100%" viewBox="0 0 24 24" preserveAspectRatio="none" width="24" height="24"><defs><svg width="24" height="24" fill="none" xmlns="http://www.w3.org/2000/svg" id="svg431458109_632"><path d="M20.391 19.456A3 3 0 0 1 17.426 22H4a2 2 0 0 1-2-2v-7a2 2 0 0 1 2-2h2.35a1 1 0 0 0 .914-.594l3.52-7.918a.822.822 0 0 1 .75-.488A2.466 2.466 0 0 1 14 4.466V8a1 1 0 0 0 1 1h3.503a3 3 0 0 1 2.965 3.456l-1.077 7Z" fill="#86CE90" fill-opacity="0.4"></path><path d="M7 22V11m-5 2v7a2 2 0 0 0 2 2h13.426a3 3 0 0 0 2.965-2.544l1.077-7A3 3 0 0 0 18.503 9H15a1 1 0 0 1-1-1V4.466A2.466 2.466 0 0 0 11.534 2a.822.822 0 0 0-.75.488l-3.52 7.918A1 1 0 0 1 6.35 11H4a2 2 0 0 0-2 2Z" stroke="#86CE90" stroke-width="2px" stroke-linecap="round" stroke-linejoin="round" fill="none"></path></svg></defs><use href="#svg431458109_632"></use></svg>