<svg xmlns="http://www.w3.org/2000/svg" xmlns:xlink="http://www.w3.org/1999/xlink" style="width: 100%; height: 100%" viewBox="0 0 34 34" preserveAspectRatio="none" width="34" height="34"><defs><svg width="34" height="34" fill="none" xmlns="http://www.w3.org/2000/svg" id="svg-1564228402_1734"><path fill="#FFFFFF" d="M0 0h34v34H0z"></path><path d="M10.8 29.295a16.212 16.212 0 0 1-2.943-9.337 8.143 8.143 0 0 1 8.141-8.145 8.144 8.144 0 0 1 8.142 8.145" stroke="#000000" stroke-width="2px" stroke-linecap="round" stroke-linejoin="round" fill="none"></path><path d="M10.8 29.295a16.212 16.212 0 0 1-2.943-9.337 8.143 8.143 0 0 1 8.141-8.145 8.144 8.144 0 0 1 8.142 8.145" stroke="#000000" stroke-width="2px" stroke-linecap="round" stroke-linejoin="round" fill="none"></path><path d="M24.581 28.082c-.146.008-.29.022-.438.022A8.144 8.144 0 0 1 16 19.958" stroke="#000000" stroke-width="2px" stroke-linecap="round" stroke-linejoin="round" fill="none"></path><path d="M24.581 28.082c-.146.008-.29.022-.438.022a8.144 8.144 0 0 1-8.142-8.146" stroke="#000000" stroke-width="2px" stroke-linecap="round" stroke-linejoin="round" fill="none"></path><path d="M17.692 30.333a12.211 12.211 0 0 1-5.763-10.375 4.072 4.072 0 1 1 8.144 0 4.072 4.072 0 1 0 8.142 0c0-6.749-5.468-12.219-12.213-12.219-6.744 0-12.213 5.47-12.213 12.219 0 1.504.168 2.97.478 4.381" stroke="#000000" stroke-width="2px" stroke-linecap="round" stroke-linejoin="round" fill="none"></path><path d="M17.692 30.333a12.211 12.211 0 0 1-5.763-10.375 4.072 4.072 0 1 1 8.144 0 4.072 4.072 0 1 0 8.142 0c0-6.749-5.468-12.219-12.213-12.219-6.744 0-12.213 5.47-12.213 12.219 0 1.504.168 2.97.478 4.381" stroke="#000000" stroke-width="2px" stroke-linecap="round" stroke-linejoin="round" fill="none"></path><path d="M27.368 8.818C24.59 5.664 20.532 3.667 16 3.667c-4.531 0-8.59 1.997-11.367 5.15" stroke="#000000" stroke-width="2px" stroke-linecap="round" stroke-linejoin="round" fill="none"></path><path d="M27.368 8.818C24.59 5.664 20.532 3.667 16 3.667c-4.531 0-8.59 1.997-11.367 5.15" stroke="#000000" stroke-width="2px" stroke-linecap="round" stroke-linejoin="round" fill="none"></path></svg></defs><use href="#svg-1564228402_1734"></use></svg>