<svg xmlns="http://www.w3.org/2000/svg" xmlns:xlink="http://www.w3.org/1999/xlink" style="width: 100%; height: 100%" viewBox="0 0 42 42" preserveAspectRatio="none" width="42" height="42"><defs><svg width="42" height="42" fill="none" xmlns="http://www.w3.org/2000/svg" id="svg232018798_362"><path fill-rule="evenodd" clip-rule="evenodd" d="M42 21c0 11.598-9.402 21-21 21S0 32.598 0 21 9.402 0 21 0s21 9.402 21 21Zm-30.24-3.88a2 2 0 0 1 2-2h14.181a2 2 0 0 1 2 2v8.121a2 2 0 0 1-2 2H13.76a2 2 0 0 1-2-2v-8.12Z" fill="#FFFFFF"></path><path fill="#FFFFFF" d="M8.4 18.48h22.68v1.68H8.4z"></path></svg></defs><use href="#svg232018798_362"></use></svg>