<svg xmlns="http://www.w3.org/2000/svg" xmlns:xlink="http://www.w3.org/1999/xlink" style="width: 100%; height: 100%" viewBox="0 0 67 43" preserveAspectRatio="none" width="67" height="43"><defs><svg width="67" height="43" fill="none" xmlns="http://www.w3.org/2000/svg" id="svg-488752935_2817"><g filter="url(#svg-488752935_2817_a)" fill="none"><rect x="8" y="4" width="51" height="27" rx="6" fill="#2E2E2E"></rect></g><path d="M28.54 16.636c0 .932-.17 1.733-.512 2.404-.34.667-.808 1.182-1.402 1.542-.59.358-1.262.537-2.015.537-.756 0-1.43-.179-2.024-.537-.591-.36-1.057-.876-1.398-1.547-.341-.67-.511-1.47-.511-2.399 0-.931.17-1.731.51-2.399.342-.67.808-1.184 1.399-1.542.593-.361 1.268-.542 2.024-.542.753 0 1.424.18 2.015.542.594.358 1.061.872 1.402 1.542.341.668.512 1.467.512 2.4Zm-1.304 0c0-.71-.115-1.308-.345-1.794-.228-.488-.54-.858-.938-1.108a2.435 2.435 0 0 0-1.342-.379c-.503 0-.952.127-1.347.38-.395.25-.707.619-.937 1.107-.228.486-.341 1.084-.341 1.794s.113 1.31.34 1.799c.23.486.543.855.938 1.108.395.25.844.375 1.347.375.5 0 .947-.125 1.342-.375.398-.253.71-.622.938-1.108.23-.489.345-1.088.345-1.799Zm6.99 1.65v-3.832h1.278V21H34.25v-1.134h-.068c-.15.35-.392.641-.724.874-.33.23-.74.345-1.232.345-.42 0-.793-.092-1.117-.277a1.946 1.946 0 0 1-.758-.83c-.182-.367-.273-.82-.273-1.36v-4.163h1.274v4.01c0 .445.124.8.371 1.065.247.264.568.396.963.396.239 0 .476-.06.712-.179a1.5 1.5 0 0 0 .592-.541c.16-.241.237-.548.234-.92ZM37.215 21v-6.546h1.231v1.04h.069c.119-.352.33-.629.63-.83a1.805 1.805 0 0 1 1.032-.307 5.432 5.432 0 0 1 .54.03v1.218a2.299 2.299 0 0 0-.272-.047c-.13-.02-.261-.03-.392-.03-.301 0-.57.064-.805.192a1.425 1.425 0 0 0-.759 1.283V21h-1.274Zm9.51-4.947-1.155.204a1.368 1.368 0 0 0-.23-.422 1.139 1.139 0 0 0-.417-.328 1.513 1.513 0 0 0-.66-.128c-.362 0-.663.081-.904.243-.242.16-.362.365-.362.618 0 .219.08.395.242.529.162.133.424.242.785.328l1.04.238c.602.14 1.05.354 1.346.644.295.29.443.666.443 1.129 0 .392-.114.741-.34 1.048-.225.304-.54.543-.943.716-.4.174-.865.26-1.393.26-.733 0-1.331-.156-1.794-.469-.463-.315-.747-.762-.852-1.342l1.231-.188c.077.322.235.564.473.73.239.161.55.242.933.242.418 0 .752-.087 1.002-.26.25-.176.375-.39.375-.643a.669.669 0 0 0-.23-.516c-.15-.14-.382-.244-.695-.315l-1.108-.243c-.61-.14-1.062-.361-1.355-.665-.29-.304-.435-.689-.435-1.155 0-.386.108-.724.324-1.014a2.12 2.12 0 0 1 .895-.678c.38-.164.817-.247 1.308-.247.708 0 1.265.154 1.67.46.407.304.675.712.806 1.224Z" fill="#FFFFFF"></path><defs><filter id="svg-488752935_2817_a" x="0" y="0" width="67" height="43" filterUnits="userSpaceOnUse" color-interpolation-filters="sRGB"><feFlood flood-opacity="0" result="BackgroundImageFix"></feFlood><feColorMatrix in="SourceAlpha" values="0 0 0 0 0 0 0 0 0 0 0 0 0 0 0 0 0 0 127 0" result="hardAlpha"></feColorMatrix><feOffset dy="4"></feOffset><feGaussianBlur stdDeviation="4"></feGaussianBlur><feComposite in2="hardAlpha" operator="out"></feComposite><feColorMatrix values="0 0 0 0 0 0 0 0 0 0 0 0 0 0 0 0 0 0 0.05 0"></feColorMatrix><feBlend in2="BackgroundImageFix" result="effect1_dropShadow_410_17629"></feBlend><feBlend in="SourceGraphic" in2="effect1_dropShadow_410_17629" result="shape"></feBlend></filter></defs></svg></defs><use href="#svg-488752935_2817"></use></svg>