<svg xmlns:xlink="http://www.w3.org/1999/xlink" width="162" height="34" fill="none" xmlns="http://www.w3.org/2000/svg" id="svg1849231582_2890"><path d="m161.447 25.37-1.038 2.19-1.268-2.19h2.306Z" fill="#FFFFFF"></path><path d="M60.043 33.526V13.709h3.155l.387 1.965c.443-.608 1.024-1.143 1.744-1.605.738-.461 1.688-.692 2.85-.692 1.292 0 2.445.314 3.46.941a6.741 6.741 0 0 1 2.408 2.574c.59 1.089.886 2.325.886 3.709s-.296 2.62-.886 3.709a6.797 6.797 0 0 1-2.408 2.546c-1.015.609-2.168.913-3.46.913-1.033 0-1.937-.194-2.712-.581a4.89 4.89 0 0 1-1.882-1.633v7.97h-3.542Zm7.39-8.857c1.125 0 2.057-.378 2.795-1.134.738-.757 1.107-1.735 1.107-2.934 0-1.2-.37-2.187-1.107-2.961-.738-.776-1.67-1.163-2.796-1.163-1.144 0-2.085.387-2.823 1.163-.72.756-1.079 1.734-1.079 2.933 0 1.2.36 2.187 1.08 2.962.737.756 1.678 1.134 2.822 1.134Zm24.635 3.101c-1.384 0-2.61-.296-3.68-.887a6.41 6.41 0 0 1-2.52-2.49c-.608-1.07-.913-2.307-.913-3.71 0-1.42.296-2.684.886-3.79.609-1.108 1.44-1.966 2.49-2.575 1.071-.627 2.326-.94 3.765-.94 1.347 0 2.537.294 3.57.885a6.236 6.236 0 0 1 2.408 2.435c.59 1.015.886 2.15.886 3.405 0 .203-.01.415-.028.636 0 .222-.01.452-.028.692H88.47c.074 1.07.443 1.91 1.107 2.519.683.609 1.504.913 2.463.913.72 0 1.32-.157 1.8-.47a3.062 3.062 0 0 0 1.106-1.274h3.599a6.554 6.554 0 0 1-1.301 2.38 6.253 6.253 0 0 1-2.215 1.661c-.867.406-1.854.61-2.96.61Zm.028-11.514c-.867 0-1.633.249-2.297.747-.665.48-1.089 1.218-1.274 2.214h6.837c-.056-.904-.388-1.624-.997-2.159-.609-.535-1.365-.802-2.27-.802Zm8.967 11.181V13.709h3.127l.277 2.325a4.849 4.849 0 0 1 1.827-1.937c.811-.48 1.762-.72 2.85-.72 1.698 0 3.017.535 3.958 1.605.941 1.07 1.412 2.639 1.412 4.706v7.749h-3.543V20.02c0-1.181-.24-2.085-.72-2.713-.479-.627-1.227-.94-2.241-.94-.997 0-1.818.35-2.464 1.051-.627.701-.941 1.68-.941 2.934v7.085h-3.542Zm22.539 0c-1.439 0-2.592-.35-3.459-1.052-.867-.7-1.301-1.946-1.301-3.736V16.67h-2.352v-2.962h2.352l-.046-4.834h3.589v4.834h2.786l1.153 2.962h-3.939v6.006c0 .664.138 1.125.415 1.383.295.24.793.36 1.494.36h.794l1.384 3.017h-2.87Zm6.649 6.089 3.183-7.002h-.83l-5.342-12.815h3.847l3.847 9.66 4.013-9.66h3.764l-8.718 19.817h-3.764Zm-48.289-6.089c-1.439 0-2.592-.35-3.46-1.052-.866-.7-1.3-1.946-1.3-3.736v-5.978h-.046V13.71h.046l-.046-4.835h3.589v4.835h-.014v2.961h.014v6.006c0 .664.138 1.125.415 1.384.295.24.793.36 1.494.36h.332l1.384 3.016h-2.408Z" fill="#000"></path><path d="m132.271 27.676-1.153-2.767 2.421 1.384-1.268 1.383ZM29.952 4.309a.212.212 0 0 1 .356.002L43.42 24.96a.211.211 0 0 1-.178.324H24.686a.211.211 0 0 1-.177-.096l-3.072-4.658-1.698 2.615 2.71 4.109c.363.55.98.883 1.641.883H45.9c1.268 0 2.038-1.396 1.359-2.464L31.389.684A1.476 1.476 0 0 0 28.907.67L12.99 25.188a.212.212 0 0 1-.177.097h-8.56a.211.211 0 0 1-.179-.324l8.055-12.81a.212.212 0 0 1 .356-.003l3.505 5.315 1.698-2.616-4.18-6.338a1.476 1.476 0 0 0-2.48.026L.249 25.68c-.673 1.069.097 2.458 1.362 2.458h11.803c.667 0 1.288-.337 1.65-.895l3.66-5.637L29.951 4.309Z" fill="#000"></path></svg>