<svg xmlns="http://www.w3.org/2000/svg" xmlns:xlink="http://www.w3.org/1999/xlink" style="width: 100%; height: 100%" viewBox="0 0 42 42" preserveAspectRatio="none" width="42" height="42"><defs><svg width="42" height="42" fill="none" xmlns="http://www.w3.org/2000/svg" id="svg1222053497_699"><path fill-rule="evenodd" clip-rule="evenodd" d="M42 21c0 11.598-9.402 21-21 21S0 32.598 0 21 9.402 0 21 0s21 9.402 21 21Zm-24.463 7.636c.347.031.638-.046 1-.143a6.957 6.957 0 0 1 2.003-.278c.962 0 1.541.154 2.004.278.362.097.653.174 1 .143 3.137-.28 6.878-9.086 3.827-12.575l-.02-.022c-.233-.268-1.44-1.655-3.21-1.844-.686-.072-1.111.07-1.592.232-.471.158-.997.335-1.875.343-.928.01-1.489-.176-1.998-.345-.503-.166-.956-.316-1.666-.245-1.753.178-2.965 1.51-3.255 1.828l-.048.052c-2.84 2.984.6 12.289 3.83 12.576Zm1.93-17.288a.828.828 0 1 0-1.204 1.133L19.63 13.8a.736.736 0 0 0 1.07-1.007l-1.232-1.445Z" fill="#FFFFFF"></path></svg></defs><use href="#svg1222053497_699"></use></svg>