<svg xmlns="http://www.w3.org/2000/svg" xmlns:xlink="http://www.w3.org/1999/xlink" style="width: 100%; height: 100%" viewBox="0 0 24 24" preserveAspectRatio="none" width="24" height="24"><defs><svg width="24" height="24" fill="none" xmlns="http://www.w3.org/2000/svg" id="svg865343880_1338"><path d="M3.375 6.07c.222-1.444.333-2.167.687-2.71a3 3 0 0 1 1.275-1.093C5.927 2 6.657 2 8.119 2h10.682c1.12 0 1.68 0 2.108.218a2 2 0 0 1 .874.874c.218.428.218.988.218 2.108v4.6c0 1.12 0 1.68-.218 2.108a2 2 0 0 1-.874.874c-.428.218-.988.218-2.108.218h-.76c-.377 0-.565 0-.729.06a1 1 0 0 0-.383.248c-.121.126-.197.298-.35.642l-3.361 7.562a.822.822 0 0 1-.751.488A2.466 2.466 0 0 1 10 19.534V16.6c0-.56 0-.84-.109-1.054a1 1 0 0 0-.437-.437C9.241 15 8.961 15 8.401 15h-.805c-1.928 0-2.891 0-3.581-.392a3 3 0 0 1-1.32-1.539c-.283-.741-.136-1.694.157-3.599l.523-3.4Z" fill="#F2A7A5" fill-opacity="0.4"></path><path d="M17.001 2v11m5-3.2V5.2c0-1.12 0-1.68-.218-2.108a2 2 0 0 0-.874-.874C20.481 2 19.921 2 18.801 2H8.119c-1.461 0-2.192 0-2.782.267a3 3 0 0 0-1.275 1.094c-.354.542-.465 1.265-.687 2.71l-.523 3.4c-.293 1.904-.44 2.857-.157 3.598a3 3 0 0 0 1.32 1.539C4.705 15 5.668 15 7.596 15h.805c.56 0 .84 0 1.054.109a1 1 0 0 1 .437.437c.109.214.109.494.109 1.054v2.934A2.466 2.466 0 0 0 12.467 22a.821.821 0 0 0 .751-.488l3.36-7.562c.154-.344.23-.516.35-.642a1 1 0 0 1 .384-.249c.164-.059.352-.059.729-.059h.76c1.12 0 1.68 0 2.108-.218a2 2 0 0 0 .874-.874c.218-.428.218-.988.218-2.108Z" stroke="#F2A7A5" stroke-width="2px" stroke-linecap="round" stroke-linejoin="round" fill="none"></path></svg></defs><use href="#svg865343880_1338"></use></svg>