<svg xmlns:xlink="http://www.w3.org/1999/xlink" width="616" height="146" fill="none" xmlns="http://www.w3.org/2000/svg" id="svg-703816116_2787"><path d="M256.8 145.363v-85.92h13.68l1.68 8.52c1.92-2.64 4.44-4.96 7.56-6.96 3.2-2 7.32-3 12.36-3 5.6 0 10.6 1.36 15 4.08 4.4 2.72 7.88 6.44 10.44 11.16 2.56 4.72 3.84 10.08 3.84 16.08 0 6-1.28 11.36-3.84 16.08-2.56 4.64-6.04 8.32-10.44 11.04-4.4 2.64-9.4 3.96-15 3.96-4.48 0-8.4-.84-11.76-2.52-3.36-1.68-6.08-4.04-8.16-7.08v34.56H256.8Zm32.04-38.4c4.88 0 8.92-1.64 12.12-4.92 3.2-3.28 4.8-7.52 4.8-12.72 0-5.2-1.6-9.48-4.8-12.84-3.2-3.36-7.24-5.04-12.12-5.04-4.96 0-9.04 1.68-12.24 5.04-3.12 3.28-4.68 7.52-4.68 12.72 0 5.2 1.56 9.48 4.68 12.84 3.2 3.28 7.28 4.92 12.24 4.92Zm106.816 13.44c-6 0-11.32-1.28-15.96-3.84-4.64-2.56-8.28-6.16-10.92-10.8-2.64-4.64-3.96-10-3.96-16.08 0-6.16 1.28-11.64 3.84-16.44 2.64-4.8 6.24-8.52 10.8-11.16 4.64-2.72 10.08-4.08 16.32-4.08 5.84 0 11 1.28 15.48 3.84 4.48 2.56 7.96 6.08 10.44 10.56 2.56 4.4 3.84 9.32 3.84 14.76 0 .88-.04 1.8-.12 2.76 0 .96-.04 1.96-.12 3h-45.24c.32 4.64 1.92 8.28 4.8 10.92 2.96 2.64 6.52 3.96 10.68 3.96 3.12 0 5.72-.68 7.8-2.04 2.16-1.44 3.76-3.28 4.8-5.52h15.6c-1.12 3.76-3 7.2-5.64 10.32-2.56 3.04-5.76 5.44-9.6 7.2-3.76 1.76-8.04 2.64-12.84 2.64Zm.12-49.92c-3.76 0-7.08 1.08-9.96 3.24-2.88 2.08-4.72 5.28-5.52 9.6h29.64c-.24-3.92-1.68-7.04-4.32-9.36-2.64-2.32-5.92-3.48-9.84-3.48Zm38.878 48.48v-59.52h13.56l1.2 10.08c1.84-3.52 4.48-6.32 7.92-8.4 3.52-2.08 7.64-3.12 12.36-3.12 7.36 0 13.08 2.32 17.16 6.96 4.08 4.64 6.12 11.44 6.12 20.4v33.6h-15.36v-32.16c0-5.12-1.04-9.04-3.12-11.76-2.08-2.72-5.32-4.08-9.72-4.08-4.32 0-7.879 1.52-10.68 4.56-2.72 3.04-4.08 7.28-4.08 12.72v30.72h-15.36Zm97.728 0c-6.24 0-11.24-1.52-15-4.56-3.76-3.04-5.64-8.44-5.64-16.2v-25.92h-10.2v-12.84h10.2l-.2-20.96h15.56v20.96h12.08l5 12.84h-17.08v26.04c0 2.88.6 4.88 1.8 6 1.28 1.04 3.44 1.56 6.48 1.56h3.44l6 13.08h-12.44Zm28.828 26.4 13.8-30.36h-3.6l-23.16-55.56h16.68l16.68 41.88 17.4-41.88h16.32l-37.8 85.92h-16.32Zm-209.37-26.401c-6.24 0-11.24-1.52-15-4.56-3.76-3.04-5.64-8.44-5.64-16.2v-25.92h-.2v-12.84h.2l-.2-20.96h15.56v20.96h-.06v12.84h.06v26.04c0 2.88.6 4.88 1.8 6 1.28 1.04 3.44 1.56 6.48 1.56h1.44l6 13.08h-10.44Z" fill="#000"></path><path d="m573.5 120-5-12 10.5 6-5.5 6ZM129.865 18.683a.917.917 0 0 1 1.543.008l56.859 89.533a.916.916 0 0 1-.775 1.405h-80.46a.92.92 0 0 1-.766-.412l-13.321-20.2-7.361 11.339 11.748 17.815A8.527 8.527 0 0 0 104.45 122h94.566c5.496 0 8.832-6.051 5.889-10.684L136.097 2.964c-2.496-3.929-8.229-3.957-10.763-.054L56.327 109.211a.916.916 0 0 1-.769.418H18.447a.915.915 0 0 1-.777-1.401l34.924-55.542a.918.918 0 0 1 1.542-.016l15.197 23.044 7.362-11.34L58.57 36.893c-2.558-3.88-8.28-3.817-10.753.116l-46.74 74.334C-1.836 115.977 1.5 122 6.984 122h51.178a8.526 8.526 0 0 0 7.152-3.881l15.866-24.44 48.685-74.996Z" fill="#000"></path></svg>