<svg xmlns:xlink="http://www.w3.org/1999/xlink" width="265" height="279" fill="none" xmlns="http://www.w3.org/2000/svg" id="svg1284557369_20765"><rect x=".5" y=".5" width="258" height="278" rx="5.5" fill="#FFFFFF" stroke="#EDEDED"></rect><mask id="svg1284557369_20765_a" style="mask-type:alpha" maskUnits="userSpaceOnUse" x="232" y="8" width="20" height="20" fill="none"><path fill="#D9D9D9" d="M232 8h20v20h-20z"></path></mask><g mask="url(#svg1284557369_20765_a)" fill="none"><path d="m238.061 22.412-.479-.479 3.938-3.938-3.938-3.938.479-.479 3.938 3.938 3.938-3.938.479.48-3.938 3.937 3.938 3.938-.479.48-3.938-3.939-3.938 3.938Z" fill="#8A8A8A"></path></g><rect x="172" y="220" width="65" height="37" rx="6" fill="#4CAFE3"></rect><path d="m30.468 242.677-3.313-3.313 3.313-3.314.64.633-2.22 2.219h5.575v.923h-5.575l2.22 2.216-.64.636Zm8.686.323v-7.273h2.664c.516 0 .943.085 1.282.256.338.168.592.396.76.685.168.287.252.61.252.97 0 .303-.056.558-.167.767a1.37 1.37 0 0 1-.447.497 1.977 1.977 0 0 1-.611.27v.071c.241.012.477.09.706.234.232.142.424.345.576.608.151.262.227.582.227.958 0 .372-.088.706-.263 1.002-.173.293-.44.526-.802.699-.363.171-.825.256-1.389.256h-2.788Zm1.098-.941h1.584c.525 0 .902-.102 1.129-.305a.985.985 0 0 0 .34-.764c0-.23-.057-.44-.173-.632a1.237 1.237 0 0 0-.497-.458 1.59 1.59 0 0 0-.76-.171h-1.623v2.33Zm0-3.185h1.47c.246 0 .468-.048.664-.142.199-.095.356-.228.472-.398.119-.173.178-.377.178-.611 0-.301-.105-.553-.316-.756-.21-.204-.534-.306-.97-.306h-1.498v2.213Zm6.948 4.247c-.346 0-.659-.064-.938-.192-.28-.13-.5-.318-.664-.565-.161-.246-.242-.548-.242-.905 0-.308.06-.561.178-.76.119-.199.278-.356.48-.472.2-.116.426-.204.674-.263a6.8 6.8 0 0 1 .76-.135l.796-.092c.203-.027.351-.068.444-.125.092-.057.138-.149.138-.277v-.025c0-.31-.088-.55-.263-.721-.173-.17-.43-.255-.774-.255-.357 0-.64.079-.845.238a1.27 1.27 0 0 0-.423.522l-.998-.228c.119-.331.292-.598.519-.802a2.11 2.11 0 0 1 .792-.448 3.113 3.113 0 0 1 1.633-.063c.247.049.476.142.69.277.215.134.391.327.528.578.138.249.206.572.206.97V243h-1.037v-.746h-.042a1.491 1.491 0 0 1-.31.405 1.623 1.623 0 0 1-.528.33 2.044 2.044 0 0 1-.774.132Zm.23-.853c.294 0 .545-.058.753-.174a1.19 1.19 0 0 0 .647-1.061v-.703a.563.563 0 0 1-.22.106 3.45 3.45 0 0 1-.366.082 59.12 59.12 0 0 1-.402.06l-.326.043a2.66 2.66 0 0 0-.565.131.973.973 0 0 0-.405.266.668.668 0 0 0-.149.455c0 .263.097.462.291.597.194.132.442.198.742.198Zm6.173.842c-.528 0-.982-.119-1.364-.359a2.374 2.374 0 0 1-.873-.997c-.204-.424-.306-.91-.306-1.456 0-.554.105-1.043.313-1.467.208-.426.502-.759.88-.998.38-.239.826-.359 1.34-.359.414 0 .783.077 1.107.231a1.935 1.935 0 0 1 1.143 1.602h-1.032a1.24 1.24 0 0 0-.391-.661c-.201-.184-.471-.277-.81-.277a1.31 1.31 0 0 0-.777.235c-.22.154-.392.374-.515.66-.123.284-.185.62-.185 1.009 0 .397.06.741.181 1.03.12.288.291.512.511.671.223.158.485.238.785.238.202 0 .384-.037.547-.11.166-.076.304-.184.416-.324.113-.139.193-.307.237-.504h1.034a2.01 2.01 0 0 1-.345.945 1.977 1.977 0 0 1-.77.653c-.32.159-.695.238-1.126.238Zm4.353-1.96-.007-1.296h.184l2.174-2.309h1.271l-2.479 2.628h-.166l-.977.977Zm-.977 1.85v-7.273h1.062V243H56.98Zm3.445 0-1.953-2.592.731-.743L61.727 243h-1.303Z" fill="#9A9A9A"></path><path d="M199.871 234.727V242h-1.172l-3.427-4.954h-.06V242h-1.318v-7.273h1.179l3.423 4.958h.064v-4.958h1.311Zm3.793 7.38c-.547 0-1.019-.114-1.417-.341a2.311 2.311 0 0 1-.912-.973c-.213-.422-.32-.918-.32-1.488 0-.561.107-1.054.32-1.478.215-.426.516-.757.902-.994.385-.239.839-.359 1.36-.359.336 0 .653.055.951.164.301.106.566.272.796.497.232.225.414.511.547.859.132.346.199.758.199 1.236v.394h-4.471v-.866h3.238a1.382 1.382 0 0 0-.159-.657 1.167 1.167 0 0 0-.437-.458 1.223 1.223 0 0 0-.647-.167c-.262 0-.493.064-.692.192a1.313 1.313 0 0 0-.465.497 1.422 1.422 0 0 0-.167.671v.756c0 .318.058.59.174.817.116.225.278.398.486.519.209.118.453.177.732.177.187 0 .356-.026.508-.078.151-.054.283-.134.394-.238a.993.993 0 0 0 .252-.387l1.2.135c-.075.317-.22.594-.433.831a2.119 2.119 0 0 1-.81.547 3.096 3.096 0 0 1-1.129.192Zm4.447-5.562 1.101 2.014 1.119-2.014h1.36l-1.645 2.728 1.673 2.727h-1.353l-1.154-1.964-1.144 1.964h-1.363l1.662-2.727-1.62-2.728h1.364Zm7.298 0v.995h-3.136v-.995h3.136Zm-2.362-1.306h1.286v5.12c0 .173.026.306.078.398.054.09.125.152.213.185a.819.819 0 0 0 .291.049c.081 0 .154-.005.22-.017.069-.012.121-.023.156-.032l.217 1.005a2.457 2.457 0 0 1-.756.128 2.096 2.096 0 0 1-.87-.146 1.36 1.36 0 0 1-.615-.504c-.149-.228-.222-.512-.22-.853v-5.333Z" fill="#FFFFFF"></path><path d="M60.718 38.948h-1.667a2.076 2.076 0 0 0-.264-.727 1.954 1.954 0 0 0-1.128-.878 2.54 2.54 0 0 0-.78-.116 2.36 2.36 0 0 0-1.32.375c-.384.246-.684.61-.901 1.088-.217.475-.326 1.057-.326 1.743 0 .7.109 1.288.326 1.766.22.476.52.836.9 1.08.384.24.823.36 1.316.36.274 0 .53-.035.767-.106a2.1 2.1 0 0 0 .647-.326 1.987 1.987 0 0 0 .763-1.24l1.667.01a3.593 3.593 0 0 1-.405 1.221c-.206.38-.475.717-.808 1.008a3.724 3.724 0 0 1-1.168.678c-.446.16-.94.24-1.485.24-.803 0-1.52-.185-2.15-.557-.63-.371-1.126-.908-1.489-1.61-.363-.701-.544-1.543-.544-2.524 0-.984.183-1.825.549-2.524.365-.701.863-1.238 1.493-1.61.63-.371 1.344-.557 2.141-.557.508 0 .981.071 1.418.214.437.143.827.352 1.169.629.342.273.622.61.842 1.008.223.395.37.847.438 1.355Zm5.81 3.171V38.15h1.614V45h-1.565v-1.218h-.071a2.06 2.06 0 0 1-.763.942c-.35.243-.783.365-1.297.365-.45 0-.846-.1-1.191-.299a2.077 2.077 0 0 1-.803-.878c-.193-.387-.29-.853-.29-1.4V38.15h1.615v4.112c0 .434.118.779.356 1.034.238.256.55.384.937.384.238 0 .468-.058.691-.174.223-.116.406-.288.549-.517.145-.232.218-.522.218-.87Zm8.688-2.158-1.471.16a1.182 1.182 0 0 0-.219-.419 1.085 1.085 0 0 0-.41-.317 1.494 1.494 0 0 0-.633-.12c-.336 0-.619.073-.848.218-.226.146-.337.335-.334.567-.003.2.07.361.218.486.152.125.402.227.75.308l1.168.25c.648.14 1.13.36 1.445.664.318.303.479.7.482 1.19-.003.432-.13.812-.38 1.142-.246.327-.59.583-1.03.767-.44.185-.945.277-1.516.277-.838 0-1.513-.176-2.024-.526-.512-.354-.817-.846-.915-1.477l1.575-.151c.07.309.222.542.454.7.232.157.534.236.906.236.383 0 .691-.078.923-.236.235-.158.352-.352.352-.584a.608.608 0 0 0-.227-.486c-.149-.128-.38-.226-.696-.295l-1.168-.245c-.657-.137-1.143-.367-1.459-.691-.315-.327-.47-.74-.468-1.24a1.755 1.755 0 0 1 .343-1.097c.235-.312.56-.553.977-.722.42-.173.903-.26 1.45-.26.802 0 1.434.172 1.895.514.464.342.75.804.86 1.387Zm4.9-1.81v1.248h-3.939V38.15h3.938Zm-2.966-1.642h1.614v6.43c0 .218.033.384.098.5a.53.53 0 0 0 .268.232c.11.042.232.063.366.063.1 0 .193-.008.276-.023.086-.015.152-.028.196-.04l.272 1.262c-.086.03-.21.063-.37.098-.157.036-.35.057-.58.063a2.634 2.634 0 0 1-1.092-.183 1.7 1.7 0 0 1-.772-.633c-.187-.286-.28-.643-.276-1.07v-6.699Zm7.23 8.625c-.67 0-1.249-.147-1.74-.442a2.998 2.998 0 0 1-1.141-1.235c-.268-.53-.401-1.148-.401-1.855 0-.708.133-1.328.4-1.86a3 3 0 0 1 1.143-1.24c.49-.294 1.07-.441 1.739-.441s1.249.147 1.739.441c.49.295.87.708 1.137 1.24.27.532.406 1.152.406 1.86 0 .707-.135 1.326-.406 1.855-.267.53-.646.941-1.137 1.235-.49.295-1.07.442-1.74.442Zm.009-1.294c.362 0 .666-.1.91-.298a1.8 1.8 0 0 0 .543-.812c.122-.339.183-.716.183-1.133 0-.419-.06-.798-.183-1.137a1.799 1.799 0 0 0-.543-.816c-.244-.202-.548-.303-.91-.303-.372 0-.681.1-.928.303a1.83 1.83 0 0 0-.548.816 3.419 3.419 0 0 0-.179 1.137c0 .417.06.794.179 1.133.121.339.304.61.548.812.247.199.556.298.928.298ZM89.032 45v-6.85h1.543v1.164h.08c.143-.392.38-.699.71-.919.33-.223.724-.334 1.181-.334.464 0 .855.113 1.173.339.321.223.547.528.678.914h.071c.152-.38.408-.684.767-.91.363-.229.793-.343 1.29-.343.63 0 1.144.2 1.542.597.399.399.598.98.598 1.744V45h-1.619v-4.348c0-.425-.113-.736-.339-.932a1.21 1.21 0 0 0-.83-.299c-.389 0-.694.122-.913.366-.218.24-.326.554-.326.94V45h-1.583v-4.415c0-.354-.107-.636-.321-.847-.211-.211-.488-.317-.83-.317-.232 0-.443.06-.633.178-.19.116-.342.281-.455.495-.113.212-.17.458-.17.74V45h-1.614Zm17.365 2.711c-.58 0-1.078-.078-1.494-.236-.417-.154-.751-.363-1.004-.624a2.167 2.167 0 0 1-.526-.87l1.454-.352c.065.134.16.266.285.397.125.133.293.243.504.33.214.089.483.133.807.133.458 0 .837-.111 1.138-.334.3-.22.45-.583.45-1.088v-1.298h-.08a2.27 2.27 0 0 1-.366.513 1.862 1.862 0 0 1-.629.442c-.258.118-.584.178-.976.178a2.814 2.814 0 0 1-1.432-.37c-.425-.25-.764-.622-1.017-1.115-.249-.497-.374-1.118-.374-1.864 0-.752.125-1.387.374-1.904.253-.52.593-.915 1.022-1.182.428-.27.905-.406 1.431-.406.401 0 .731.068.99.205.262.134.47.296.624.486a2.7 2.7 0 0 1 .353.53h.089V38.15h1.592v6.962c0 .585-.14 1.07-.419 1.453-.28.384-.662.67-1.146.861-.485.19-1.035.285-1.65.285Zm.013-4.076c.342 0 .633-.083.874-.25a1.54 1.54 0 0 0 .549-.717c.125-.313.187-.687.187-1.124a3.14 3.14 0 0 0-.187-1.133 1.623 1.623 0 0 0-.544-.754c-.238-.18-.531-.272-.879-.272-.36 0-.66.094-.901.281a1.702 1.702 0 0 0-.544.772 3.123 3.123 0 0 0-.183 1.106c0 .419.061.786.183 1.101.125.313.308.556.549.732.243.172.542.258.896.258Zm7.844 1.499c-.669 0-1.248-.147-1.739-.442a2.996 2.996 0 0 1-1.141-1.235c-.268-.53-.402-1.148-.402-1.855 0-.708.134-1.328.402-1.86a2.99 2.99 0 0 1 1.141-1.24c.491-.294 1.07-.441 1.739-.441s1.249.147 1.74.441c.49.295.869.708 1.137 1.24.27.532.406 1.152.406 1.86 0 .707-.136 1.326-.406 1.855-.268.53-.647.941-1.137 1.235-.491.295-1.071.442-1.74.442Zm.009-1.294c.363 0 .666-.1.91-.298a1.8 1.8 0 0 0 .544-.812c.122-.339.183-.716.183-1.133a3.34 3.34 0 0 0-.183-1.137 1.798 1.798 0 0 0-.544-.816c-.244-.202-.547-.303-.91-.303-.371 0-.68.1-.927.303a1.83 1.83 0 0 0-.549.816 3.417 3.417 0 0 0-.178 1.137c0 .417.059.794.178 1.133.122.339.305.61.549.812.247.199.556.298.927.298Zm6.615 1.298a2.86 2.86 0 0 1-1.173-.232 1.91 1.91 0 0 1-.82-.695c-.2-.307-.299-.684-.299-1.133 0-.387.071-.706.214-.959.143-.253.337-.455.584-.606.247-.152.525-.267.834-.344.312-.08.635-.138.968-.174.401-.041.727-.078.976-.111.25-.036.431-.09.544-.16.116-.075.174-.19.174-.344v-.027c0-.336-.099-.596-.298-.78-.2-.185-.487-.277-.861-.277-.396 0-.709.086-.941.259a1.282 1.282 0 0 0-.464.61l-1.507-.213c.119-.416.315-.764.588-1.044a2.562 2.562 0 0 1 1.004-.633 3.835 3.835 0 0 1 1.311-.214c.33 0 .658.039.986.116.327.077.625.205.896.383.27.176.487.415.651.718.166.304.25.683.25 1.138V45h-1.552v-.941h-.054a1.97 1.97 0 0 1-.414.535 2 2 0 0 1-.665.397 2.679 2.679 0 0 1-.932.147Zm.419-1.186c.324 0 .605-.064.843-.192.238-.13.421-.303.549-.517.13-.214.196-.448.196-.7v-.807a.764.764 0 0 1-.259.116 3.697 3.697 0 0 1-.401.093 12.5 12.5 0 0 1-.442.072l-.379.053a2.808 2.808 0 0 0-.646.16 1.071 1.071 0 0 0-.451.313.76.76 0 0 0-.165.508c0 .297.109.522.326.674.217.151.493.227.829.227Zm6.435-8.085V45h-1.614v-9.133h1.614Z" fill="#292929"></path><path d="m25.445 112-2.218-8h1.27l1.558 6.195h.074L27.75 104h1.258l1.62 6.199h.075L32.258 104h1.273l-2.222 8h-1.215l-1.684-5.992h-.062L26.664 112h-1.219Zm10.261-3.563V112h-1.168v-8h1.152v2.977h.075c.14-.323.355-.58.644-.77.29-.19.667-.285 1.133-.285.411 0 .77.085 1.078.254.31.169.55.422.719.758.172.333.258.75.258 1.25V112h-1.168v-3.676c0-.44-.114-.781-.34-1.023-.227-.245-.542-.367-.945-.367-.276 0-.524.058-.743.175a1.27 1.27 0 0 0-.511.516 1.673 1.673 0 0 0-.184.812Zm7.195 3.696c-.38 0-.724-.07-1.03-.211a1.734 1.734 0 0 1-.731-.621c-.177-.271-.266-.603-.266-.996 0-.339.065-.618.195-.836.13-.219.306-.392.528-.52a2.77 2.77 0 0 1 .742-.289c.273-.065.552-.114.836-.148l.875-.102c.224-.028.387-.074.488-.137.102-.062.152-.164.152-.304v-.028c0-.341-.096-.605-.289-.793-.19-.187-.474-.281-.851-.281-.393 0-.703.087-.93.262a1.4 1.4 0 0 0-.465.574l-1.097-.25c.13-.364.32-.659.57-.883.252-.226.543-.39.871-.492a3.406 3.406 0 0 1 1.035-.156c.24 0 .494.029.762.086.27.054.523.156.758.304.237.149.43.361.582.637.15.274.226.629.226 1.067V112h-1.14v-.82h-.047a1.664 1.664 0 0 1-.34.445 1.797 1.797 0 0 1-.582.363c-.237.097-.52.145-.852.145Zm.254-.938c.323 0 .6-.063.828-.191a1.34 1.34 0 0 0 .528-.5 1.3 1.3 0 0 0 .183-.668v-.774a.61.61 0 0 1-.242.118 3.97 3.97 0 0 1-.402.09 80.51 80.51 0 0 1-.442.066l-.359.047a2.9 2.9 0 0 0-.621.144 1.075 1.075 0 0 0-.445.293c-.11.125-.164.292-.164.5 0 .289.106.508.32.657.213.145.486.218.816.218ZM50.22 106v.937h-3.28V106h3.278Zm-2.399-1.438h1.168v5.676c0 .227.034.397.102.512a.526.526 0 0 0 .262.23c.109.04.227.059.355.059.094 0 .176-.006.246-.019l.164-.032.211.965a1.965 1.965 0 0 1-.289.078 2.222 2.222 0 0 1-.469.047 2.053 2.053 0 0 1-.86-.164 1.48 1.48 0 0 1-.644-.531c-.164-.24-.246-.541-.246-.903v-5.918Zm8.848 7.555c-.484 0-.917-.124-1.297-.371-.378-.25-.674-.605-.89-1.066-.214-.464-.32-1.02-.32-1.668 0-.649.107-1.203.323-1.664.22-.461.519-.814.899-1.059s.811-.367 1.293-.367c.372 0 .672.062.898.187.23.123.407.266.532.43.127.164.226.309.296.434h.07V104h1.169v8H58.5v-.934h-.098c-.07.128-.172.274-.304.438-.13.164-.31.307-.54.43-.229.122-.525.183-.89.183Zm.258-.996c.336 0 .62-.088.851-.266.235-.179.412-.428.532-.746a3.07 3.07 0 0 0 .183-1.109c0-.417-.06-.781-.18-1.094a1.606 1.606 0 0 0-.527-.73c-.232-.175-.518-.262-.86-.262-.35 0-.644.091-.878.274a1.66 1.66 0 0 0-.531.746A3.04 3.04 0 0 0 55.34 109c0 .401.06.762.18 1.082.12.32.296.574.53.762.238.185.53.277.876.277Zm6.909 1c-.563 0-1.053-.129-1.473-.387a2.6 2.6 0 0 1-.976-1.082c-.232-.463-.348-1.005-.348-1.625 0-.622.116-1.166.348-1.632.231-.467.557-.829.976-1.086.42-.258.91-.387 1.473-.387.562 0 1.053.129 1.473.387.419.257.744.619.976 1.086.232.466.348 1.01.348 1.632 0 .62-.116 1.162-.348 1.625a2.6 2.6 0 0 1-.976 1.082c-.42.258-.91.387-1.473.387Zm.004-.98c.365 0 .666-.097.906-.289.24-.193.417-.45.531-.77a3.04 3.04 0 0 0 .176-1.059c0-.382-.058-.734-.176-1.054a1.724 1.724 0 0 0-.53-.778c-.24-.195-.542-.293-.907-.293-.367 0-.672.098-.914.293-.24.196-.418.455-.535.778a3.1 3.1 0 0 0-.172 1.054c0 .386.057.739.172 1.059.117.32.295.577.535.77.242.192.547.289.914.289Zm7.746 3.109a2.41 2.41 0 0 1-.477-.043 1.512 1.512 0 0 1-.32-.086l.281-.957c.214.057.404.082.57.074a.684.684 0 0 0 .442-.187c.13-.117.245-.309.344-.574l.144-.399L70.374 106h1.25l1.52 4.656h.062l1.52-4.656h1.254l-2.473 6.801c-.115.312-.26.577-.438.793a1.691 1.691 0 0 1-.633.492 2.076 2.076 0 0 1-.851.164Zm7.815-2.129c-.562 0-1.053-.129-1.472-.387a2.6 2.6 0 0 1-.977-1.082c-.232-.463-.347-1.005-.347-1.625 0-.622.115-1.166.347-1.632.232-.467.558-.829.977-1.086.419-.258.91-.387 1.472-.387.563 0 1.054.129 1.473.387.42.257.745.619.977 1.086.231.466.347 1.01.347 1.632 0 .62-.116 1.162-.347 1.625a2.6 2.6 0 0 1-.977 1.082c-.42.258-.91.387-1.473.387Zm.004-.98c.365 0 .667-.097.907-.289.24-.193.416-.45.53-.77a3.04 3.04 0 0 0 .177-1.059c0-.382-.059-.734-.176-1.054a1.724 1.724 0 0 0-.531-.778c-.24-.195-.542-.293-.907-.293-.367 0-.672.098-.914.293-.24.196-.418.455-.535.778-.114.32-.172.672-.172 1.054 0 .386.058.739.172 1.059.117.32.296.577.535.77.242.192.547.289.914.289Zm7.898-1.629V106h1.172v6h-1.149v-1.039h-.062c-.138.32-.36.587-.664.801-.303.211-.679.316-1.13.316-.385 0-.726-.085-1.023-.254a1.785 1.785 0 0 1-.695-.762c-.167-.335-.25-.751-.25-1.246V106h1.168v3.676c0 .409.113.734.34.976.226.243.52.364.883.364a1.437 1.437 0 0 0 1.195-.661c.146-.221.217-.502.215-.843ZM94.255 112l-1.766-6h1.207l1.176 4.406h.059L96.11 106h1.206l1.172 4.387h.059L99.716 106h1.207l-1.762 6H97.97l-1.219-4.332h-.09L95.442 112h-1.187Zm9.522.133c-.38 0-.724-.07-1.031-.211a1.73 1.73 0 0 1-.73-.621c-.177-.271-.266-.603-.266-.996 0-.339.065-.618.195-.836.131-.219.306-.392.528-.52.221-.127.468-.224.742-.289.273-.065.552-.114.836-.148l.875-.102c.224-.028.387-.074.488-.137.102-.062.152-.164.152-.304v-.028c0-.341-.096-.605-.289-.793-.19-.187-.474-.281-.851-.281-.393 0-.703.087-.93.262a1.4 1.4 0 0 0-.465.574l-1.097-.25c.13-.364.32-.659.57-.883a2.33 2.33 0 0 1 .871-.492 3.404 3.404 0 0 1 1.035-.156c.24 0 .494.029.762.086.271.054.523.156.758.304.237.149.431.361.582.637.151.274.226.629.226 1.067V112h-1.14v-.82h-.047a1.676 1.676 0 0 1-.34.445 1.795 1.795 0 0 1-.582.363 2.246 2.246 0 0 1-.852.145Zm.254-.938c.323 0 .599-.063.828-.191.232-.128.408-.294.528-.5a1.3 1.3 0 0 0 .183-.668v-.774a.603.603 0 0 1-.242.118 3.957 3.957 0 0 1-.402.09l-.442.066-.359.047a2.886 2.886 0 0 0-.621.144 1.073 1.073 0 0 0-.445.293c-.11.125-.164.292-.164.5 0 .289.106.508.32.657.213.145.486.218.816.218Zm5.431-2.758V112h-1.168v-6h1.121v.977h.074c.138-.318.354-.573.649-.766.297-.193.67-.289 1.121-.289.409 0 .767.086 1.074.258.307.169.546.422.715.757.169.336.254.752.254 1.247V112h-1.168v-3.676c0-.435-.113-.775-.34-1.019-.227-.248-.538-.371-.934-.371-.27 0-.511.058-.722.175a1.26 1.26 0 0 0-.496.516 1.7 1.7 0 0 0-.18.812Zm8.207-2.437v.937h-3.277V106h3.277Zm-2.398-1.438h1.167v5.676c0 .227.034.397.102.512a.526.526 0 0 0 .262.23c.109.04.228.059.355.059.094 0 .176-.006.246-.019l.164-.032.211.965a1.94 1.94 0 0 1-.289.078 2.217 2.217 0 0 1-.468.047 2.055 2.055 0 0 1-.86-.164 1.482 1.482 0 0 1-.644-.531c-.164-.24-.246-.541-.246-.903v-5.918Zm9.402 1.438v.937h-3.277V106h3.277Zm-2.399-1.438h1.168v5.676c0 .227.034.397.102.512a.526.526 0 0 0 .262.23c.109.04.228.059.355.059.094 0 .176-.006.246-.019l.164-.032.211.965a1.94 1.94 0 0 1-.289.078 2.22 2.22 0 0 1-.469.047 2.053 2.053 0 0 1-.859-.164 1.476 1.476 0 0 1-.644-.531c-.165-.24-.247-.541-.247-.903v-5.918Zm6.154 7.559c-.563 0-1.054-.129-1.473-.387a2.595 2.595 0 0 1-.976-1.082c-.232-.463-.348-1.005-.348-1.625 0-.622.116-1.166.348-1.632.231-.467.557-.829.976-1.086.419-.258.91-.387 1.473-.387.562 0 1.053.129 1.472.387.42.257.745.619.977 1.086.232.466.348 1.01.348 1.632 0 .62-.116 1.162-.348 1.625a2.598 2.598 0 0 1-.977 1.082c-.419.258-.91.387-1.472.387Zm.004-.98c.364 0 .666-.097.906-.289.239-.193.417-.45.531-.77.117-.32.176-.673.176-1.059 0-.382-.059-.734-.176-1.054a1.723 1.723 0 0 0-.531-.778c-.24-.195-.542-.293-.906-.293-.368 0-.672.098-.914.293-.24.196-.418.455-.536.778-.114.32-.171.672-.171 1.054 0 .386.057.739.171 1.059.118.32.296.577.536.77.242.192.546.289.914.289Zm9.535.98c-.581 0-1.081-.131-1.5-.394a2.614 2.614 0 0 1-.961-1.098c-.224-.466-.336-1-.336-1.602 0-.609.115-1.147.344-1.613.229-.469.552-.835.968-1.098.417-.263.908-.394 1.473-.394.456 0 .862.085 1.219.254.357.166.644.401.863.703.221.302.353.655.395 1.058h-1.137a1.364 1.364 0 0 0-.43-.726c-.221-.203-.518-.305-.89-.305-.326 0-.611.086-.856.258a1.655 1.655 0 0 0-.566.727c-.136.312-.203.682-.203 1.109 0 .437.066.815.199 1.133.133.318.32.564.562.738.245.175.533.262.864.262.221 0 .421-.041.601-.121.182-.084.335-.202.457-.356.125-.153.212-.338.262-.554h1.137a2.213 2.213 0 0 1-.379 1.039 2.183 2.183 0 0 1-.848.718c-.351.175-.764.262-1.238.262Zm5.46.012c-.38 0-.724-.07-1.031-.211a1.733 1.733 0 0 1-.731-.621c-.177-.271-.266-.603-.266-.996 0-.339.066-.618.196-.836.13-.219.306-.392.527-.52a2.77 2.77 0 0 1 .742-.289c.274-.065.552-.114.836-.148l.875-.102c.224-.028.387-.074.488-.137.102-.062.153-.164.153-.304v-.028c0-.341-.097-.605-.289-.793-.19-.187-.474-.281-.852-.281-.393 0-.703.087-.929.262a1.4 1.4 0 0 0-.465.574l-1.098-.25c.13-.364.32-.659.57-.883a2.33 2.33 0 0 1 .871-.492 3.415 3.415 0 0 1 1.036-.156c.239 0 .493.029.761.086.271.054.524.156.758.304.237.149.431.361.582.637.151.274.227.629.227 1.067V112h-1.141v-.82h-.047a1.655 1.655 0 0 1-.34.445 1.795 1.795 0 0 1-.582.363 2.244 2.244 0 0 1-.851.145Zm.254-.938c.323 0 .599-.063.828-.191a1.34 1.34 0 0 0 .527-.5 1.29 1.29 0 0 0 .184-.668v-.774a.618.618 0 0 1-.242.118 4.043 4.043 0 0 1-.403.09l-.441.066-.36.047a2.914 2.914 0 0 0-.621.144 1.073 1.073 0 0 0-.445.293c-.109.125-.164.292-.164.5 0 .289.107.508.32.657.214.145.486.218.817.218Zm5.43-7.195v8h-1.168v-8h1.168Zm2.74 0v8h-1.168v-8h1.168Zm4.482 8v-6h1.168v6h-1.168Zm.59-6.926a.742.742 0 0 1-.524-.203.66.66 0 0 1-.214-.492.65.65 0 0 1 .214-.492.737.737 0 0 1 .524-.207.72.72 0 0 1 .519.207.645.645 0 0 1 .219.492c0 .19-.073.354-.219.492a.725.725 0 0 1-.519.203Zm4.95.926v.937h-3.277V106h3.277Zm-2.398-1.438h1.168v5.676c0 .227.033.397.101.512a.526.526 0 0 0 .262.23c.109.04.228.059.355.059.094 0 .176-.006.246-.019l.164-.032.211.965a1.94 1.94 0 0 1-.289.078 2.217 2.217 0 0 1-.468.047 2.055 2.055 0 0 1-.86-.164 1.482 1.482 0 0 1-.644-.531c-.164-.24-.246-.541-.246-.903v-5.918Zm4.967 5.137v-.074c.006-.484.054-.87.145-1.156.094-.287.226-.518.398-.696.172-.177.379-.338.621-.484.157-.099.297-.21.422-.332.125-.122.224-.263.297-.422.073-.159.11-.334.11-.527a1.09 1.09 0 0 0-.164-.602 1.1 1.1 0 0 0-.438-.39 1.374 1.374 0 0 0-1.176-.016 1.09 1.09 0 0 0-.453.391c-.12.174-.189.399-.207.675h-1.187c.018-.468.136-.864.355-1.187.219-.326.508-.572.867-.738.362-.167.762-.25 1.199-.25.48 0 .899.089 1.258.269.36.177.638.426.836.746.201.318.301.689.301 1.114 0 .291-.046.554-.137.789a1.974 1.974 0 0 1-.39.621 2.702 2.702 0 0 1-.602.484 2.626 2.626 0 0 0-.539.43 1.376 1.376 0 0 0-.297.527 2.778 2.778 0 0 0-.101.754v.074h-1.118Zm.59 2.375a.76.76 0 0 1-.551-.226.76.76 0 0 1-.23-.555.74.74 0 0 1 .23-.547.752.752 0 0 1 .551-.23c.211 0 .393.076.547.23a.733.733 0 0 1 .234.547.74.74 0 0 1-.109.394.807.807 0 0 1-.281.282.749.749 0 0 1-.391.105Z" fill="#8F8F8F"></path><circle cx="33" cy="40" r="11" fill="#59AD7E"></circle><path d="m37.524 36.556-1.26-1.26a.61.61 0 0 0-.883 0l-5.924 5.923a.602.602 0 0 0-.168.42V42.9c0 .336.294.63.63.63h1.26a.642.642 0 0 0 .42-.168l5.925-5.924a.61.61 0 0 0 0-.882Z" fill="#FFFFFF"></path><path d="M24 160h209" stroke="#58A4ED" stroke-linecap="round" fill="none"></path></svg>